<?xml version="1.0" encoding="UTF-8" standalone="no"?>
<!-- Created with Inkscape (http://www.inkscape.org/) -->
<svg
   xmlns:dc="http://purl.org/dc/elements/1.1/"
   xmlns:cc="http://web.resource.org/cc/"
   xmlns:rdf="http://www.w3.org/1999/02/22-rdf-syntax-ns#"
   xmlns:svg="http://www.w3.org/2000/svg"
   xmlns="http://www.w3.org/2000/svg"
   xmlns:sodipodi="http://sodipodi.sourceforge.net/DTD/sodipodi-0.dtd"
   xmlns:inkscape="http://www.inkscape.org/namespaces/inkscape"
   width="841.88977pt"
   height="595.27557pt"
   id="svg2"
   sodipodi:version="0.32"
   inkscape:version="0.45"
   version="1.0"
   sodipodi:docbase="/home/gchaix/OSL_logos"
   sodipodi:docname="osl_logo_orange_white_black_new.svg"
   inkscape:export-filename="/home/gchaix/osl_cube3.png"
   inkscape:export-xdpi="45"
   inkscape:export-ydpi="45"
   inkscape:output_extension="org.inkscape.output.svg.inkscape"
   sodipodi:modified="true">
  <defs
     id="defs4">
    <marker
       orient="auto"
       markerHeight="3"
       markerWidth="4"
       markerUnits="strokeWidth"
       refY="5"
       refX="10"
       viewBox="0 0 10 10"
       id="ArrowStart">
      <path
         id="path1366"
         d="M 10,0 L 0,5 L 10,10 L 10,0 z " />
    </marker>
    <marker
       orient="auto"
       markerHeight="3"
       markerWidth="4"
       markerUnits="strokeWidth"
       refY="5"
       refX="0"
       viewBox="0 0 10 10"
       id="ArrowEnd">
      <path
         id="path1363"
         d="M 0,0 L 10,5 L 0,10 L 0,0 z " />
    </marker>
  </defs>
  <sodipodi:namedview
     id="base"
     pagecolor="#ffffff"
     bordercolor="#666666"
     borderopacity="1.0"
     inkscape:pageopacity="0"
     inkscape:pageshadow="2"
     inkscape:zoom="1.1543034"
     inkscape:cx="526.77717"
     inkscape:cy="398.95708"
     inkscape:document-units="px"
     inkscape:current-layer="layer2"
     showgrid="true"
     inkscape:grid-points="true"
     inkscape:window-width="1280"
     inkscape:window-height="949"
     inkscape:window-x="1280"
     inkscape:window-y="25"
     showguides="false" />
  <metadata
     id="metadata7">
    <rdf:RDF>
      <cc:Work
         rdf:about="">
        <dc:format>image/svg+xml</dc:format>
        <dc:type
           rdf:resource="http://purl.org/dc/dcmitype/StillImage" />
      </cc:Work>
    </rdf:RDF>
  </metadata>
  <g
     inkscape:label="Layer 1"
     inkscape:groupmode="layer"
     id="layer1"
     style="display:inline">
    <rect
       style="opacity:1;fill:#000000;fill-opacity:0;stroke:black;stroke-width:1.8223846;stroke-opacity:0"
       id="rect7069"
       width="2558.1775"
       height="1022.1776"
       x="-89.828598"
       y="-272.24091"
       inkscape:export-filename="/home/gchaix/osl_cube.png"
       inkscape:export-xdpi="90"
       inkscape:export-ydpi="90" />
  </g>
  <g
     inkscape:groupmode="layer"
     id="layer2"
     inkscape:label="Letters"
     style="display:inline">
    <g
       id="g4358"
       transform="matrix(0.4924863,0,0,0.4924863,-48.631363,226.96136)">
      <g
         transform="matrix(2.035424,0,0,2.082055,94.083364,-490.0681)"
         style="fill:#000000;fill-opacity:1;stroke:#000000;stroke-opacity:0.02185795"
         id="g5284">
        <path
           style="fill:#000000;fill-opacity:1;stroke:#000000;stroke-opacity:0.02185795"
           d="M 29.066975,504.63526 C 29.066975,494.64439 38.425481,485.3579 57.387075,485.57319 C 76.348302,485.3579 85.721271,494.63004 85.721271,504.63526 C 85.721271,514.41083 77.225281,523.84121 57.387075,523.84121 C 37.562928,523.84121 29.066975,514.41083 29.066975,504.63526 z M 15.812701,504.70739 C 15.812701,519.61456 31.022053,530.09452 57.387075,530.09452 C 83.737303,530.09452 98.975324,519.61456 98.975324,504.70739 C 98.975324,490.15903 83.622482,479.31989 57.387075,479.31989 C 31.151411,479.31989 15.812701,490.14467 15.812701,504.70739 z "
           id="path1376" />
        <path
           style="fill:#000000;fill-opacity:1;stroke:#000000;stroke-opacity:0.02185795"
           d="M 122.17755,486.30665 L 132.64316,486.30665 C 140.27652,486.30665 151.60438,488.57803 151.60438,494.84569 C 151.60438,501.38642 142.00141,503.6004 134.36804,503.6004 L 122.17755,503.6004 L 122.17755,486.30665 z M 109.67094,529.36143 L 122.17755,529.36143 L 122.17755,509.86806 L 134.29628,509.86806 C 149.8795,509.86806 164.84445,505.9579 164.84445,494.93181 C 164.84445,483.63265 150.08044,480.06732 132.35537,480.06732 L 109.67094,480.06732 L 109.67094,529.36143 z "
           id="path1378" />
        <path
           style="fill:#000000;fill-opacity:1;stroke:#000000;stroke-opacity:0.02185795"
           d="M 173.32609,529.36143 L 221.87239,529.36143 L 221.87239,523.10813 L 185.8327,523.10813 L 185.8327,506.921 L 218.65226,506.921 L 218.65226,500.66769 L 185.8327,500.66769 L 185.8327,486.321 L 221.87239,486.321 L 221.87239,480.06732 L 173.32609,480.06732 L 173.32609,529.36143 z "
           id="path1380" />
        <path
           style="fill:#000000;fill-opacity:1;stroke:#000000;stroke-opacity:0.02185795"
           d="M 235.15515,529.36143 L 247.66214,529.36143 L 247.66214,488.87981 L 247.9065,488.87981 L 287.00807,529.36143 L 302.85,529.36143 L 302.85,480.05297 L 290.34302,480.05297 L 290.34302,519.78716 L 290.09866,519.78716 L 251.98925,480.05297 L 235.1695,480.05297 L 235.15515,529.36143 z "
           id="path1382" />
        <path
           style="fill:#000000;fill-opacity:1;stroke:#000000;stroke-opacity:0.02185795"
           d="M 405.95266,481.15996 C 400.02762,479.90944 393.24143,479.31989 387.56296,479.31989 C 372.02501,479.31989 359.921,483.94878 359.921,492.66042 C 359.921,507.89881 396.70813,504.87962 396.70813,515.83395 C 396.70813,521.58418 386.87477,523.84121 379.87513,523.84121 C 373.62072,523.84121 366.24607,522.51857 362.06285,521.59853 L 360.84104,528.08185 C 366.51951,529.11707 372.44197,530.09452 378.49508,530.09452 C 395.77337,530.09452 409.97506,525.95435 409.97506,515.48875 C 409.97506,499.34504 373.18941,501.51596 373.18941,492.11429 C 373.18941,486.99667 381.28095,485.58755 388.15547,485.58755 C 394.53684,485.58755 397.9741,486.16275 404.22667,487.4854 L 405.95266,481.15996 z "
           id="path1384" />
        <path
           style="fill:#000000;fill-opacity:1;stroke:#000000;stroke-opacity:0.02185795"
           d="M 429.45409,504.63526 C 429.45409,494.64439 438.8127,485.3579 457.77651,485.57319 C 476.73663,485.3579 486.10996,494.63004 486.10996,504.63526 C 486.10996,514.41083 477.6125,523.84121 457.77651,523.84121 C 437.95155,523.84121 429.45409,514.41083 429.45409,504.63526 z M 416.21659,504.70739 C 416.21659,519.61456 431.42297,530.09452 457.79123,530.09452 C 484.14109,530.09452 499.3769,519.61456 499.3769,504.70739 C 499.3769,490.15903 484.02332,479.31989 457.79123,479.31989 C 431.55545,479.31989 416.21659,490.14467 416.21659,504.70739 z "
           id="path1386" />
        <path
           style="fill:#000000;fill-opacity:1;stroke:#000000;stroke-opacity:0.02185795"
           d="M 578.14311,480.05297 L 565.63428,480.05297 L 565.63428,507.92752 C 565.63428,517.3579 560.44527,523.82686 544.47343,523.82686 C 528.51631,523.82686 523.3273,517.3579 523.3273,507.92752 L 523.3273,480.05297 L 510.82216,480.05297 L 510.82216,508.87626 C 510.82216,522.69117 523.11385,530.09452 544.47343,530.09452 C 565.83669,530.09452 578.14311,522.70552 578.14311,508.87626 L 578.14311,480.05297 z "
           id="path1388" />
        <path
           style="fill:#000000;fill-opacity:1;stroke:#000000;stroke-opacity:0.02185795"
           d="M 593.23539,529.36143 L 605.74422,529.36143 L 605.74422,507.65408 L 613.11923,507.65408 C 619.62941,507.65408 623.69966,507.65408 627.50861,512.41251 L 640.67618,529.34708 L 654.7049,529.34708 L 638.39081,509.70981 C 635.67118,506.67663 633.82007,505.62742 629.99639,504.7648 L 629.99639,504.63526 C 640.12784,503.65781 648.02176,499.41717 648.02176,493.40786 C 648.02176,481.61998 631.53101,480.05297 614.41096,480.05297 L 593.20595,480.05297 L 593.23539,529.36143 z M 605.74422,486.30665 L 617.56117,486.30665 C 628.88867,486.30665 634.7953,489.15287 634.7953,493.63824 C 634.7953,498.3963 627.89503,501.38642 616.20688,501.38642 L 605.74422,501.38642 L 605.74422,486.30665 z "
           id="path1390" />
        <path
           style="fill:#000000;fill-opacity:1;stroke:#000000;stroke-opacity:0.02185795"
           d="M 723.69296,481.51951 C 717.51399,479.90944 710.97069,479.31989 704.30226,479.31989 C 678.0076,479.31989 658.74571,489.36853 658.74571,504.49173 C 658.74571,520.10365 676.88884,530.08017 704.18817,530.08017 C 709.24838,530.08017 717.26742,529.87886 723.82544,528.34056 L 723.08942,521.58418 C 718.791,522.96423 710.54011,523.82686 704.3869,523.82686 C 686.54923,523.82686 672.01264,516.1935 672.01264,504.69303 C 672.01264,493.69565 685.18389,485.55884 705.00517,485.55884 C 711.27246,485.55884 717.31158,486.42147 722.73244,488.16107 L 723.69296,481.51951 z "
           id="path1392" />
        <path
           style="fill:#000000;fill-opacity:1;stroke:#000000;stroke-opacity:0.02185795"
           d="M 733.08102,529.36143 L 781.62953,529.36143 L 781.62953,523.10813 L 745.58984,523.10813 L 745.58984,506.921 L 778.4094,506.921 L 778.4094,500.66769 L 745.58984,500.66769 L 745.58984,486.321 L 781.62953,486.321 L 781.62953,480.06732 L 733.08102,480.06732 L 733.08102,529.36143 z "
           id="path1394" />
        <path
           style="fill:#000000;fill-opacity:1;stroke:#000000;stroke-opacity:0.02185795"
           d="M 841.64538,529.36143 L 890.30798,529.36143 L 890.30798,523.10813 L 854.16893,523.10813 L 854.16893,480.05297 L 841.6601,480.05297 L 841.64538,529.36143 z "
           id="path1396" />
        <path
           style="fill:#000000;fill-opacity:1;stroke:#000000;stroke-opacity:0.02185795"
           d="M 888.00789,529.36143 L 900.95833,529.36143 L 909.7134,516.85445 L 951.89158,516.85445 L 960.64665,529.36143 L 974.10127,529.36143 L 937.70461,480.05297 L 924.75048,480.05297 L 888.00789,529.36143 z M 948.11206,510.96069 L 913.7542,510.96069 L 930.93313,486.68018 L 948.11206,510.96069 z "
           id="path1398" />
        <path
           style="fill:#000000;fill-opacity:1;stroke:#000000;stroke-opacity:0.02185795"
           d="M 980.02631,529.36143 L 1003.0272,529.36143 C 1020.5926,529.36143 1035.9314,526.83133 1035.9314,516.2222 C 1035.9314,509.30757 1027.6069,504.92304 1015.8047,504.36219 L 1015.8047,504.23302 C 1026.7458,502.68036 1033.7197,499.28763 1033.7197,492.5169 C 1033.7197,483.41699 1021.3396,480.08204 1003.3842,480.08204 L 979.99687,480.08204 L 980.02631,529.36143 z M 992.53145,506.921 L 1000.4953,506.921 C 1011.0352,506.921 1022.6939,507.97057 1022.6939,515.54653 C 1022.6939,522.13031 1012.7575,523.46731 1001.7318,523.46731 L 992.54617,523.46731 L 992.53145,506.921 z M 992.53145,485.93274 L 1005.3972,485.93274 C 1012.4999,485.93274 1021.2256,487.39891 1021.2256,493.19257 C 1021.2256,500.38027 1011.1788,501.01289 999.27348,501.01289 L 992.53145,501.01289 L 992.53145,485.93274 z "
           id="path1400" />
      </g>
      <g
         id="g11156">
        <path
           style="fill:#c94400;fill-opacity:1;stroke:#000000;stroke-width:2.05860758;stroke-opacity:1"
           d="M 1517.1407,-133.70179 C 1517.1407,-133.70179 1041.3339,-133.70179 979.888,-133.70179 C 918.47203,-133.70179 857.25834,-80.64742 857.25834,-5.4319804 C 857.25834,69.77872 857.25834,27.43076 857.25834,69.77872 C 857.25834,112.09692 895.29591,217.93709 998.9667,217.93709 C 1102.6075,217.93709 1333.9641,217.93709 1356.4361,217.93709 C 1378.8781,217.93709 1410.3389,231.1862 1410.3389,274.33002 C 1410.3389,317.47387 1399.5074,348.43938 1360.6533,348.43938 C 1321.7917,348.43938 857.25834,348.43938 857.25834,348.43938 L 857.25834,454.58581 C 857.25834,454.58581 1385.0878,454.58581 1411.3876,454.58581 C 1437.6948,454.58581 1517.1407,419.5204 1517.1407,344.00264 C 1517.1407,268.48565 1517.1407,241.13049 1517.1407,211.32741 C 1517.1407,181.52436 1487.5526,109.58794 1381.777,109.58794 C 1276.0313,109.58794 1123.7312,109.58794 1034.8994,109.58794 C 946.0901,109.58794 924.90651,-27.55377 1034.8994,-27.55377 C 1144.8848,-27.55377 1521.3804,-27.55377 1521.3804,-27.55377 L 1517.1632,-133.70179"
           id="path1372" />
        <path
           style="fill:#c94400;fill-opacity:1;stroke:#000000;stroke-width:2.05860758;stroke-opacity:1"
           d="M 1635.9467,-133.70179 C 1635.9467,-133.70179 1635.9467,290.76129 1635.9467,334.29594 C 1635.9467,377.80112 1665.5872,454.58581 1752.2916,454.58581 C 1838.9885,454.58581 2210.4805,454.58581 2210.4805,454.58581 L 2210.4805,338.68268 L 1792.494,338.68268 C 1792.494,338.68268 1745.9695,338.68268 1745.9695,290.57928 C 1745.9695,242.47587 1745.9695,-133.67083 1745.9695,-133.67083 L 1635.9766,-133.67083"
           id="path1374" />
        <path
           style="fill:#c94400;fill-opacity:1;stroke:#000000;stroke-width:2.05860758;stroke-opacity:1;display:inline"
           d="M 229.92517,-133.69539 C 204.26366,-133.69539 126.26892,-115.19793 126.26892,-20.44538 L 126.26892,-13.50788 C 126.26891,-13.50788 126.26892,194.51929 126.26892,315.30461 L 126.26892,347.08586 C 126.26892,368.32045 141.24984,454.58591 224.61267,454.58581 L 253.67517,454.58581 L 657.17517,454.58581 L 686.23767,454.58581 C 769.60049,454.58591 784.58142,368.32045 784.58142,347.08586 L 784.58142,315.30461 C 784.58142,194.51929 784.58142,-13.50788 784.58142,-13.50788 L 784.58142,-20.44538 C 784.58142,-115.19793 706.61793,-133.69539 680.95642,-133.69539 C 679.79435,-133.69539 664.04567,-133.69539 661.39392,-133.69539 C 661.39392,-133.69539 305.25428,-133.69539 249.45642,-133.69539 C 246.81087,-133.69539 231.08547,-133.69539 229.92517,-133.69539 z M 259.14392,-27.35163 L 651.70642,-27.35163 C 662.88398,-27.35162 671.98767,-17.41152 671.98767,-5.1953804 L 671.98767,329.61711 C 671.98767,341.83325 662.9132,351.74211 651.70642,351.74211 L 259.14392,351.74211 C 247.93714,351.74211 238.86268,341.83325 238.86267,329.61711 L 238.86267,-5.1953804 C 238.86267,-17.41152 247.96636,-27.35162 259.14392,-27.35163 z "
           id="path2337" />
      </g>
    </g>
  </g>
</svg>
