<?xml version="1.0" encoding="UTF-8" standalone="no"?>
<!-- Created with Inkscape (http://www.inkscape.org/) -->

<svg
   xmlns:dc="http://purl.org/dc/elements/1.1/"
   xmlns:cc="http://creativecommons.org/ns#"
   xmlns:rdf="http://www.w3.org/1999/02/22-rdf-syntax-ns#"
   xmlns:svg="http://www.w3.org/2000/svg"
   xmlns="http://www.w3.org/2000/svg"
   xmlns:xlink="http://www.w3.org/1999/xlink"
   xmlns:sodipodi="http://sodipodi.sourceforge.net/DTD/sodipodi-0.dtd"
   xmlns:inkscape="http://www.inkscape.org/namespaces/inkscape"
   width="1052.8"
   height="658"
   id="svg2"
   sodipodi:version="0.32"
   inkscape:version="0.48.1 r9760"
   sodipodi:docname="gentoo-freebsd-wallpaper-big-logo-20060515-8:5.svg"
   version="1.0">
  <defs
     id="defs4">
    <linearGradient
       id="linearGradient3592">
      <stop
         style="stop-color:#000000;stop-opacity:1;"
         offset="0"
         id="stop3594" />
      <stop
         id="stop3237"
         offset="0.5"
         style="stop-color:#000000;stop-opacity:0.38766521;" />
      <stop
         style="stop-color:#000000;stop-opacity:0;"
         offset="1"
         id="stop3596" />
    </linearGradient>
    <linearGradient
       id="linearGradient4305">
      <stop
         id="stop4307"
         offset="0"
         style="stop-color:#ffffff;stop-opacity:1;" />
      <stop
         id="stop4311"
         offset="0.75"
         style="stop-color:#ffffff;stop-opacity:1;" />
      <stop
         id="stop4313"
         offset="1"
         style="stop-color:#ffffff;stop-opacity:0;" />
    </linearGradient>
    <linearGradient
       id="linearGradient4261">
      <stop
         style="stop-color:#ffffff;stop-opacity:0;"
         offset="0"
         id="stop4263" />
      <stop
         id="stop4265"
         offset="0.5"
         style="stop-color:#ffffff;stop-opacity:0;" />
      <stop
         style="stop-color:#ffffff;stop-opacity:0;"
         offset="0.75"
         id="stop4269" />
      <stop
         style="stop-color:#ffffff;stop-opacity:1;"
         offset="1"
         id="stop4267" />
    </linearGradient>
    <linearGradient
       id="linearGradient3237">
      <stop
         id="stop3239"
         offset="0"
         style="stop-color:#ffffff;stop-opacity:1;" />
      <stop
         style="stop-color:#ffffff;stop-opacity:0;"
         offset="0.5"
         id="stop3243" />
      <stop
         id="stop3241"
         offset="1"
         style="stop-color:#ffffff;stop-opacity:0;" />
    </linearGradient>
    <linearGradient
       id="linearGradient2235">
      <stop
         id="stop2237"
         offset="0"
         style="stop-color:#fff1e9;stop-opacity:1;" />
      <stop
         style="stop-color:#fff1e9;stop-opacity:1;"
         offset="0"
         id="stop1541" />
      <stop
         style="stop-color:#f3c2ae;stop-opacity:1;"
         offset="0.5"
         id="stop2239" />
      <stop
         id="stop3124"
         offset="0.62"
         style="stop-color:#d03600;stop-opacity:1;" />
      <stop
         id="stop2243"
         offset="0.75"
         style="stop-color:#d03600;stop-opacity:1;" />
      <stop
         id="stop2241"
         offset="1"
         style="stop-color:#6b2e26;stop-opacity:1;" />
    </linearGradient>
    <linearGradient
       id="linearGradient2227">
      <stop
         style="stop-color:#6b2e26;stop-opacity:1;"
         offset="0"
         id="stop2229" />
      <stop
         id="stop2233"
         offset="0.5"
         style="stop-color:#6a2d25;stop-opacity:1;" />
      <stop
         style="stop-color:#d03600;stop-opacity:1;"
         offset="0.75"
         id="stop2247" />
      <stop
         style="stop-color:#fff1e9;stop-opacity:1;"
         offset="1"
         id="stop2231" />
    </linearGradient>
    <linearGradient
       inkscape:collect="always"
       id="linearGradient3560">
      <stop
         style="stop-color:#ffffff;stop-opacity:1;"
         offset="0"
         id="stop3562" />
      <stop
         style="stop-color:#ffffff;stop-opacity:0;"
         offset="1"
         id="stop3564" />
    </linearGradient>
    <linearGradient
       id="linearGradient3539">
      <stop
         style="stop-color:#a798ff;stop-opacity:1;"
         offset="0"
         id="stop3541" />
      <stop
         style="stop-color:#0041c8;stop-opacity:0;"
         offset="1"
         id="stop3543" />
    </linearGradient>
    <linearGradient
       id="linearGradient3004">
      <stop
         id="stop3006"
         offset="0.0000000"
         style="stop-color:#fff1e9;stop-opacity:1.0000000;" />
      <stop
         id="stop3008"
         offset="1.0000000"
         style="stop-color:#d03600;stop-opacity:1.0000000;" />
    </linearGradient>
    <linearGradient
       id="linearGradient2988">
      <stop
         style="stop-color:#c9491c;stop-opacity:1.0000000;"
         offset="0.0000000"
         id="stop2990" />
      <stop
         style="stop-color:#6b2e26;stop-opacity:1.0000000;"
         offset="1.0000000"
         id="stop2992" />
    </linearGradient>
    <radialGradient
       inkscape:collect="always"
       xlink:href="#linearGradient3539"
       id="radialGradient5058"
       cx="932"
       cy="597.09448"
       fx="932"
       fy="597.09448"
       r="281"
       gradientTransform="matrix(1,0,0,0.629893,0,220.9887)"
       gradientUnits="userSpaceOnUse" />
    <radialGradient
       inkscape:collect="always"
       xlink:href="#linearGradient2988"
       id="radialGradient5295"
       gradientUnits="userSpaceOnUse"
       gradientTransform="matrix(-1.969053,2.020686,1.91882,1.869953,1111.307,-1778.264)"
       cx="633.46838"
       cy="540.82489"
       fx="633.46838"
       fy="540.82489"
       r="77.994896" />
    <radialGradient
       inkscape:collect="always"
       xlink:href="#linearGradient3592"
       id="radialGradient3914"
       cx="944.48633"
       cy="614.65271"
       fx="944.48633"
       fy="614.65271"
       r="112.98734"
       gradientTransform="matrix(1,0,0,1.029126,0,-17.90247)"
       gradientUnits="userSpaceOnUse" />
    <radialGradient
       inkscape:collect="always"
       xlink:href="#linearGradient3592"
       id="radialGradient3918"
       gradientUnits="userSpaceOnUse"
       gradientTransform="matrix(1,0,0,1.029126,0,-17.90247)"
       cx="944.48633"
       cy="614.65271"
       fx="944.48633"
       fy="614.65271"
       r="112.98734" />
    <radialGradient
       inkscape:collect="always"
       xlink:href="#linearGradient3592"
       id="radialGradient3922"
       gradientUnits="userSpaceOnUse"
       gradientTransform="matrix(1,0,0,1.029126,0,-17.90247)"
       cx="944.48633"
       cy="614.65271"
       fx="944.48633"
       fy="614.65271"
       r="112.98734" />
    <radialGradient
       inkscape:collect="always"
       xlink:href="#linearGradient3592"
       id="radialGradient4799"
       gradientUnits="userSpaceOnUse"
       gradientTransform="matrix(1,0,0,1.029126,0,-17.90247)"
       cx="944.48633"
       cy="614.65271"
       fx="944.48633"
       fy="614.65271"
       r="112.98734" />
    <radialGradient
       inkscape:collect="always"
       xlink:href="#linearGradient2227"
       id="horn-right-gradient"
       gradientUnits="userSpaceOnUse"
       gradientTransform="matrix(-0.839705,0.308486,0.273252,0.743799,1271.181,-75.53478)"
       cx="610.64008"
       cy="417.6333"
       fx="610.64008"
       fy="417.6333"
       r="77.994896" />
    <linearGradient
       inkscape:collect="always"
       xlink:href="#linearGradient2988"
       id="g-shape-gradient"
       gradientUnits="userSpaceOnUse"
       gradientTransform="matrix(0.496366,0,0,0.496366,324.6816,25.6746)"
       x1="894.97668"
       y1="1314.3574"
       x2="1341.6259"
       y2="1090.0717" />
    <radialGradient
       inkscape:collect="always"
       xlink:href="#linearGradient2235"
       id="horn-left-gradient"
       gradientUnits="userSpaceOnUse"
       gradientTransform="matrix(-0.381257,0.838973,-0.633501,-0.287883,1477.856,86.673)"
       cx="610.34467"
       cy="354.8587"
       fx="610.34467"
       fy="354.8587"
       r="77.994896" />
    <linearGradient
       inkscape:collect="always"
       xlink:href="#linearGradient3004"
       id="g-bevel-exterior-gradient"
       gradientUnits="userSpaceOnUse"
       gradientTransform="matrix(0.496366,0,0,0.496366,679.9378,278.8213)"
       x1="161.46233"
       y1="560.31262"
       x2="280.9122"
       y2="560.31262" />
    <radialGradient
       inkscape:collect="always"
       xlink:href="#linearGradient3004"
       id="g-top-gradient"
       gradientUnits="userSpaceOnUse"
       gradientTransform="matrix(-0.01083499,-0.50673,0.952046,-0.02035857,303.1806,723.9978)"
       cx="298.04648"
       cy="512.46417"
       fx="298.04648"
       fy="512.46417"
       r="218.02184" />
    <linearGradient
       inkscape:collect="always"
       xlink:href="#linearGradient3004"
       id="g-bevel-interior-gradient"
       gradientUnits="userSpaceOnUse"
       gradientTransform="matrix(0.496366,0,0,0.496366,874.0821,422.4129)"
       x1="34.285702"
       y1="185.21933"
       x2="-32.857155"
       y2="205.21933" />
    <linearGradient
       inkscape:collect="always"
       xlink:href="#linearGradient3237"
       id="g-bevel-exterior-additional-hilight-gradient"
       gradientUnits="userSpaceOnUse"
       gradientTransform="matrix(0.496366,0,0,0.496366,679.9378,278.8213)"
       spreadMethod="reflect"
       x1="289.47043"
       y1="563.56818"
       x2="284.92477"
       y2="528.94922" />
    <radialGradient
       inkscape:collect="always"
       xlink:href="#linearGradient3560"
       id="tail-hilight1-gradient"
       gradientUnits="userSpaceOnUse"
       gradientTransform="matrix(0.302815,7.225699e-6,1.493645e-7,0.195507,713.0548,564.594)"
       cx="79.081673"
       cy="538.5592"
       fx="79.081673"
       fy="538.5592"
       r="84.852814" />
    <radialGradient
       inkscape:collect="always"
       xlink:href="#linearGradient4305"
       id="tail-hilight2-gradient"
       gradientUnits="userSpaceOnUse"
       gradientTransform="matrix(-0.01727589,0.355123,-0.491438,-0.02390709,1175.951,546.1846)"
       cx="376.7095"
       cy="579.80902"
       fx="376.7095"
       fy="579.80902"
       r="16.896198" />
    <radialGradient
       inkscape:collect="always"
       xlink:href="#linearGradient4261"
       id="tail-hilight3-gradient"
       gradientUnits="userSpaceOnUse"
       gradientTransform="matrix(-0.00330599,-0.186604,0.219659,-0.00389173,621.8583,666.8861)"
       cx="-34.956852"
       cy="581.38745"
       fx="-34.956852"
       fy="581.38745"
       r="268.79495" />
    <radialGradient
       inkscape:collect="always"
       xlink:href="#linearGradient4305"
       id="tail-hilight4-gradient"
       gradientUnits="userSpaceOnUse"
       gradientTransform="matrix(-0.00151295,0.166488,-0.201994,-0.0018356,1106.658,686.8393)"
       cx="85.568413"
       cy="926.69019"
       fx="85.568413"
       fy="926.69019"
       r="228.24213" />
    <radialGradient
       inkscape:collect="always"
       xlink:href="#linearGradient4261"
       id="tail-hilight5-gradient"
       gradientUnits="userSpaceOnUse"
       gradientTransform="matrix(0.08606788,-0.174437,0.173706,0.08570801,786.8213,716.2729)"
       cx="475.34457"
       cy="553.36267"
       fx="475.34457"
       fy="553.36267"
       r="228.24213" />
    <radialGradient
       inkscape:collect="always"
       xlink:href="#linearGradient3592"
       id="radialGradient3249"
       gradientUnits="userSpaceOnUse"
       gradientTransform="matrix(1,0,0,1.029126,0,-17.90247)"
       cx="944.48633"
       cy="614.65271"
       fx="948.33136"
       fy="690.66071"
       r="112.98734" />
    <radialGradient
       inkscape:collect="always"
       xlink:href="#linearGradient3592"
       id="radialGradient3251"
       gradientUnits="userSpaceOnUse"
       gradientTransform="matrix(1,0,0,1.029126,0,-17.90247)"
       cx="944.48633"
       cy="614.65271"
       fx="941.92822"
       fy="675.18591"
       r="112.98734" />
  </defs>
  <sodipodi:namedview
     id="base"
     pagecolor="#ffffff"
     bordercolor="#666666"
     borderopacity="1.0"
     inkscape:pageopacity="0.0"
     inkscape:pageshadow="2"
     inkscape:zoom="0.60314207"
     inkscape:cx="484.26551"
     inkscape:cy="272.87322"
     inkscape:document-units="px"
     inkscape:current-layer="layer1"
     inkscape:window-width="1278"
     inkscape:window-height="949"
     inkscape:window-x="0"
     inkscape:window-y="25"
     showguides="true"
     inkscape:guide-bbox="true"
     inkscape:guide-points="true"
     showgrid="false"
     inkscape:window-maximized="0"
     borderlayer="true" />
  <metadata
     id="metadata7">
    <rdf:RDF>
      <cc:Work
         rdf:about="">
        <dc:format>image/svg+xml</dc:format>
        <dc:type
           rdf:resource="http://purl.org/dc/dcmitype/StillImage" />
        <dc:creator>
          <cc:Agent>
            <dc:title>Marius Morawski</dc:title>
          </cc:Agent>
        </dc:creator>
        <dc:subject>
          <rdf:Bag>
            <rdf:li>gentoo</rdf:li>
            <rdf:li>freebsd</rdf:li>
            <rdf:li>wallpaper</rdf:li>
          </rdf:Bag>
        </dc:subject>
        <cc:license
           rdf:resource="http://creativecommons.org/licenses/GPL/2.0/" />
        <dc:title />
      </cc:Work>
      <cc:License
         rdf:about="http://creativecommons.org/licenses/GPL/2.0/">
        <cc:permits
           rdf:resource="http://web.resource.org/cc/Reproduction" />
        <cc:permits
           rdf:resource="http://web.resource.org/cc/Distribution" />
        <cc:requires
           rdf:resource="http://web.resource.org/cc/Notice" />
        <cc:permits
           rdf:resource="http://web.resource.org/cc/DerivativeWorks" />
        <cc:requires
           rdf:resource="http://web.resource.org/cc/ShareAlike" />
        <cc:requires
           rdf:resource="http://web.resource.org/cc/SourceCode" />
      </cc:License>
    </rdf:RDF>
  </metadata>
  <g
     inkscape:label="Ebene 1"
     inkscape:groupmode="layer"
     id="layer1"
     style="display:inline"
     transform="translate(0,-86.09448)">
    <rect
       style="fill:#0a183e;fill-opacity:1;stroke:none"
       id="rect4873"
       width="1072.4222"
       height="753.7948"
       x="-10.897395"
       y="-5.1305523" />
    <path
       sodipodi:type="arc"
       style="opacity:0.70099996;fill:url(#radialGradient5058);fill-opacity:1;stroke:none"
       id="logo-spotlight"
       sodipodi:cx="932"
       sodipodi:cy="597.09448"
       sodipodi:rx="281"
       sodipodi:ry="177"
       d="m 1213,597.09448 a 281,177 0 1 1 -562,0 281,177 0 1 1 562,0 z"
       transform="matrix(1.713436,0,0,1.713436,-879.5375,-559.7693)"
       inkscape:label="#path4177" />
    <g
       style="opacity:0.04885996"
       id="gbsd-logo-waves"
       transform="matrix(1.344023,0,0,1.344023,-1345.909,-569.4278)"
       inkscape:label="#gbsd-waves">
      <path
         id="waves1"
         d="m 1502.1562,598.53125 c -0.1782,0.002 -0.3529,0.0287 -0.5312,0.0312 21.0443,0.38519 41.4291,4.97796 59.5625,11.46875 50.7535,19.16583 87.7322,49.37629 116.6563,81.28125 21.1549,19.34422 28.881,45.02502 15.6874,67.3125 -27.993,35.6006 -68.3855,67.08749 -115.2187,93.6875 4.579,0.1647 8.9669,0.51088 13.4687,1 35.4346,2.5366 62.8864,23.45836 63.25,45.40625 1.3835,16.3086 -15.3395,31.42211 -37.5937,39.125 -16.2658,5.25165 -34.6295,8.15555 -53.0625,8.4375 20.094,0.20664 40.3275,-2.7115 58.0625,-8.4375 22.2543,-7.70289 38.9771,-22.8164 37.5937,-39.125 -0.3636,-21.94789 -27.8154,-42.86965 -63.25,-45.40625 -4.5017,-0.48912 -8.8897,-0.8353 -13.4687,-1 46.8333,-26.60001 87.2258,-58.0869 115.2187,-93.6875 13.1936,-22.28748 5.4675,-47.96828 -15.6874,-67.3125 -28.9241,-31.90496 -65.9028,-62.11542 -116.6563,-81.28125 -19.4196,-6.9512 -41.3989,-11.74185 -64.0313,-11.5 z"
         style="opacity:0.05799997;fill:#000000;fill-opacity:1;fill-rule:evenodd;stroke:none"
         inkscape:connector-curvature="0" />
      <path
         id="path11935"
         d="m 1497.6875,604.625 c -42.293,2.26639 -78.972,19.57577 -102,41.09375 -20.0076,18.53043 -37.966,40.05369 -34.1875,63.15625 3.4216,17.63809 24.2684,31.06055 45.25,41.78125 0.9269,1.11282 4.7367,1.84302 5.2812,2.84375 0.01,0.0159 0.025,0.0465 0.031,0.0625 0,0.005 0,0.0259 0,0.0312 0.01,0.0215 0.028,0.072 0.031,0.0937 5e-4,0.005 -4e-4,0.0258 0,0.0312 10e-5,0.005 0,0.0257 0,0.0312 -3e-4,0.006 4e-4,0.0257 0,0.0312 -7e-4,0.006 8e-4,0.0257 0,0.0312 0,0.006 -0.03,0.0256 -0.031,0.0312 0,0.006 0,0.0256 0,0.0312 -0.01,0.0227 -0.02,0.0707 -0.031,0.0937 0,0.006 -0.028,0.0254 -0.031,0.0312 -0.1264,0.20404 -0.3888,0.4222 -0.8438,0.65625 -20.6812,16.08781 -36.6242,34.406 -48.1562,53.6875 -30.8552,5.235 -55.8329,24.87085 -51.125,45.34375 4.7474,21.85259 39.453,37.93352 73.9375,37.3125 -32.7679,-0.92203 -64.4197,-16.51703 -68.9375,-37.3125 -4.7079,-20.4729 20.2699,-40.10875 51.125,-45.34375 11.532,-19.2815 27.4751,-37.59969 48.1562,-53.6875 0.455,-0.23405 0.7174,-0.45221 0.8438,-0.65625 0,-0.006 0.028,-0.0255 0.031,-0.0312 0.012,-0.0231 0.023,-0.071 0.031,-0.0937 0,-0.006 0,-0.0256 0,-0.0312 0,-0.006 0.03,-0.0256 0.031,-0.0312 8e-4,-0.006 -7e-4,-0.0257 0,-0.0312 4e-4,-0.006 -3e-4,-0.0257 0,-0.0312 0,-0.006 10e-5,-0.0258 0,-0.0312 -4e-4,-0.005 5e-4,-0.0258 0,-0.0312 0,-0.0218 -0.025,-0.0722 -0.031,-0.0937 0,-0.005 0,-0.0259 0,-0.0312 -0.01,-0.016 -0.023,-0.0466 -0.031,-0.0625 -0.5445,-1.00073 -4.3542,-1.73093 -5.2812,-2.84375 -20.9816,-10.7207 -41.8283,-24.14316 -45.25,-41.78125 -3.7785,-23.10256 14.18,-44.62582 34.1875,-63.15625 22.808,-21.31243 58.9991,-38.5033 100.7813,-41.03125 -1.0956,-0.0388 -2.1782,-0.0453 -3.2813,-0.0625 -0.166,0.008 -0.3341,-0.009 -0.5,0 z"
         style="opacity:0.05799997;fill:#000000;fill-opacity:1;fill-rule:evenodd;stroke:none"
         inkscape:connector-curvature="0" />
      <path
         id="path11933"
         d="m 1504,610.84375 c -0.1926,0.002 -0.3698,0.028 -0.5625,0.0312 -0.1348,0.007 -0.2715,0.024 -0.4063,0.0312 4.6052,0.13498 9.1916,0.54703 13.7188,1.09375 40.0793,6.77805 72.5779,24.57645 98.7812,44.03125 21.982,18.26486 44.5651,36.79909 58.0626,58.1875 11.947,16.2716 6.5872,35.65438 -6.8438,50.90625 -39.0475,39.2716 -87.7885,75.76652 -150,101.375 -19.1149,8.97475 -42.7902,15.43905 -66.8438,15.875 25.7426,0.44192 51.4121,-6.28198 71.8438,-15.875 62.2115,-25.60848 110.9525,-62.1034 150,-101.375 13.4311,-15.25187 18.7909,-34.63465 6.8438,-50.90625 -13.4975,-21.38841 -36.0807,-39.92264 -58.0626,-58.1875 -26.2033,-19.4548 -58.7019,-37.2532 -98.7812,-44.03125 -5.8476,-0.70618 -11.7795,-1.22077 -17.75,-1.15625 z"
         style="opacity:0.12999998;fill:#000000;fill-opacity:1;fill-rule:evenodd;stroke:none"
         inkscape:connector-curvature="0" />
      <path
         id="path11931"
         d="m 1497.6562,617.125 c -0.1377,0.002 -0.2684,0.029 -0.4062,0.0312 -38.0102,2.57444 -69.4467,19.74085 -88.8438,39.46875 -16.2417,15.54414 -31.1736,33.78739 -26.6874,52.96875 5.6666,15.81867 27.762,26.0114 46.5937,35.875 3.6463,2.05598 7.436,4.0105 11.1875,6 -24.9659,20.6197 -50.2322,42.2741 -60.125,67.75 -23.3228,1.2571 -46.7265,12.67805 -48.0312,28.03125 -1.3262,15.82828 21.2351,29.29575 45.6874,30.46875 3.9276,0.44713 7.8684,0.5798 11.8126,0.5 -2.2838,-0.0732 -4.5398,-0.24126 -6.8126,-0.5 -24.4522,-1.173 -47.0135,-14.64047 -45.6874,-30.46875 1.3048,-15.3532 24.7085,-26.77415 48.0312,-28.03125 9.8928,-25.4759 35.1592,-47.1303 60.125,-67.75 -3.7515,-1.9895 -7.5413,-3.94402 -11.1875,-6 -18.8317,-9.8636 -40.927,-20.05633 -46.5937,-35.875 -4.4862,-19.18136 10.4457,-37.42461 26.6874,-52.96875 19.387,-19.71767 50.7977,-36.88052 88.7813,-39.46875 -1.5119,-0.0395 -3.0157,-0.0507 -4.5313,-0.0312 z"
         style="opacity:0.12999998;fill:#000000;fill-opacity:1;fill-rule:evenodd;stroke:none"
         inkscape:connector-curvature="0" />
      <path
         id="path11929"
         d="m 1503.0625,623.375 c -0.2239,0.002 -0.4322,0.0273 -0.6563,0.0312 -0.084,0.006 -0.1661,0.0249 -0.25,0.0312 7.9371,0.23665 15.7792,1.38155 23.2188,3.09375 43.6971,12.62901 76.4915,36.04405 102.375,60.96875 13.7815,14.99966 32.4065,29.87747 33,47.875 -2.0309,15.6113 -15.905,29.36717 -29.8125,41.96875 -38.523,31.9491 -81.2801,63.4245 -137.5,83.4375 -12.5187,5.24103 -27.8303,8.72919 -43.0937,9.125 16.8932,0.3322 34.2023,-3.30929 48.0937,-9.125 56.22,-20.013 98.977,-51.4884 137.5,-83.4375 13.9075,-12.60158 27.7816,-26.35745 29.8125,-41.96875 -0.5934,-17.99753 -19.2185,-32.87534 -33,-47.875 -25.8834,-24.9247 -58.6779,-48.33974 -102.375,-60.96875 -8.7147,-2.00566 -17.9826,-3.2576 -27.3125,-3.15625 z"
         style="opacity:0.29200003;fill:#000000;fill-opacity:1;fill-rule:evenodd;stroke:none"
         inkscape:connector-curvature="0" />
      <path
         id="path11927"
         d="m 1496.9375,629.65625 c -0.084,0.002 -0.1655,0.029 -0.25,0.0312 -32.8705,3.08303 -57.5579,19.36511 -74.0937,36.34375 -12.1045,12.39625 -24.3459,26.40672 -21.4063,41.46875 7.0194,14.27482 29.5659,21.7326 45.6563,31.5 6.7011,3.50959 13.4357,6.9159 19.625,10.75 -9.5948,8.58097 -20.6198,16.452 -29.6876,25.25 -18.787,16.7582 -36.8429,35.11405 -40.4062,55.90625 0.082,0.15947 0.1336,0.31513 0.1562,0.4375 0,0.0141 0,0.0488 0,0.0625 0,0.0134 -3e-4,0.0495 0,0.0625 1e-4,0.006 2e-4,0.025 0,0.0312 -7e-4,0.0123 0,0.0507 0,0.0625 -9e-4,0.006 0,0.0256 0,0.0312 0,0.0167 -0.026,0.0467 -0.031,0.0625 0,0.005 0,0.0262 0,0.0312 0,0.005 -0.029,0.0264 -0.031,0.0312 0,1.9e-4 0,0.0311 0,0.0312 1.9109,0.17587 4.1903,0.6284 4.875,0.125 0,-0.004 0.027,-0.0275 0.031,-0.0312 0.01,-0.008 0.024,-0.0232 0.031,-0.0312 0,-0.004 0.028,-0.027 0.031,-0.0312 0,-0.004 0.028,-0.0267 0.031,-0.0312 0,-0.005 0,-0.0265 0,-0.0312 0,-0.005 0.029,-0.0263 0.031,-0.0312 0,-0.005 0,-0.0261 0,-0.0312 0.01,-0.0158 0.027,-0.0458 0.031,-0.0625 0,-0.006 -9e-4,-0.0254 0,-0.0312 0,-0.0118 -7e-4,-0.0502 0,-0.0625 2e-4,-0.006 10e-5,-0.0249 0,-0.0312 -3e-4,-0.013 0,-0.0491 0,-0.0625 0,-0.0137 0,-0.0484 0,-0.0625 -0.023,-0.12237 -0.074,-0.27803 -0.1562,-0.4375 3.5633,-20.7922 21.6192,-39.14805 40.4062,-55.90625 9.0678,-8.798 20.0929,-16.66903 29.6876,-25.25 -6.1892,-3.8341 -12.9239,-7.24041 -19.625,-10.75 -16.0903,-9.7674 -38.6368,-17.22518 -45.6563,-31.5 -2.9396,-15.06203 9.3018,-29.0725 21.4063,-41.46875 16.5013,-16.94314 41.1074,-33.21211 73.875,-36.34375 -1.5085,-0.0437 -3.0111,-0.0663 -4.5313,-0.0312 z"
         style="opacity:0.29200003;fill:#000000;fill-opacity:1;fill-rule:evenodd;stroke:none"
         inkscape:connector-curvature="0" />
      <path
         id="path11925"
         d="m 1502.8438,635.90625 c -0.2819,0.002 -0.5616,0.026 -0.8438,0.0312 -0.1158,0.0123 -0.2282,0.0186 -0.3438,0.0312 10.3983,0.40735 20.4457,2.78411 29.4376,6.03125 38.0624,15.55935 67.5282,38.21399 90.25,62.6875 8.6568,10.8086 21.9129,21.82794 19.3124,34.65625 -8.2634,15.754 -23.9678,29.55073 -39.9062,42.65625 -27.4898,21.0987 -56.9102,41.57128 -91.9688,57.875 -16.2517,6.87 -32.8343,14.30313 -52.25,17 -2.1616,0.33593 -4.3689,0.53382 -6.5624,0.625 3.8447,0.15413 7.7542,-0.0332 11.5624,-0.625 19.4157,-2.69687 35.9982,-10.13 52.25,-17 35.0587,-16.30372 64.479,-36.7763 91.9688,-57.875 15.9384,-13.10552 31.6429,-26.90225 39.9062,-42.65625 2.6005,-12.82831 -10.6557,-23.84765 -19.3124,-34.65625 -22.7217,-24.47351 -52.1876,-47.12815 -90.25,-62.6875 -10.085,-3.64189 -21.5049,-6.18617 -33.25,-6.09375 z"
         style="opacity:0.656;fill:#000000;fill-opacity:1;fill-rule:evenodd;stroke:none"
         inkscape:connector-curvature="0" />
      <path
         id="path11923"
         d="m 1497.125,642.15625 c -0.4505,0.01 -0.8921,0.0434 -1.3438,0.0625 -24.2089,3.78896 -45.8447,17.94806 -61.7812,36.28125 -6.1126,6.99146 -11.9972,14.90775 -14.1875,24.03125 1.3167,6.33041 8.1109,8.89555 12.9375,12.09375 17.4043,10.37309 35.7537,19.0308 53.2812,29.1875 5.3425,3.39609 3.2622,8.1567 -6.1562,15.875 -22.9048,18.56268 -46.6852,37.4321 -61.875,63.25 -3.4335,8.19349 0.2445,18.67 8.375,22.4375 6.9246,4.72697 15.0401,6.23104 23.2188,5.875 -6.4487,-0.37625 -12.7153,-2.11808 -18.2188,-5.875 -8.1305,-3.7675 -11.8085,-14.24401 -8.375,-22.4375 15.1898,-25.8179 38.9702,-44.68732 61.875,-63.25 9.4184,-7.7183 11.4987,-12.47891 6.1562,-15.875 -17.5274,-10.1567 -35.8769,-18.81441 -53.2812,-29.1875 -4.8266,-3.1982 -11.6209,-5.76334 -12.9375,-12.09375 2.1903,-9.1235 8.075,-17.03979 14.1875,-24.03125 15.9365,-18.33319 37.5723,-32.49229 61.7812,-36.28125 0.054,-0.002 0.1021,-0.0291 0.1563,-0.0312 -1.267,-0.046 -2.5361,-0.0584 -3.8125,-0.0312 z"
         style="opacity:0.656;fill:#000000;fill-opacity:1;fill-rule:evenodd;stroke:none"
         inkscape:connector-curvature="0" />
      <path
         id="path11919"
         d="m 1385.2188,831.71875 c -13.8512,0.30317 -29.0221,4.36389 -33.0313,13.1875 -3.3361,7.45018 4.1159,15.46345 15.5313,18.03125 7.0212,2.02477 14.9114,2.8867 22.7187,2.65625 -6.1361,-0.19008 -12.1938,-1.06299 -17.7187,-2.65625 -11.4154,-2.5678 -18.8673,-10.58107 -15.5313,-18.03125 3.9056,-8.59542 18.3859,-12.67116 31.9375,-13.15625 -1.2789,-0.0379 -2.5928,-0.06 -3.9062,-0.0312 z"
         style="opacity:0.29200003;fill:#000000;fill-opacity:1;fill-rule:evenodd;stroke:none"
         inkscape:connector-curvature="0" />
      <path
         id="path11917"
         d="m 1393.75,838.03125 c -0.639,0.005 -1.2997,0.0449 -1.9375,0.0625 7.279,0.22013 14.3469,1.45157 19.5937,4.75 -0.7916,-0.98696 -1.5161,-1.98988 -2.125,-3.03125 -4.7564,-1.34028 -10.1416,-1.81923 -15.5312,-1.78125 z"
         style="opacity:0.656;fill:#000000;fill-opacity:1;fill-rule:evenodd;stroke:none"
         inkscape:connector-curvature="0" />
      <path
         id="path11915"
         d="m 1386.25,844.34375 c -7.8557,0.2258 -14.115,1.8119 -15.0625,3.78125 -0.029,0.0631 -0.045,0.15489 -0.062,0.21875 -0.018,0.0731 -0.027,0.17595 -0.031,0.25 -3e-4,0.009 0,0.022 0,0.0312 0,0.065 -0.011,0.15446 0,0.21875 0.013,0.0642 0.038,0.15534 0.062,0.21875 0.022,0.0543 0.064,0.13386 0.094,0.1875 0.031,0.0535 0.086,0.13462 0.125,0.1875 1.5176,1.98759 8.4899,3.5 16.8438,3.5 0.8442,0 1.6883,-0.002 2.5,-0.0312 -7.2133,-0.26511 -12.9805,-1.6832 -14.3438,-3.46875 -0.039,-0.0529 -0.094,-0.13396 -0.125,-0.1875 -0.03,-0.0536 -0.072,-0.13324 -0.094,-0.1875 -0.024,-0.0634 -0.049,-0.15457 -0.062,-0.21875 -0.011,-0.0643 0,-0.15376 0,-0.21875 0,-0.009 -3e-4,-0.022 0,-0.0312 0,-0.0741 0.013,-0.17689 0.031,-0.25 0.018,-0.0639 0.034,-0.15568 0.062,-0.21875 0.9129,-1.89741 6.768,-3.43964 14.2187,-3.75 -0.7147,-0.0228 -1.4482,-0.0312 -2.1874,-0.0312 -0.6654,0 -1.3231,-0.0186 -1.9688,0 z"
         style="opacity:0.656;fill:#000000;fill-opacity:1;fill-rule:evenodd;stroke:none"
         inkscape:connector-curvature="0" />
      <path
         id="path11913"
         d="m 1414.7812,846.5625 c -9e-4,0.002 8e-4,0.0286 0,0.0312 -3e-4,0.003 2e-4,0.0277 0,0.0312 0.016,0.27846 0.4647,1.20096 0.4688,1.75 -4e-4,0.0234 0,0.0718 0,0.0937 0,0.0143 -0.029,0.049 -0.031,0.0625 0,0.0131 0,0.0502 0,0.0625 0,0.006 -0.029,0.0255 -0.031,0.0312 0,0.006 0,0.026 0,0.0312 -0.7358,6.8536 -12.6272,10.25929 -22.3437,10.5 -0.6124,0.025 -1.2436,0.0468 -1.875,0.0625 2.3581,0.0563 4.6879,0.0268 6.875,-0.0625 8.8702,-0.21975 19.5526,-3.07407 21.9062,-8.78125 -1.5666,-0.99489 -2.9859,-2.07394 -4.25,-3.25 -0.3119,-0.33266 -0.5241,-0.51163 -0.625,-0.5625 0,-10e-4 -0.028,9.3e-4 -0.031,0 0,1.1e-4 -0.029,-4.5e-4 -0.031,0 0,0.002 -0.03,-0.002 -0.031,0 z"
         style="opacity:0.656;fill:#000000;fill-opacity:1;fill-rule:evenodd;stroke:none"
         inkscape:connector-curvature="0" />
      <path
         id="path11909"
         d="m 1424.125,858.40625 c -0.7626,0.0502 -1.4642,0.52018 -2.1562,1.03125 8.5141,3.22383 18.293,4.50125 28.0937,4.25 -8.5513,-0.24661 -16.9258,-1.73054 -24.2813,-4.71875 -0.5865,-0.43262 -1.1397,-0.59652 -1.6562,-0.5625 z"
         style="opacity:0.43700005;fill:#000000;fill-opacity:1;fill-rule:evenodd;stroke:none"
         inkscape:connector-curvature="0" />
      <path
         id="path11905"
         d="m 1562.9375,864.6875 c 2.0208,0.004 4.0429,0.0113 6.0625,0.0312 -2.0207,-0.005 -4.0445,-0.0235 -6.0625,-0.0312 z"
         style="fill:#0d00ff;fill-opacity:1;fill-rule:evenodd;stroke:none"
         inkscape:connector-curvature="0" />
      <path
         id="path11903"
         d="m 1569.0312,864.71875 c 6.0479,0.0603 12.082,0.2438 18.0313,0.84375 18.9097,1.1675 35.6249,9.14768 43.0625,19.96875 8.2721,11.1848 6.1372,25.49778 -8.0312,34.5 -15.1375,9.79495 -36.8649,13.13517 -58.25,13.375 22.9526,0.23705 46.9323,-2.81639 63.25,-13.375 14.1684,-9.00222 16.3033,-23.3152 8.0312,-34.5 -7.4375,-10.82107 -24.1528,-18.80125 -43.0625,-19.96875 -7.5854,-0.76493 -15.3148,-0.82315 -23.0313,-0.84375 z"
         style="opacity:0.12999998;fill:#000000;fill-opacity:1;fill-rule:evenodd;stroke:none"
         inkscape:connector-curvature="0" />
      <path
         id="path11901"
         d="m 1419.9688,865.9375 c -3.2383,1.4427 -6.7036,2.63092 -10.4063,3.53125 -6.1045,1.43859 -12.6675,2.26873 -19.2813,2.4375 8.2775,0.19782 16.6416,-0.63713 24.2813,-2.4375 2.9267,-0.71163 5.7086,-1.59945 8.3437,-2.65625 -0.9947,-0.2747 -1.9609,-0.56119 -2.9374,-0.875 z"
         style="opacity:0.29200003;fill:#000000;fill-opacity:1;fill-rule:evenodd;stroke:none"
         inkscape:connector-curvature="0" />
      <path
         id="path11899"
         d="m 1551.8125,870.9375 c -22.7183,0.53257 -46.406,10.70521 -48.9063,25.5625 -2.1819,16.6843 23.2964,31.0047 49.25,30.1875 4.343,0.27258 8.8376,0.38703 13.3438,0.34375 -2.8128,-0.0516 -5.6104,-0.1722 -8.3438,-0.34375 -25.9535,0.8172 -51.4319,-13.5032 -49.25,-30.1875 2.4417,-14.50907 25.063,-24.54171 47.2813,-25.5 -1.1333,-0.009 -2.2489,-0.0404 -3.375,-0.0625 z"
         style="opacity:0.12999998;fill:#000000;fill-opacity:1;fill-rule:evenodd;stroke:none"
         inkscape:connector-curvature="0" />
      <path
         id="path11897"
         d="m 1426.9375,873.3125 c -0.7838,0.19265 -1.5797,0.37472 -2.375,0.5625 8.2292,1.73053 16.7582,2.44361 25.2813,2.28125 -7.7585,-0.16241 -15.4696,-1.06199 -22.9063,-2.84375 z"
         style="opacity:0.12999998;fill:#000000;fill-opacity:1;fill-rule:evenodd;stroke:none"
         inkscape:connector-curvature="0" />
      <path
         id="path11895"
         d="m 1566.7188,877.21875 c 3.7351,0.0429 7.4667,0.17791 11.1562,0.5 13.3241,-0.4384 26.2711,4.10368 32.6875,11.375 7.196,7.2914 6.0074,17.86533 -4.9687,23.46875 -10.5252,5.94914 -24.2544,7.85084 -38.125,8.09375 15.534,0.12855 31.3333,-1.42872 43.125,-8.09375 10.9762,-5.60342 12.1647,-16.17735 4.9687,-23.46875 -6.4163,-7.27132 -19.3634,-11.8134 -32.6875,-11.375 -5.3292,-0.46524 -10.7576,-0.50375 -16.1562,-0.5 z"
         style="opacity:0.29200003;fill:#000000;fill-opacity:1;fill-rule:evenodd;stroke:none"
         inkscape:connector-curvature="0" />
      <path
         id="path11893"
         d="m 1424.5312,880.5 c -11.4185,0.63899 -22.7838,3.69287 -34.5312,4.09375 12.4373,0.4704 24.3813,-2.74966 36.3438,-3.84375 -0.5022,-0.082 -0.9989,-0.16157 -1.5,-0.25 -0.1039,0.005 -0.2087,-0.006 -0.3126,0 z"
         style="opacity:0.12999998;fill:#000000;fill-opacity:1;fill-rule:evenodd;stroke:none"
         inkscape:connector-curvature="0" />
      <path
         id="path11891"
         d="m 1556.1562,883.5 c -13.565,0.11131 -29.3823,3.8464 -33.0624,12.71875 -3.0061,9.89432 13.1526,18.2483 28.125,17.5625 5.2037,0.36857 10.7556,0.62587 16.2812,0.5625 -3.8406,-0.077 -7.6467,-0.30507 -11.2812,-0.5625 -14.9723,0.6858 -31.131,-7.66818 -28.125,-17.5625 3.5292,-8.50873 18.2108,-12.29502 31.375,-12.6875 -0.445,0.002 -0.8682,-0.002 -1.3126,0 -0.6544,-0.0118 -1.3328,-0.0367 -2,-0.0312 z"
         style="opacity:0.29200003;fill:#000000;fill-opacity:1;fill-rule:evenodd;stroke:none"
         inkscape:connector-curvature="0" />
      <path
         id="path11889"
         d="m 1560.9375,883.5 c -0.2593,10e-4 -0.5221,0.0299 -0.7813,0.0312 0.3361,-0.007 0.6665,-0.0285 1,-0.0312 -0.071,3.5e-4 -0.1477,-3.6e-4 -0.2187,0 z"
         style="fill:#0d00ff;fill-opacity:1;fill-rule:evenodd;stroke:none"
         inkscape:connector-curvature="0" />
      <path
         id="path11885"
         d="m 1493.0312,883.6875 c -1.9469,0.46755 -3.9375,0.90086 -5.9374,1.3125 -8.9622,13.64389 -3.2537,30.32496 13.5624,40.625 14.7733,9.87317 36.598,14.5623 58,14.21875 -19.7624,-0.40204 -39.3725,-5.11137 -53,-14.21875 -17.3585,-10.6323 -22.8553,-28.06728 -12.625,-41.9375 z"
         style="opacity:0.05799997;fill:#000000;fill-opacity:1;fill-rule:evenodd;stroke:none"
         inkscape:connector-curvature="0" />
      <path
         id="path11883"
         d="m 1429.1875,887.15625 c -0.4336,0.008 -0.8479,0.0458 -1.2813,0.0625 2.5445,0.11583 5.0966,0.41812 7.6563,0.96875 4.692,0.39166 9.4495,0.54244 14.1875,0.46875 -3.0692,-0.0537 -6.1451,-0.21479 -9.1875,-0.46875 -3.8083,-0.81923 -7.5966,-1.10242 -11.375,-1.03125 z"
         style="opacity:0.05799997;fill:#000000;fill-opacity:1;fill-rule:evenodd;stroke:none"
         inkscape:connector-curvature="0" />
      <path
         id="path11881"
         d="m 1570.0625,889.75 c -0.5334,10e-4 -1.0605,0.026 -1.5937,0.0312 3.835,0.0715 7.677,0.30299 11.4374,0.78125 9.3693,-0.3435 19.0321,6.29648 13.9063,11.90625 -6.4493,4.107 -15.1513,5.37827 -24.125,5.5625 10.6928,0.18212 21.4773,-0.69237 29.125,-5.5625 5.1259,-5.60977 -4.5369,-12.24975 -13.9063,-11.90625 -4.8769,-0.62027 -9.8654,-0.82226 -14.8437,-0.8125 z"
         style="opacity:0.656;fill:#000000;fill-opacity:1;fill-rule:evenodd;stroke:none"
         inkscape:connector-curvature="0" />
      <path
         id="path11879"
         d="m 1473.0625,893.15625 c -5.1698,0.45539 -11.781,1.43657 -17.5937,1.59375 -1.1538,0.1043 -2.3186,0.17957 -3.4688,0.21875 2.8098,0.079 5.6398,0.037 8.4688,-0.21875 4.1114,-0.11117 8.5987,-0.64099 12.7187,-1.09375 0.034,-0.17502 0.088,-0.32497 0.125,-0.5 -0.081,0.007 -0.1679,-0.007 -0.25,0 z"
         style="opacity:0.05799997;fill:#000000;fill-opacity:1;fill-rule:evenodd;stroke:none"
         inkscape:connector-curvature="0" />
      <path
         id="path11877"
         d="m 1421.8125,893.59375 c -2.5831,0.0614 -5.1575,0.26446 -7.75,0.6875 -8.5495,1.83903 -17.5932,2.94798 -26.6563,3.125 10.7242,0.1885 21.5337,-0.94758 31.6563,-3.125 2.215,-0.36144 4.4172,-0.5668 6.625,-0.65625 -1.2903,-0.0314 -2.5835,-0.062 -3.875,-0.0312 z"
         style="opacity:0.05799997;fill:#000000;fill-opacity:1;fill-rule:evenodd;stroke:none"
         inkscape:connector-curvature="0" />
      <path
         id="path11875"
         d="m 1561.75,896 c -9.631,0.13115 -17.4023,1.14091 -18.9688,2.40625 -0.042,0.0355 -0.092,0.089 -0.125,0.125 -0.01,0.006 -0.026,0.0252 -0.031,0.0312 -0.01,0.0121 -0.023,0.0504 -0.031,0.0625 0,0.006 -0.028,0.0252 -0.031,0.0312 -0.013,0.0243 -0.023,0.0693 -0.031,0.0937 -0.01,0.0245 -0.029,0.0691 -0.031,0.0937 -3e-4,0.006 0,0.0251 0,0.0312 6e-4,0.0124 0,0.0502 0,0.0625 0,0.006 0.03,0.0251 0.031,0.0312 0,0.006 0,0.0251 0,0.0312 0,0.0122 0.026,0.0503 0.031,0.0625 0.035,0.0669 0.088,0.15318 0.1563,0.21875 0.039,0.0357 0.1074,0.0897 0.1562,0.125 1.897,1.32506 10.6201,2.34374 21.0625,2.34375 0.5545,0 1.1123,-0.0257 1.6563,-0.0312 -8.9088,-0.18792 -16.0292,-1.13228 -17.7188,-2.3125 -0.049,-0.0353 -0.1172,-0.0893 -0.1562,-0.125 -0.069,-0.0656 -0.1214,-0.15185 -0.1563,-0.21875 -0.01,-0.0122 -0.027,-0.0503 -0.031,-0.0625 0,-0.006 0,-0.0251 0,-0.0312 0,-0.006 -0.03,-0.0251 -0.031,-0.0312 0,-0.0123 6e-4,-0.0501 0,-0.0625 0,-0.006 -3e-4,-0.0251 0,-0.0312 0,-0.0247 0.024,-0.0692 0.031,-0.0937 0.01,-0.0245 0.019,-0.0694 0.031,-0.0937 0,-0.006 0.027,-0.0252 0.031,-0.0312 0.01,-0.0121 0.022,-0.0504 0.031,-0.0625 0,-0.006 0.026,-0.0252 0.031,-0.0312 0.033,-0.036 0.083,-0.0895 0.125,-0.125 1.5493,-1.25139 9.173,-2.22671 18.6563,-2.375 -0.8226,-0.0129 -1.6517,-0.0312 -2.5,-0.0312 -0.7393,0 -1.4674,-0.01 -2.1875,0 z"
         style="opacity:0.656;fill:#000000;fill-opacity:1;fill-rule:evenodd;stroke:none"
         inkscape:connector-curvature="0" />
      <path
         id="waves2"
         d="m 1502.1562,598.53125 c -0.1782,0.002 -0.3529,0.0287 -0.5312,0.0312 -45.9972,2.30472 -86.1492,21.28431 -110.5625,44.90625 -21.3247,19.50465 -38.7827,42.73813 -34.3437,67 3.9957,18.08288 24.3955,32.36345 45.8124,43.71875 0.017,0.0234 0.048,0.0703 0.063,0.0937 0.032,0.0549 0.073,0.13188 0.094,0.1875 0.01,0.0239 0.025,0.0697 0.031,0.0937 0.01,0.0321 0,0.0927 0,0.125 0,0.0243 0.031,0.0694 0.031,0.0937 -10e-5,0.0326 -0.028,0.0922 -0.031,0.125 0,0.0328 0.01,0.092 0,0.125 -0.436,1.81849 -5.4143,3.94378 -6.5626,5.90625 -14.8682,13.06493 -26.0461,27.6333 -36,42.3125 -31.0241,6.67158 -54.7534,26.19545 -53.8124,47.03125 0.989,21.04808 27.5143,39.0002 58.9687,44.75 8.7452,1.80742 17.9295,2.55399 27.0937,2.375 -7.492,-0.13169 -14.9399,-0.89647 -22.0937,-2.375 -31.4544,-5.7498 -57.9798,-23.70192 -58.9687,-44.75 -0.941,-20.8358 22.7883,-40.35967 53.8124,-47.03125 9.9539,-14.6792 21.1318,-29.24757 36,-42.3125 1.1483,-1.96247 6.1265,-4.08776 6.5626,-5.90625 0.01,-0.033 0,-0.0922 0,-0.125 0,-0.0328 0.031,-0.0924 0.031,-0.125 -5e-4,-0.0244 -0.029,-0.0695 -0.031,-0.0937 0,-0.0323 0.01,-0.0929 0,-0.125 -0.01,-0.024 -0.023,-0.0699 -0.031,-0.0937 -0.021,-0.0556 -0.062,-0.1326 -0.094,-0.1875 -0.014,-0.0235 -0.046,-0.0704 -0.063,-0.0937 -21.4169,-11.3553 -41.8168,-25.63587 -45.8124,-43.71875 -4.4389,-24.26187 13.0191,-47.49535 34.3437,-67 24.2844,-23.49721 64.12,-42.43881 109.8125,-44.90625 -1.2431,-0.0168 -2.4713,-0.0446 -3.7188,-0.0312 z"
         style="opacity:0.05799997;fill:#ffffff;fill-opacity:1;fill-rule:evenodd;stroke:none"
         inkscape:connector-curvature="0" />
      <path
         id="path11869"
         d="m 1507.6875,604.625 c -0.404,0.0217 -0.8158,0.0381 -1.2187,0.0625 36.6686,1.29731 69.0499,14.56702 95.2187,29.8125 31.913,19.69508 58.9967,42.71498 79.25,67.78125 17.0464,17.4779 18.4516,40.19927 5.25,58.78125 -33.0343,37.1202 -76.6726,70.75538 -129.75,97.34375 1.6562,-0.005 3.3423,-0.0199 5.0625,-0.0312 53.0492,-26.58349 96.6661,-60.2068 129.6875,-97.3125 13.2015,-18.58198 11.7964,-41.30335 -5.25,-58.78125 -20.2533,-25.06627 -47.337,-48.08617 -79.25,-67.78125 -26.9506,-15.70096 -60.4735,-29.28388 -98.5,-29.875 -0.166,0.008 -0.3341,-0.009 -0.5,0 z"
         style="opacity:0.05799997;fill:#ffffff;fill-opacity:1;fill-rule:evenodd;stroke:none"
         inkscape:connector-curvature="0" />
      <path
         id="path11867"
         d="m 1504,610.84375 c -0.1926,0.002 -0.3698,0.028 -0.5625,0.0312 -39.8042,2.02909 -73.8304,18.88981 -95.2813,39.15625 -18.3503,17.21121 -35.3308,37.01789 -31.7187,58.4375 3.3569,15.92032 23.1631,27.7248 41.9687,37.5 4.3231,2.12929 8.2535,4.5471 12.7813,6.5 -23.1962,18.37018 -44.1025,38.536 -54.8125,61.125 -27.7928,3.16691 -52.5392,19.36465 -49.9062,37.71875 2.7518,19.29381 32.9007,33.66915 63.0624,33.28125 1.7822,0.0812 3.5494,0.0566 5.3126,0 -0.1079,-0.004 -0.2046,0.005 -0.3126,0 -30.1617,0.3879 -60.3107,-13.98744 -63.0624,-33.28125 -2.6329,-18.3541 22.1133,-34.55184 49.9062,-37.71875 10.71,-22.589 31.6162,-42.75482 54.8125,-61.125 -4.5278,-1.9529 -8.4582,-4.37071 -12.7813,-6.5 -18.8056,-9.7752 -38.6117,-21.57968 -41.9687,-37.5 -3.6121,-21.41961 13.3684,-41.22629 31.7187,-58.4375 21.3672,-20.18727 55.209,-36.98843 94.8126,-39.125 -1.3222,-0.038 -2.6418,-0.0768 -3.9688,-0.0625 z"
         style="opacity:0.12999998;fill:#ffffff;fill-opacity:1;fill-rule:evenodd;stroke:none"
         inkscape:connector-curvature="0" />
      <path
         id="path11865"
         d="m 1507.6562,617.125 c -0.1377,0.002 -0.2684,0.029 -0.4062,0.0312 7.1259,0.18998 14.2076,1.04135 21,2.34375 41.561,10.09685 74.0595,30.59258 99.8438,52.75 17.1977,16.91745 38.1258,33.17642 45.5937,53 6.214,16.3086 -5.7526,32.63637 -19.4375,46.0625 -39.3541,35.7235 -85.2868,69.8826 -145.0312,92.75 -15.6424,6.94087 -34.9529,11.71566 -54.3126,12.09375 21.0067,0.42919 42.3226,-4.55491 59.3126,-12.09375 59.7444,-22.8674 105.6771,-57.0265 145.0312,-92.75 13.6849,-13.42613 25.6515,-29.7539 19.4375,-46.0625 -7.468,-19.82358 -28.3959,-36.08255 -45.5937,-53 -25.7844,-22.15742 -58.2828,-42.65315 -99.8438,-52.75 -8.2535,-1.58256 -16.914,-2.48642 -25.5938,-2.375 z"
         style="opacity:0.12999998;fill:#ffffff;fill-opacity:1;fill-rule:evenodd;stroke:none"
         inkscape:connector-curvature="0" />
      <path
         id="path11863"
         d="m 1503.0625,623.375 c -0.2239,0.002 -0.4322,0.0273 -0.6563,0.0312 -34.7891,2.55217 -62.6066,18.69575 -80.375,36.46875 -14.9492,14.48547 -29.6394,31.15831 -25.4374,49.03125 6.6685,15.26473 29.6071,24.14465 47.4374,34.03125 4.6142,2.58919 9.452,5.0459 14.0626,7.625 -27.2735,22.7166 -56.8704,46.133 -65.625,74.6875 -17.0684,-0.0231 -35.3897,4.7639 -42.9688,14.8125 -8.2478,9.91471 0.3664,22.59695 15.5625,27.65625 9.0687,3.05406 19.6168,4.43436 30.0313,4.1875 -8.749,-0.22511 -17.4111,-1.62126 -25.0313,-4.1875 -15.1961,-5.0593 -23.8104,-17.74154 -15.5625,-27.65625 7.5791,-10.0486 25.9003,-14.8356 42.9688,-14.8125 8.7546,-28.5545 38.3514,-51.9709 65.625,-74.6875 -4.6107,-2.5791 -9.4485,-5.03581 -14.0626,-7.625 -17.8303,-9.8866 -40.769,-18.76652 -47.4374,-34.03125 -4.202,-17.87294 10.4882,-34.54578 25.4374,-49.03125 17.7256,-17.73012 45.4534,-33.82606 80.125,-36.4375 -1.3603,-0.0406 -2.7286,-0.0773 -4.0937,-0.0625 z"
         style="opacity:0.29200003;fill:#ffffff;fill-opacity:1;fill-rule:evenodd;stroke:none"
         inkscape:connector-curvature="0" />
      <path
         id="path11861"
         d="m 1506.9375,629.65625 c -0.074,0.002 -0.1447,0.0294 -0.2187,0.0312 9.0463,0.28744 17.8486,1.93653 26.125,4.21875 44.6882,15.4347 77.5345,41.26967 102.8124,68.5625 10.321,11.5929 23.4432,24.30973 19.4376,38.28125 -8.9904,18.026 -26.9611,33.64031 -45.6563,48.25 -35.2785,26.1451 -72.9045,52.66575 -122.2813,68.40625 -9.3824,3.64576 -20.6112,5.96051 -31.8124,6.28125 12.8223,0.32913 26.028,-2.09068 36.8124,-6.28125 49.3768,-15.7405 87.0028,-42.26115 122.2813,-68.40625 18.6951,-14.60969 36.666,-30.224 45.6563,-48.25 4.0055,-13.97152 -9.1166,-26.68835 -19.4376,-38.28125 -25.2778,-27.29283 -58.1241,-53.1278 -102.8124,-68.5625 -9.7324,-2.68372 -20.1803,-4.49702 -30.9063,-4.25 z"
         style="opacity:0.43700005;fill:#ffffff;fill-opacity:1;fill-rule:evenodd;stroke:none"
         inkscape:connector-curvature="0" />
      <path
         id="path11859"
         d="m 1502.8438,635.90625 c -0.2819,0.002 -0.5616,0.026 -0.8438,0.0312 -29.6518,3.14944 -50.9008,18.43982 -66.1875,33.59375 -10.3123,10.83692 -21.0073,22.71024 -20.25,35.6875 4.0674,10.5349 20.5306,16.1467 31.9687,23.375 12.1159,6.50782 24.9849,12.55365 35.9063,19.78125 -2.2068,6.55932 -12.1662,10.57695 -17.2187,16.28125 -22.6761,18.8059 -45.5121,38.7006 -54.4376,62 -0.8546,4.43795 0.06,8.9826 2.5,13.15625 2.5983,0.73215 5.0114,1.70252 7.125,3.03125 -3.9645,-4.9425 -5.6928,-10.64222 -4.625,-16.1875 8.9254,-23.2994 31.7615,-43.1941 54.4376,-62 5.0525,-5.7043 15.0118,-9.72193 17.2187,-16.28125 -10.9214,-7.2276 -23.7904,-13.27343 -35.9063,-19.78125 -11.4381,-7.2283 -27.9014,-12.8401 -31.9687,-23.375 -0.7573,-12.97726 9.9376,-24.85058 20.25,-35.6875 15.2023,-15.07024 36.2916,-30.29753 65.6875,-33.5625 -1.2133,-0.0453 -2.4348,-0.0721 -3.6562,-0.0625 z"
         style="opacity:0.656;fill:#ffffff;fill-opacity:1;fill-rule:evenodd;stroke:none"
         inkscape:connector-curvature="0" />
      <path
         id="path11857"
         d="m 1507.125,642.15625 c -0.3754,0.008 -0.7488,0.0167 -1.125,0.0312 17.3453,0.64394 33.7847,7.94806 48.7812,16.34375 22.782,12.89317 43.9214,28.98063 61.9376,48.0625 6.7144,7.5037 13.7829,15.0537 18.25,24.1875 3.1887,5.6334 -0.6988,11.72638 -4.3438,16 -22.8293,26.3375 -51.4092,46.85309 -80.8438,65.0625 -24.3953,15.1376 -50.0031,29.00012 -77.9374,36.21875 -5.2967,1.66034 -10.9736,2.87932 -16.6563,3.1875 7.3083,0.33336 14.7996,-1.03816 21.6563,-3.1875 27.9343,-7.21863 53.5421,-21.08115 77.9374,-36.21875 29.4346,-18.20941 58.0145,-38.725 80.8438,-65.0625 3.6449,-4.27362 7.5325,-10.3666 4.3438,-16 -4.4671,-9.1338 -11.5355,-16.6838 -18.25,-24.1875 -18.0162,-19.08187 -39.1557,-35.16933 -61.9376,-48.0625 -16.1077,-9.01778 -33.886,-16.77497 -52.6562,-16.375 z"
         style="opacity:0.656;fill:#ffffff;fill-opacity:1;fill-rule:evenodd;stroke:none"
         inkscape:connector-curvature="0" />
      <path
         id="path11855"
         d="m 1399.8125,831.6875 c -0.1219,0.012 -0.2364,0.0402 -0.3437,0.0625 -1.014,-0.0349 -2.0553,-0.0383 -3.0938,-0.0312 1.9302,0.1682 4.2725,0.66816 4.9688,0.15625 0,-0.004 0.027,-0.0275 0.031,-0.0312 0.01,-0.008 0.024,-0.0232 0.031,-0.0312 0,-0.004 0.028,-0.027 0.031,-0.0312 0,-0.004 0.028,-0.0267 0.031,-0.0312 0,-1.9e-4 0,-0.0311 0,-0.0312 -0.6078,-0.0558 -1.1859,-0.0774 -1.6563,-0.0312 z"
         style="opacity:0.43700005;fill:#ffffff;fill-opacity:1;fill-rule:evenodd;stroke:none"
         inkscape:connector-curvature="0" />
      <path
         id="path11853"
         d="m 1393.75,838.03125 c -3.9274,0.0277 -7.856,0.32787 -11.5312,0.71875 -8.947,0.94909 -18.7604,6.39605 -15.1876,12.53125 4.5568,6.8907 17.7909,8.18118 28.6563,7.9375 -9.6323,-0.25964 -19.783,-2.0804 -23.6563,-7.9375 -3.5728,-6.1352 6.2405,-11.58216 15.1876,-12.53125 3.0772,-0.32728 6.3114,-0.56587 9.5937,-0.65625 -1.0211,-0.0309 -2.0373,-0.0697 -3.0625,-0.0625 z"
         style="opacity:0.656;fill:#ffffff;fill-opacity:1;fill-rule:evenodd;stroke:none"
         inkscape:connector-curvature="0" />
      <path
         id="path11851"
         d="m 1396.25,844.34375 c -0.072,0.002 -0.1473,0.029 -0.2188,0.0312 7.4509,0.31035 13.306,1.85258 14.2188,3.75 0.066,0.14415 0.1175,0.32065 0.125,0.46875 2e-4,0.009 0,0.022 0,0.0312 0,0.065 -0.02,0.15446 -0.031,0.21875 -0.013,0.0642 -0.039,0.15534 -0.063,0.21875 -0.022,0.0543 -0.064,0.13386 -0.094,0.1875 -0.031,0.0535 -0.086,0.13462 -0.125,0.1875 -0.034,0.044 -0.086,0.11276 -0.125,0.15625 -1.5737,1.71091 -7.212,3.05649 -14.2187,3.3125 0.8161,0.03 1.6508,0.0312 2.5,0.0312 8.1321,0 14.9626,-1.43464 16.7187,-3.34375 0.039,-0.0435 0.091,-0.11228 0.125,-0.15625 0.039,-0.0529 0.094,-0.13396 0.125,-0.1875 0.03,-0.0536 0.072,-0.13324 0.094,-0.1875 0.024,-0.0634 0.05,-0.15457 0.063,-0.21875 0.011,-0.0643 0.031,-0.15376 0.031,-0.21875 0,-0.009 2e-4,-0.022 0,-0.0312 -0.01,-0.1481 -0.059,-0.3246 -0.125,-0.46875 -1.0253,-2.13123 -8.2707,-3.78126 -17.0312,-3.78125 -0.6654,0 -1.3231,-0.0186 -1.9688,0 z"
         style="opacity:0.656;fill:#ffffff;fill-opacity:1;fill-rule:evenodd;stroke:none"
         inkscape:connector-curvature="0" />
      <path
         id="path11849"
         d="m 1424.7812,846.5625 c -9e-4,0.002 8e-4,0.0286 0,0.0312 -3e-4,0.003 2e-4,0.0277 0,0.0312 0.016,0.27846 0.4647,1.20096 0.4688,1.75 -4e-4,0.0234 0,0.0718 0,0.0937 0,0.0143 -0.029,0.049 -0.031,0.0625 0,0.0131 0,0.0502 0,0.0625 0,0.006 -0.029,0.0255 -0.031,0.0312 0,0.006 0,0.026 0,0.0312 -0.064,0.59701 -0.2129,1.17416 -0.4375,1.71875 7.7987,4.9526 18.9868,7.57159 30.125,7.125 -11.6361,-0.48626 -22.7653,-4.22568 -29.375,-10.375 -0.3119,-0.33266 -0.5241,-0.51163 -0.625,-0.5625 0,-10e-4 -0.028,9.3e-4 -0.031,0 0,1.1e-4 -0.029,-4.5e-4 -0.031,0 0,0.002 -0.03,-0.002 -0.031,0 z"
         style="opacity:0.656;fill:#ffffff;fill-opacity:1;fill-rule:evenodd;stroke:none"
         inkscape:connector-curvature="0" />
      <path
         id="path11847"
         d="m 1573.4062,858.34375 c 10.8942,0.0936 22.2129,0.63835 32.4376,2.8125 28.0339,4.9918 46.1986,23.48138 43.875,41.34375 -2.1447,23.7351 -41.2985,36.57313 -76,37.21875 35.8263,0.56122 78.7517,-12.33671 81,-37.21875 2.3236,-17.86237 -15.8412,-36.35195 -43.875,-41.34375 -11.7975,-2.5086 -25.0684,-2.82803 -37.4376,-2.8125 z"
         style="opacity:0.05799997;fill:#ffffff;fill-opacity:1;fill-rule:evenodd;stroke:none"
         inkscape:connector-curvature="0" />
      <path
         id="path11845"
         d="m 1424.125,858.40625 c -1.6162,0.10646 -2.9548,2.02258 -4.5,2.53125 -7.136,2.84389 -15.6122,4.40313 -24.1875,4.65625 10.2269,0.3168 20.6669,-1.26056 29.1875,-4.65625 0.8161,-0.26865 1.5691,-0.92795 2.3438,-1.5 -0.4024,-0.15236 -0.7909,-0.30762 -1.1876,-0.46875 -0.5865,-0.43262 -1.1397,-0.59652 -1.6562,-0.5625 z"
         style="opacity:0.43700005;fill:#ffffff;fill-opacity:1;fill-rule:evenodd;stroke:none"
         inkscape:connector-curvature="0" />
      <path
         id="path11843"
         d="m 1556.9375,864.625 c -27.8974,0.41531 -56.174,13.32766 -58.9375,31.40625 -2.8965,19.17598 25.0013,36.1722 54.6875,37 5.2845,0.28245 10.6845,0.43525 16.125,0.375 -3.7574,-0.0393 -7.4594,-0.17908 -11.125,-0.375 -29.6862,-0.8278 -57.5841,-17.82402 -54.6875,-37 2.6987,-17.65487 29.7217,-30.37038 56.9688,-31.34375 -1.0181,-0.009 -2.0155,-0.0463 -3.0313,-0.0625 z"
         style="opacity:0.12999998;fill:#ffffff;fill-opacity:1;fill-rule:evenodd;stroke:none"
         inkscape:connector-curvature="0" />
      <path
         id="path11841"
         d="m 1429.9688,865.9375 c -0.6788,0.30238 -1.3638,0.59477 -2.0626,0.875 8.4803,2.3418 17.5884,3.27185 26.7188,3.09375 -8.5073,-0.22329 -16.874,-1.46811 -24.6562,-3.96875 z"
         style="opacity:0.29200003;fill:#ffffff;fill-opacity:1;fill-rule:evenodd;stroke:none"
         inkscape:connector-curvature="0" />
      <path
         id="path11837"
         d="m 1573.2188,871 c 9.8045,0.0456 19.5973,0.40634 28.75,2.625 24.4225,5.329 36.6937,26.41017 21,39.84375 -12.2162,9.64729 -31.9439,13.23935 -51.25,13.5625 20.8375,0.24273 42.9758,-3.07974 56.25,-13.5625 15.6936,-13.43358 3.4225,-34.51475 -21,-39.84375 -10.7154,-2.59746 -22.2793,-2.64186 -33.75,-2.625 z"
         style="opacity:0.12999998;fill:#ffffff;fill-opacity:1;fill-rule:evenodd;stroke:none"
         inkscape:connector-curvature="0" />
      <path
         id="path11835"
         d="m 1426.9375,873.3125 c -10.0738,2.47605 -21.1456,4.59471 -32.3125,4.90625 11.9712,0.28441 23.959,-1.76047 34.9062,-4.34375 -0.8693,-0.18311 -1.7315,-0.35592 -2.5937,-0.5625 z"
         style="opacity:0.12999998;fill:#ffffff;fill-opacity:1;fill-rule:evenodd;stroke:none"
         inkscape:connector-curvature="0" />
      <path
         id="path11833"
         d="m 1557.9688,877.21875 c -17.4538,0.51796 -36.4992,7.09876 -39.8126,18.5625 -3.1638,12.40567 14.8799,23.7206 34.0313,24.3125 6.0497,0.35258 12.3709,0.61728 18.6875,0.5625 -4.643,-0.0715 -9.2302,-0.30273 -13.6875,-0.5625 -19.1514,-0.5919 -37.1951,-11.90683 -34.0313,-24.3125 3.3134,-11.46374 22.3588,-18.04454 39.8126,-18.5625 -1.3166,0.002 -2.6254,0.008 -3.9376,0 -0.3462,0.006 -0.7148,-0.0103 -1.0624,0 z"
         style="opacity:0.29200003;fill:#ffffff;fill-opacity:1;fill-rule:evenodd;stroke:none"
         inkscape:connector-curvature="0" />
      <path
         id="path11831"
         d="m 1434.5312,880.5 c -1.038,0.0581 -2.0875,0.15575 -3.125,0.25 7.6376,1.24336 15.356,1.74253 23.0626,1.625 -6.5733,-0.13396 -13.1306,-0.72908 -19.625,-1.875 -0.1039,0.005 -0.2087,-0.006 -0.3126,0 z"
         style="opacity:0.12999998;fill:#ffffff;fill-opacity:1;fill-rule:evenodd;stroke:none"
         inkscape:connector-curvature="0" />
      <path
         id="path11829"
         d="m 1572.3438,883.5 c 4.4036,0.0495 8.8037,0.24006 13.125,0.78125 16.633,-0.64359 31.0913,12.27882 21.7812,21.5 -8.2739,6.22376 -20.6696,8.2832 -33.25,8.5625 14.2183,0.15948 28.8841,-1.5173 38.25,-8.5625 9.31,-9.22118 -5.1482,-22.14359 -21.7812,-21.5 -5.9558,-0.74588 -12.0553,-0.80303 -18.125,-0.78125 z"
         style="opacity:0.29200003;fill:#ffffff;fill-opacity:1;fill-rule:evenodd;stroke:none"
         inkscape:connector-curvature="0" />
      <path
         id="path11827"
         d="m 1493.0312,883.6875 c -12.0116,2.88462 -25.1232,4.76206 -38.25,4.96875 12.652,0.21878 25.4086,-1.20607 37.3126,-3.65625 0.289,-0.44013 0.6178,-0.87906 0.9374,-1.3125 z"
         style="opacity:0.05799997;fill:#ffffff;fill-opacity:1;fill-rule:evenodd;stroke:none"
         inkscape:connector-curvature="0" />
      <path
         id="path11825"
         d="m 1429.1875,887.15625 c -12.0784,0.2275 -24.0407,3.88155 -36.3125,3.78125 -0.3909,0.0146 -0.7964,0.0522 -1.1875,0.0625 2.0589,0.0414 4.1279,0.0146 6.1875,-0.0625 11.7683,0.0962 23.2676,-3.24257 34.8438,-3.71875 -1.1791,-0.0495 -2.3544,-0.0847 -3.5313,-0.0625 z"
         style="opacity:0.05799997;fill:#ffffff;fill-opacity:1;fill-rule:evenodd;stroke:none"
         inkscape:connector-curvature="0" />
      <path
         id="path11823"
         d="m 1570.0625,889.75 c -0.7112,10e-4 -1.4142,0.0225 -2.125,0.0312 -10.6716,0.0779 -25.1933,0.1639 -29.9687,7.375 -2.1997,6.1501 8.6888,10.3655 17.375,10.25 6.0828,0.31796 12.733,0.75303 19.25,0.625 -4.874,-0.0857 -9.7214,-0.38828 -14.25,-0.625 -8.6862,0.1155 -19.5748,-4.0999 -17.375,-10.25 4.5516,-6.87308 17.9505,-7.28549 28.4374,-7.375 -0.4499,-0.003 -0.8937,-0.0321 -1.3437,-0.0312 z"
         style="opacity:0.656;fill:#ffffff;fill-opacity:1;fill-rule:evenodd;stroke:none"
         inkscape:connector-curvature="0" />
      <path
         id="path11821"
         d="m 1483.0625,893.15625 c -1.5131,0.13328 -3.1702,0.31265 -4.875,0.5 -4.2633,22.22718 21.4028,44.28632 55.625,49.78125 11.17,2.02527 22.8131,2.95834 34.4687,2.84375 -9.9748,-0.15908 -19.9039,-1.10951 -29.4687,-2.84375 -34.4917,-5.5382 -60.273,-27.87738 -55.5,-50.28125 -0.081,0.007 -0.1679,-0.007 -0.25,0 z"
         style="opacity:0.05799997;fill:#ffffff;fill-opacity:1;fill-rule:evenodd;stroke:none"
         inkscape:connector-curvature="0" />
      <path
         id="path11819"
         d="m 1431.8125,893.59375 c -0.1076,0.003 -0.2049,0.0282 -0.3125,0.0312 8.4402,0.27475 16.8605,1.61767 25.375,1.34375 -8.3861,-0.24666 -16.7101,-1.57357 -25.0625,-1.375 z"
         style="opacity:0.05799997;fill:#ffffff;fill-opacity:1;fill-rule:evenodd;stroke:none"
         inkscape:connector-curvature="0" />
      <path
         id="path11817"
         d="m 1571.75,896 c -0.1061,10e-4 -0.2068,0.0296 -0.3125,0.0312 9.573,0.14968 17.2394,1.13788 18.6875,2.40625 0.026,0.0238 0.072,0.0698 0.094,0.0937 0.01,0.006 0.026,0.0252 0.031,0.0312 0.01,0.0121 0.023,0.0504 0.031,0.0625 0,0.006 0.028,0.0252 0.031,0.0312 0.013,0.0243 0.023,0.0693 0.031,0.0937 0,0.006 0,0.0251 0,0.0312 0,0.0123 0.03,0.0502 0.031,0.0625 3e-4,0.006 0,0.0251 0,0.0312 0,0.0247 -0.025,0.0692 -0.031,0.0937 0,0.006 0,0.0251 0,0.0312 0,0.0122 -0.026,0.0503 -0.031,0.0625 -0.047,0.0912 -0.1402,0.19256 -0.25,0.28125 -1.5506,1.20546 -8.7397,2.18429 -17.7813,2.375 0.544,0.006 1.1018,0.0312 1.6563,0.0312 10.5811,0 19.3869,-1.05503 21.125,-2.40625 0.1098,-0.0887 0.2025,-0.19002 0.25,-0.28125 0.01,-0.0122 0.027,-0.0503 0.031,-0.0625 0,-0.006 0,-0.0251 0,-0.0312 0.01,-0.0246 0.03,-0.069 0.031,-0.0937 0,-0.006 3e-4,-0.0251 0,-0.0312 0,-0.0123 -0.029,-0.0502 -0.031,-0.0625 0,-0.006 0,-0.0251 0,-0.0312 -0.01,-0.0245 -0.019,-0.0694 -0.031,-0.0937 0,-0.006 -0.027,-0.0252 -0.031,-0.0312 -0.01,-0.0121 -0.022,-0.0504 -0.031,-0.0625 0,-0.006 -0.026,-0.0252 -0.031,-0.0312 -0.022,-0.024 -0.068,-0.0699 -0.094,-0.0937 -1.5725,-1.37737 -10.4679,-2.43751 -21.1875,-2.4375 -0.7393,0 -1.4674,-0.01 -2.1875,0 z"
         style="opacity:0.656;fill:#ffffff;fill-opacity:1;fill-rule:evenodd;stroke:none"
         inkscape:connector-curvature="0" />
      <path
         id="waves3"
         d="m 1502.6875,604.625 c -42.293,2.26639 -78.972,19.57577 -102,41.09375 -20.0075,18.53043 -37.966,40.05369 -34.1875,63.15625 3.4217,17.63809 24.2684,31.06055 45.25,41.78125 0.927,1.11282 4.7367,1.84302 5.2812,2.84375 0.01,0.0159 0.025,0.0465 0.031,0.0625 0,0.005 0,0.0259 0,0.0312 0.01,0.0215 0.028,0.072 0.031,0.0937 5e-4,0.005 -4e-4,0.0258 0,0.0312 10e-5,0.005 0,0.0257 0,0.0312 -3e-4,0.006 4e-4,0.0257 0,0.0312 -7e-4,0.006 8e-4,0.0257 0,0.0312 0,0.006 -0.03,0.0256 -0.031,0.0312 0,0.006 0,0.0256 0,0.0312 -0.01,0.0227 -0.02,0.0707 -0.031,0.0937 0,0.006 -0.028,0.0254 -0.031,0.0312 -0.1264,0.20404 -0.3888,0.4222 -0.8438,0.65625 -20.6811,16.08781 -36.6242,34.406 -48.1562,53.6875 -30.8551,5.235 -55.8329,24.87085 -51.125,45.34375 4.7474,21.85259 39.453,37.93352 73.9375,37.3125 -32.7679,-0.92203 -64.4197,-16.51703 -68.9375,-37.3125 -4.7079,-20.4729 20.2699,-40.10875 51.125,-45.34375 11.532,-19.2815 27.4751,-37.59969 48.1562,-53.6875 0.455,-0.23405 0.7174,-0.45221 0.8438,-0.65625 0,-0.006 0.028,-0.0255 0.031,-0.0312 0.012,-0.0231 0.023,-0.071 0.031,-0.0937 0,-0.006 0,-0.0256 0,-0.0312 0,-0.006 0.03,-0.0256 0.031,-0.0312 8e-4,-0.006 -7e-4,-0.0257 0,-0.0312 4e-4,-0.006 -3e-4,-0.0257 0,-0.0312 0,-0.006 10e-5,-0.0258 0,-0.0312 -4e-4,-0.005 5e-4,-0.0258 0,-0.0312 0,-0.0218 -0.025,-0.0722 -0.031,-0.0937 0,-0.005 0,-0.0259 0,-0.0312 -0.01,-0.016 -0.023,-0.0466 -0.031,-0.0625 -0.5445,-1.00073 -4.3542,-1.73093 -5.2812,-2.84375 -20.9816,-10.7207 -41.8283,-24.14316 -45.25,-41.78125 -3.7785,-23.10256 14.18,-44.62582 34.1875,-63.15625 22.808,-21.31243 58.9992,-38.5033 100.7813,-41.03125 -1.0956,-0.0388 -2.1782,-0.0453 -3.2813,-0.0625 -0.166,0.008 -0.3341,-0.009 -0.5,0 z"
         style="opacity:0.08600003;fill:#ffffff;fill-opacity:1;fill-rule:evenodd;stroke:none"
         inkscape:connector-curvature="0" />
      <path
         id="path11811"
         d="m 1509,610.84375 c -0.1926,0.002 -0.3698,0.028 -0.5625,0.0312 -0.1348,0.007 -0.2715,0.024 -0.4063,0.0312 4.6052,0.13498 9.1916,0.54703 13.7188,1.09375 40.0793,6.77805 72.5779,24.57645 98.7812,44.03125 21.9819,18.26486 44.5651,36.79909 58.0626,58.1875 11.9471,16.2716 6.5873,35.65438 -6.8438,50.90625 -39.0475,39.2716 -87.7885,75.76652 -150,101.375 -19.1149,8.97475 -42.7902,15.43905 -66.8438,15.875 25.7426,0.44192 51.4121,-6.28198 71.8438,-15.875 62.2115,-25.60848 110.9525,-62.1034 150,-101.375 13.4311,-15.25187 18.7909,-34.63465 6.8438,-50.90625 -13.4976,-21.38841 -36.0807,-39.92264 -58.0626,-58.1875 -26.2034,-19.4548 -58.7019,-37.2532 -98.7812,-44.03125 -5.8477,-0.70618 -11.7795,-1.22077 -17.75,-1.15625 z"
         style="opacity:0.08600003;fill:#ffffff;fill-opacity:1;fill-rule:evenodd;stroke:none"
         inkscape:connector-curvature="0" />
      <path
         id="path11809"
         d="m 1502.6562,617.125 c -0.1377,0.002 -0.2684,0.029 -0.4062,0.0312 -38.0101,2.57444 -69.4467,19.74085 -88.8438,39.46875 -16.2417,15.54414 -31.1736,33.78739 -26.6874,52.96875 5.6667,15.81867 27.762,26.0114 46.5937,35.875 3.6462,2.05598 7.436,4.0105 11.1875,6 -24.9658,20.6197 -50.2322,42.2741 -60.125,67.75 -23.3227,1.2571 -46.7264,12.67805 -48.0312,28.03125 -1.3261,15.82828 21.2352,29.29575 45.6874,30.46875 3.9276,0.44713 7.8684,0.5798 11.8126,0.5 -2.2838,-0.0732 -4.5398,-0.24126 -6.8126,-0.5 -24.4523,-1.173 -47.0135,-14.64047 -45.6874,-30.46875 1.3048,-15.3532 24.7085,-26.77415 48.0312,-28.03125 9.8928,-25.4759 35.1592,-47.1303 60.125,-67.75 -3.7515,-1.9895 -7.5412,-3.94402 -11.1875,-6 -18.8317,-9.8636 -40.927,-20.05633 -46.5937,-35.875 -4.4862,-19.18136 10.4458,-37.42461 26.6874,-52.96875 19.387,-19.71767 50.7977,-36.88052 88.7813,-39.46875 -1.5119,-0.0395 -3.0157,-0.0507 -4.5313,-0.0312 z"
         style="opacity:0.194;fill:#ffffff;fill-opacity:1;fill-rule:evenodd;stroke:none"
         inkscape:connector-curvature="0" />
      <path
         id="path11807"
         d="m 1508.0625,623.375 c -0.2239,0.002 -0.4322,0.0273 -0.6563,0.0312 -0.084,0.006 -0.1661,0.0249 -0.25,0.0312 7.9371,0.23665 15.7792,1.38155 23.2188,3.09375 43.6971,12.62901 76.4916,36.04405 102.375,60.96875 13.7815,14.99966 32.4066,29.87747 33,47.875 -2.0309,15.6113 -15.905,29.36717 -29.8125,41.96875 -38.523,31.9491 -81.28,63.4245 -137.5,83.4375 -12.5187,5.24103 -27.8303,8.72919 -43.0937,9.125 16.8932,0.3322 34.2023,-3.30929 48.0937,-9.125 56.22,-20.013 98.977,-51.4884 137.5,-83.4375 13.9075,-12.60158 27.7816,-26.35745 29.8125,-41.96875 -0.5934,-17.99753 -19.2185,-32.87534 -33,-47.875 -25.8834,-24.9247 -58.6779,-48.33974 -102.375,-60.96875 -8.7147,-2.00566 -17.9826,-3.2576 -27.3125,-3.15625 z"
         style="opacity:0.194;fill:#ffffff;fill-opacity:1;fill-rule:evenodd;stroke:none"
         inkscape:connector-curvature="0" />
      <path
         id="path11805"
         d="m 1501.9375,629.65625 c -0.084,0.002 -0.1655,0.029 -0.25,0.0312 -32.8704,3.08303 -57.5579,19.36511 -74.0937,36.34375 -12.1045,12.39625 -24.3459,26.40672 -21.4063,41.46875 7.0195,14.27482 29.566,21.7326 45.6563,31.5 6.7011,3.50959 13.4358,6.9159 19.625,10.75 -9.5947,8.58097 -20.6198,16.452 -29.6876,25.25 -18.787,16.7582 -36.8429,35.11405 -40.4062,55.90625 0.082,0.15947 0.1336,0.31513 0.1562,0.4375 0,0.0141 0,0.0488 0,0.0625 0,0.0134 -3e-4,0.0495 0,0.0625 1e-4,0.006 2e-4,0.025 0,0.0312 -7e-4,0.0123 0,0.0507 0,0.0625 -9e-4,0.006 0,0.0256 0,0.0312 0,0.0167 -0.026,0.0467 -0.031,0.0625 0,0.005 0,0.0262 0,0.0312 0,0.005 -0.029,0.0264 -0.031,0.0312 0,1.9e-4 0,0.0311 0,0.0312 1.9109,0.17587 4.1903,0.6284 4.875,0.125 0,-0.004 0.027,-0.0275 0.031,-0.0312 0.01,-0.008 0.024,-0.0232 0.031,-0.0312 0,-0.004 0.028,-0.027 0.031,-0.0312 0,-0.004 0.028,-0.0267 0.031,-0.0312 0,-0.005 0,-0.0265 0,-0.0312 0,-0.005 0.029,-0.0263 0.031,-0.0312 0,-0.005 0,-0.0261 0,-0.0312 0.01,-0.0158 0.027,-0.0458 0.031,-0.0625 0,-0.006 -9e-4,-0.0254 0,-0.0312 0,-0.0118 -7e-4,-0.0502 0,-0.0625 2e-4,-0.006 10e-5,-0.0249 0,-0.0312 -3e-4,-0.013 0,-0.0491 0,-0.0625 0,-0.0137 0,-0.0484 0,-0.0625 -0.023,-0.12237 -0.074,-0.27803 -0.1562,-0.4375 3.5633,-20.7922 21.6191,-39.14805 40.4062,-55.90625 9.0678,-8.798 20.0929,-16.66903 29.6876,-25.25 -6.1892,-3.8341 -12.9238,-7.24041 -19.625,-10.75 -16.0904,-9.7674 -38.6368,-17.22518 -45.6563,-31.5 -2.9396,-15.06203 9.3017,-29.0725 21.4063,-41.46875 16.5013,-16.94314 41.1075,-33.21211 73.875,-36.34375 -1.5085,-0.0437 -3.0111,-0.0663 -4.5313,-0.0312 z"
         style="opacity:0.43700005;fill:#ffffff;fill-opacity:1;fill-rule:evenodd;stroke:none"
         inkscape:connector-curvature="0" />
      <path
         id="path11803"
         d="m 1507.8438,635.90625 c -0.2819,0.002 -0.5616,0.026 -0.8438,0.0312 -0.1158,0.0123 -0.2282,0.0186 -0.3438,0.0312 10.3983,0.40735 20.4457,2.78411 29.4376,6.03125 38.0624,15.55935 67.5283,38.21399 90.25,62.6875 8.6567,10.8086 21.9129,21.82794 19.3124,34.65625 -8.2633,15.754 -23.9678,29.55073 -39.9062,42.65625 -27.4898,21.0987 -56.9101,41.57128 -91.9688,57.875 -16.2518,6.87 -32.8343,14.30313 -52.25,17 -2.1616,0.33593 -4.3689,0.53382 -6.5624,0.625 3.8447,0.15413 7.7542,-0.0332 11.5624,-0.625 19.4156,-2.69687 35.9983,-10.13 52.25,-17 35.0587,-16.30372 64.479,-36.7763 91.9688,-57.875 15.9384,-13.10552 31.6428,-26.90225 39.9062,-42.65625 2.6004,-12.82831 -10.6556,-23.84765 -19.3124,-34.65625 -22.7217,-24.47351 -52.1876,-47.12815 -90.25,-62.6875 -10.085,-3.64189 -21.5049,-6.18617 -33.25,-6.09375 z"
         style="opacity:0.43700005;fill:#ffffff;fill-opacity:1;fill-rule:evenodd;stroke:none"
         inkscape:connector-curvature="0" />
      <path
         id="path11739"
         d="m 1394.8125,831.6875 c -0.1219,0.012 -0.2364,0.0402 -0.3437,0.0625 -1.014,-0.0349 -2.0553,-0.0383 -3.0938,-0.0312 1.9302,0.1682 4.2725,0.66816 4.9688,0.15625 0,-0.004 0.027,-0.0275 0.031,-0.0312 0.01,-0.008 0.024,-0.0232 0.031,-0.0312 0,-0.004 0.028,-0.027 0.031,-0.0312 0,-0.004 0.028,-0.0267 0.031,-0.0312 0,-1.9e-4 0,-0.0311 0,-0.0312 -0.6078,-0.0558 -1.1859,-0.0774 -1.6563,-0.0312 z"
         style="opacity:0.43700005;fill:#000000;fill-opacity:1;fill-rule:evenodd;stroke:none"
         inkscape:connector-curvature="0" />
      <path
         id="path11797"
         d="m 1390.2188,831.71875 c -13.8512,0.30317 -29.022,4.36389 -33.0313,13.1875 -3.336,7.45018 4.1159,15.46345 15.5313,18.03125 7.0212,2.02477 14.9114,2.8867 22.7187,2.65625 -6.1361,-0.19008 -12.1938,-1.06299 -17.7187,-2.65625 -11.4154,-2.5678 -18.8673,-10.58107 -15.5313,-18.03125 3.9056,-8.59542 18.3859,-12.67116 31.9375,-13.15625 -1.2789,-0.0379 -2.5928,-0.06 -3.9062,-0.0312 z"
         style="opacity:0.43700005;fill:#ffffff;fill-opacity:1;fill-rule:evenodd;stroke:none"
         inkscape:connector-curvature="0" />
      <path
         id="path11795"
         d="m 1398.75,838.03125 c -0.639,0.005 -1.2997,0.0449 -1.9375,0.0625 7.279,0.22013 14.3469,1.45157 19.5937,4.75 -0.7916,-0.98696 -1.5161,-1.98988 -2.125,-3.03125 -4.7564,-1.34028 -10.1417,-1.81923 -15.5312,-1.78125 z"
         style="opacity:0.43700005;fill:#ffffff;fill-opacity:1;fill-rule:evenodd;stroke:none"
         inkscape:connector-curvature="0" />
      <path
         id="path11791"
         d="m 1419.7812,846.5625 c -9e-4,0.002 8e-4,0.0286 0,0.0312 -3e-4,0.003 2e-4,0.0277 0,0.0312 0.016,0.27846 0.4647,1.20096 0.4688,1.75 -4e-4,0.0234 0,0.0718 0,0.0937 0,0.0143 -0.029,0.049 -0.031,0.0625 0,0.0131 0,0.0502 0,0.0625 0,0.006 -0.029,0.0255 -0.031,0.0312 0,0.006 0,0.026 0,0.0312 -0.7358,6.8536 -12.6271,10.25929 -22.3437,10.5 -0.6124,0.025 -1.2436,0.0468 -1.875,0.0625 2.3581,0.0563 4.6879,0.0268 6.875,-0.0625 8.8702,-0.21975 19.5526,-3.07407 21.9062,-8.78125 -1.5666,-0.99489 -2.9859,-2.07394 -4.25,-3.25 -0.3119,-0.33266 -0.5241,-0.51163 -0.625,-0.5625 0,-10e-4 -0.028,9.3e-4 -0.031,0 0,1.1e-4 -0.029,-4.5e-4 -0.031,0 0,0.002 -0.03,-0.002 -0.031,0 z"
         style="opacity:0.43700005;fill:#ffffff;fill-opacity:1;fill-rule:evenodd;stroke:none"
         inkscape:connector-curvature="0" />
      <path
         id="path11787"
         d="m 1429.125,858.40625 c -0.7626,0.0502 -1.4642,0.52018 -2.1562,1.03125 8.5141,3.22383 18.293,4.50125 28.0937,4.25 -8.5513,-0.24661 -16.9258,-1.73054 -24.2813,-4.71875 -0.5865,-0.43262 -1.1397,-0.59652 -1.6562,-0.5625 z"
         style="opacity:0.43700005;fill:#ffffff;fill-opacity:1;fill-rule:evenodd;stroke:none"
         inkscape:connector-curvature="0" />
      <path
         id="path11783"
         d="m 1567.9375,864.6875 c 2.0208,0.004 4.0429,0.0113 6.0625,0.0312 -2.0207,-0.005 -4.0445,-0.0235 -6.0625,-0.0312 z"
         style="fill:#ff0000;fill-opacity:1;fill-rule:evenodd;stroke:none"
         inkscape:connector-curvature="0" />
      <path
         id="path11781"
         d="m 1574.0312,864.71875 c 6.0479,0.0603 12.082,0.2438 18.0313,0.84375 18.9097,1.1675 35.625,9.14768 43.0625,19.96875 8.2721,11.1848 6.1372,25.49778 -8.0312,34.5 -15.1375,9.79495 -36.8649,13.13517 -58.25,13.375 22.9526,0.23705 46.9323,-2.81639 63.25,-13.375 14.1685,-9.00222 16.3033,-23.3152 8.0312,-34.5 -7.4375,-10.82107 -24.1528,-18.80125 -43.0625,-19.96875 -7.5853,-0.76493 -15.3148,-0.82315 -23.0313,-0.84375 z"
         style="opacity:0.08600003;fill:#ffffff;fill-opacity:1;fill-rule:evenodd;stroke:none"
         inkscape:connector-curvature="0" />
      <path
         id="path11779"
         d="m 1424.9688,865.9375 c -3.2383,1.4427 -6.7035,2.63092 -10.4063,3.53125 -6.1045,1.43859 -12.6675,2.26873 -19.2813,2.4375 8.2775,0.19782 16.6416,-0.63713 24.2813,-2.4375 2.9267,-0.71163 5.7086,-1.59945 8.3437,-2.65625 -0.9947,-0.2747 -1.9609,-0.56119 -2.9374,-0.875 z"
         style="opacity:0.194;fill:#ffffff;fill-opacity:1;fill-rule:evenodd;stroke:none"
         inkscape:connector-curvature="0" />
      <path
         id="path11777"
         d="m 1556.8125,870.9375 c -22.7182,0.53257 -46.4059,10.70521 -48.9063,25.5625 -2.1819,16.6843 23.2965,31.0047 49.25,30.1875 4.343,0.27258 8.8376,0.38703 13.3438,0.34375 -2.8128,-0.0516 -5.6104,-0.1722 -8.3438,-0.34375 -25.9536,0.8172 -51.432,-13.5032 -49.25,-30.1875 2.4417,-14.50907 25.0943,-24.54171 47.3126,-25.5 -1.1437,-0.009 -2.27,-0.0402 -3.4063,-0.0625 z"
         style="opacity:0.194;fill:#ffffff;fill-opacity:1;fill-rule:evenodd;stroke:none"
         inkscape:connector-curvature="0" />
      <path
         id="path11775"
         d="m 1431.9375,873.3125 c -0.7838,0.19265 -1.5797,0.37472 -2.375,0.5625 8.2292,1.73053 16.7582,2.44361 25.2813,2.28125 -7.7585,-0.16241 -15.4696,-1.06199 -22.9063,-2.84375 z"
         style="opacity:0.194;fill:#ffffff;fill-opacity:1;fill-rule:evenodd;stroke:none"
         inkscape:connector-curvature="0" />
      <path
         id="path11773"
         d="m 1571.7188,877.21875 c 3.7351,0.0429 7.4667,0.17791 11.1562,0.5 13.3241,-0.4384 26.2712,4.10368 32.6875,11.375 7.196,7.2914 6.0075,17.86533 -4.9687,23.46875 -10.5252,5.94914 -24.2544,7.85084 -38.125,8.09375 15.534,0.12855 31.3333,-1.42872 43.125,-8.09375 10.9762,-5.60342 12.1647,-16.17735 4.9687,-23.46875 -6.4163,-7.27132 -19.3634,-11.8134 -32.6875,-11.375 -5.3292,-0.46524 -10.7576,-0.50375 -16.1562,-0.5 z"
         style="opacity:0.194;fill:#ffffff;fill-opacity:1;fill-rule:evenodd;stroke:none"
         inkscape:connector-curvature="0" />
      <path
         id="path11771"
         d="m 1429.5312,880.5 c -11.4185,0.63899 -22.7838,3.69287 -34.5312,4.09375 12.4373,0.4704 24.3813,-2.74966 36.3438,-3.84375 -0.5022,-0.082 -0.9989,-0.16157 -1.5,-0.25 -0.1039,0.005 -0.2087,-0.006 -0.3126,0 z"
         style="opacity:0.08600003;fill:#ffffff;fill-opacity:1;fill-rule:evenodd;stroke:none"
         inkscape:connector-curvature="0" />
      <path
         id="path11769"
         d="m 1561.1562,883.5 c -13.5649,0.11131 -29.3823,3.8464 -33.0624,12.71875 -3.006,9.89432 13.1527,18.2483 28.125,17.5625 5.2036,0.36857 10.7556,0.62587 16.2812,0.5625 -3.8348,-0.0773 -7.6208,-0.30545 -11.25,-0.5625 -14.9723,0.6858 -31.1622,-7.66818 -28.1562,-17.5625 3.5292,-8.50873 18.2107,-12.29502 31.375,-12.6875 -0.445,0.002 -0.8682,-0.002 -1.3126,0 -0.6544,-0.0118 -1.3328,-0.0367 -2,-0.0312 z"
         style="opacity:0.43700005;fill:#ffffff;fill-opacity:1;fill-rule:evenodd;stroke:none"
         inkscape:connector-curvature="0" />
      <path
         id="path11763"
         d="m 1498.0312,883.6875 c -1.9493,0.46813 -3.935,0.90042 -5.9374,1.3125 -8.9621,13.64389 -3.2537,30.32496 13.5624,40.625 14.7734,9.87317 36.598,14.5623 58,14.21875 -19.7624,-0.40204 -39.3726,-5.11137 -53,-14.21875 -17.3586,-10.6323 -22.8554,-28.06728 -12.625,-41.9375 z"
         style="opacity:0.08600003;fill:#ffffff;fill-opacity:1;fill-rule:evenodd;stroke:none"
         inkscape:connector-curvature="0" />
      <path
         id="path11761"
         d="m 1434.1875,887.15625 c -0.4336,0.008 -0.8479,0.0458 -1.2813,0.0625 2.5445,0.11583 5.0966,0.41812 7.6563,0.96875 4.692,0.39166 9.4495,0.54244 14.1875,0.46875 -3.0692,-0.0537 -6.1451,-0.21479 -9.1875,-0.46875 -3.8083,-0.81923 -7.5966,-1.10242 -11.375,-1.03125 z"
         style="opacity:0.08600003;fill:#ffffff;fill-opacity:1;fill-rule:evenodd;stroke:none"
         inkscape:connector-curvature="0" />
      <path
         id="path11759"
         d="m 1575.0625,889.75 c -0.5334,10e-4 -1.0605,0.026 -1.5937,0.0312 3.835,0.0715 7.677,0.30299 11.4374,0.78125 9.3694,-0.3435 19.0322,6.29648 13.9063,11.90625 -6.4493,4.107 -15.1513,5.37827 -24.125,5.5625 10.6928,0.18212 21.4773,-0.69237 29.125,-5.5625 5.1259,-5.60977 -4.5369,-12.24975 -13.9063,-11.90625 -4.877,-0.62027 -9.8654,-0.82226 -14.8437,-0.8125 z"
         style="opacity:0.43700005;fill:#ffffff;fill-opacity:1;fill-rule:evenodd;stroke:none"
         inkscape:connector-curvature="0" />
      <path
         id="path10814"
         d="m 1502.6875,604.625 c -0.404,0.0217 -0.8158,0.0381 -1.2187,0.0625 36.6686,1.29731 69.0499,14.56702 95.2187,29.8125 31.913,19.69508 58.9967,42.71498 79.25,67.78125 17.0464,17.4779 18.4516,40.19927 5.25,58.78125 -33.0343,37.1202 -76.6726,70.75538 -129.75,97.34375 1.6562,-0.005 3.3423,-0.0199 5.0625,-0.0312 53.0493,-26.58349 96.6661,-60.2068 129.6875,-97.3125 13.2016,-18.58198 11.7964,-41.30335 -5.25,-58.78125 -20.2533,-25.06627 -47.337,-48.08617 -79.25,-67.78125 -26.9506,-15.70096 -60.4735,-29.28388 -98.5,-29.875 -0.166,0.008 -0.3341,-0.009 -0.5,0 z"
         style="opacity:0.08600003;fill:#000000;fill-opacity:1;fill-rule:evenodd;stroke:none"
         inkscape:connector-curvature="0" />
      <path
         id="path11751"
         d="m 1499,610.84375 c -0.1926,0.002 -0.3698,0.028 -0.5625,0.0312 -39.8042,2.02909 -73.8303,18.88981 -95.2813,39.15625 -18.3502,17.21121 -35.3308,37.01789 -31.7187,58.4375 3.3569,15.92032 23.1632,27.7248 41.9687,37.5 4.3231,2.12929 8.2535,4.5471 12.7813,6.5 -23.1962,18.37018 -44.1025,38.536 -54.8125,61.125 -27.7928,3.16691 -52.5392,19.36465 -49.9062,37.71875 2.7518,19.29381 32.9008,33.66915 63.0624,33.28125 1.7822,0.0812 3.5494,0.0566 5.3126,0 -0.1079,-0.004 -0.2046,0.005 -0.3126,0 -30.1617,0.3879 -60.3106,-13.98744 -63.0624,-33.28125 -2.633,-18.3541 22.1134,-34.55184 49.9062,-37.71875 10.71,-22.589 31.6163,-42.75482 54.8125,-61.125 -4.5278,-1.9529 -8.4582,-4.37071 -12.7813,-6.5 -18.8056,-9.7752 -38.6118,-21.57968 -41.9687,-37.5 -3.6121,-21.41961 13.3684,-41.22629 31.7187,-58.4375 21.3672,-20.18727 55.209,-36.98843 94.8126,-39.125 -1.3222,-0.038 -2.6418,-0.0768 -3.9688,-0.0625 z"
         style="opacity:0.08600003;fill:#000000;fill-opacity:1;fill-rule:evenodd;stroke:none"
         inkscape:connector-curvature="0" />
      <path
         id="path11749"
         d="m 1502.6562,617.125 c -0.1377,0.002 -0.2684,0.029 -0.4062,0.0312 7.1259,0.18998 14.2076,1.04135 21,2.34375 41.561,10.09685 74.0595,30.59258 99.8438,52.75 17.1978,16.91745 38.1258,33.17642 45.5937,53 6.214,16.3086 -5.7527,32.63637 -19.4375,46.0625 -39.3541,35.7235 -85.2869,69.8826 -145.0312,92.75 -15.6424,6.94087 -34.9529,11.71566 -54.3126,12.09375 21.0067,0.42919 42.3226,-4.55491 59.3126,-12.09375 59.7444,-22.8674 105.6771,-57.0265 145.0312,-92.75 13.6849,-13.42613 25.6515,-29.7539 19.4375,-46.0625 -7.4679,-19.82358 -28.396,-36.08255 -45.5937,-53 -25.7843,-22.15742 -58.2828,-42.65315 -99.8438,-52.75 -8.2535,-1.58256 -16.914,-2.48642 -25.5938,-2.375 z"
         style="opacity:0.194;fill:#000000;fill-opacity:1;fill-rule:evenodd;stroke:none"
         inkscape:connector-curvature="0" />
      <path
         id="path11747"
         d="m 1498.0625,623.375 c -0.2239,0.002 -0.4322,0.0273 -0.6563,0.0312 -34.7892,2.55217 -62.6066,18.69575 -80.375,36.46875 -14.9492,14.48547 -29.6393,31.15831 -25.4374,49.03125 6.6685,15.26473 29.607,24.14465 47.4374,34.03125 4.6142,2.58919 9.452,5.0459 14.0626,7.625 -27.2735,22.7166 -56.8703,46.133 -65.625,74.6875 -17.0684,-0.0231 -35.3897,4.7639 -42.9688,14.8125 -8.2478,9.91471 0.3664,22.59695 15.5625,27.65625 9.0687,3.05406 19.6168,4.43436 30.0313,4.1875 -8.749,-0.22511 -17.4111,-1.62126 -25.0313,-4.1875 -15.1961,-5.0593 -23.8103,-17.74154 -15.5625,-27.65625 7.5791,-10.0486 25.9004,-14.8356 42.9688,-14.8125 8.7546,-28.5545 38.3515,-51.9709 65.625,-74.6875 -4.6106,-2.5791 -9.4484,-5.03581 -14.0626,-7.625 -17.8303,-9.8866 -40.7689,-18.76652 -47.4374,-34.03125 -4.202,-17.87294 10.4882,-34.54578 25.4374,-49.03125 17.7256,-17.73012 45.4534,-33.82606 80.125,-36.4375 -1.3603,-0.0406 -2.7286,-0.0773 -4.0937,-0.0625 z"
         style="opacity:0.194;fill:#000000;fill-opacity:1;fill-rule:evenodd;stroke:none"
         inkscape:connector-curvature="0" />
      <path
         id="path11745"
         d="m 1501.9375,629.65625 c -0.074,0.002 -0.1447,0.0294 -0.2187,0.0312 9.0463,0.28744 17.8486,1.93653 26.125,4.21875 44.6883,15.4347 77.5345,41.26967 102.8124,68.5625 10.321,11.5929 23.4432,24.30973 19.4376,38.28125 -8.9903,18.026 -26.9611,33.64031 -45.6563,48.25 -35.2785,26.1451 -72.9046,52.66575 -122.2813,68.40625 -9.3824,3.64576 -20.6112,5.96051 -31.8124,6.28125 12.8223,0.32913 26.028,-2.09068 36.8124,-6.28125 49.3768,-15.7405 87.0028,-42.26115 122.2813,-68.40625 18.6952,-14.60969 36.6659,-30.224 45.6563,-48.25 4.0056,-13.97152 -9.1166,-26.68835 -19.4376,-38.28125 -25.2779,-27.29283 -58.1242,-53.1278 -102.8124,-68.5625 -9.7325,-2.68372 -20.1803,-4.49702 -30.9063,-4.25 z"
         style="opacity:0.43700005;fill:#000000;fill-opacity:1;fill-rule:evenodd;stroke:none"
         inkscape:connector-curvature="0" />
      <path
         id="path11743"
         d="m 1497.8438,635.90625 c -0.2819,0.002 -0.5616,0.026 -0.8438,0.0312 -29.6518,3.14944 -50.9008,18.43982 -66.1875,33.59375 -10.3123,10.83692 -21.0073,22.71024 -20.25,35.6875 4.0674,10.5349 20.5306,16.1467 31.9687,23.375 12.1158,6.50782 24.9849,12.55365 35.9063,19.78125 -2.2068,6.55932 -12.1663,10.57695 -17.2187,16.28125 -22.676,18.8059 -45.5122,38.7006 -54.4376,62 -0.8546,4.43795 0.06,8.9826 2.5,13.15625 2.5983,0.73215 5.0114,1.70252 7.125,3.03125 -3.9646,-4.9425 -5.6928,-10.64222 -4.625,-16.1875 8.9255,-23.2994 31.7615,-43.1941 54.4376,-62 5.0525,-5.7043 15.0119,-9.72193 17.2187,-16.28125 -10.9214,-7.2276 -23.7904,-13.27343 -35.9063,-19.78125 -11.4381,-7.2283 -27.9013,-12.8401 -31.9687,-23.375 -0.7573,-12.97726 9.9377,-24.85058 20.25,-35.6875 15.2023,-15.07024 36.2916,-30.29753 65.6875,-33.5625 -1.2133,-0.0453 -2.4348,-0.0721 -3.6562,-0.0625 z"
         style="opacity:0.43700005;fill:#000000;fill-opacity:1;fill-rule:evenodd;stroke:none"
         inkscape:connector-curvature="0" />
      <path
         id="path11737"
         d="m 1388.75,838.03125 c -3.9274,0.0277 -7.856,0.32787 -11.5312,0.71875 -8.947,0.94909 -18.7604,6.39605 -15.1876,12.53125 4.5567,6.8907 17.7909,8.18118 28.6563,7.9375 -9.6323,-0.25964 -19.783,-2.0804 -23.6563,-7.9375 -3.5728,-6.1352 6.2406,-11.58216 15.1876,-12.53125 3.0772,-0.32728 6.3114,-0.56587 9.5937,-0.65625 -1.0211,-0.0309 -2.0373,-0.0697 -3.0625,-0.0625 z"
         style="opacity:0.43700005;fill:#000000;fill-opacity:1;fill-rule:evenodd;stroke:none"
         inkscape:connector-curvature="0" />
      <path
         id="path11733"
         d="m 1419.7812,846.5625 c -9e-4,0.002 8e-4,0.0286 0,0.0312 -3e-4,0.003 2e-4,0.0277 0,0.0312 0.016,0.27846 0.4647,1.20096 0.4688,1.75 -4e-4,0.0234 0,0.0718 0,0.0937 0,0.0143 -0.029,0.049 -0.031,0.0625 0,0.0131 0,0.0502 0,0.0625 0,0.006 -0.029,0.0255 -0.031,0.0312 0,0.006 0,0.026 0,0.0312 -0.064,0.59701 -0.2129,1.17416 -0.4375,1.71875 7.7987,4.9526 18.9868,7.57159 30.125,7.125 -11.6361,-0.48626 -22.7653,-4.22568 -29.375,-10.375 -0.3119,-0.33266 -0.5241,-0.51163 -0.625,-0.5625 0,-10e-4 -0.028,9.3e-4 -0.031,0 0,1.1e-4 -0.029,-4.5e-4 -0.031,0 0,0.002 -0.03,-0.002 -0.031,0 z"
         style="opacity:0.43700005;fill:#000000;fill-opacity:1;fill-rule:evenodd;stroke:none"
         inkscape:connector-curvature="0" />
      <path
         id="path11731"
         d="m 1568.4062,858.34375 c 10.8942,0.0936 22.2129,0.63835 32.4376,2.8125 28.0339,4.9918 46.1987,23.48138 43.875,41.34375 -2.1447,23.7351 -41.2985,36.57313 -76,37.21875 35.8263,0.56122 78.7517,-12.33671 81,-37.21875 2.3236,-17.86237 -15.8411,-36.35195 -43.875,-41.34375 -11.7976,-2.5086 -25.0684,-2.82803 -37.4376,-2.8125 z"
         style="opacity:0.08600003;fill:#000000;fill-opacity:1;fill-rule:evenodd;stroke:none"
         inkscape:connector-curvature="0" />
      <path
         id="path11729"
         d="m 1419.125,858.40625 c -1.6162,0.10646 -2.9548,2.02258 -4.5,2.53125 -7.136,2.84389 -15.6122,4.40313 -24.1875,4.65625 10.2269,0.3168 20.6669,-1.26056 29.1875,-4.65625 0.8161,-0.26865 1.5691,-0.92795 2.3438,-1.5 -0.3975,-0.15064 -0.7957,-0.30956 -1.1876,-0.46875 -0.5865,-0.43262 -1.1397,-0.59652 -1.6562,-0.5625 z"
         style="opacity:0.43700005;fill:#000000;fill-opacity:1;fill-rule:evenodd;stroke:none"
         inkscape:connector-curvature="0" />
      <path
         id="path11727"
         d="m 1551.9375,864.625 c -27.8974,0.41531 -56.174,13.32766 -58.9375,31.40625 -2.8965,19.17598 25.0013,36.1722 54.6875,37 5.2845,0.28245 10.6844,0.43525 16.125,0.375 -3.7574,-0.0393 -7.4594,-0.17908 -11.125,-0.375 -29.6862,-0.8278 -57.584,-17.82402 -54.6875,-37 2.6987,-17.65487 29.7217,-30.37038 56.9688,-31.34375 -1.0181,-0.009 -2.0155,-0.0463 -3.0313,-0.0625 z"
         style="opacity:0.08600003;fill:#000000;fill-opacity:1;fill-rule:evenodd;stroke:none"
         inkscape:connector-curvature="0" />
      <path
         id="path11725"
         d="m 1424.9688,865.9375 c -0.6788,0.30238 -1.3638,0.59477 -2.0626,0.875 8.4803,2.3418 17.5884,3.27185 26.7188,3.09375 -8.5073,-0.22329 -16.874,-1.46811 -24.6562,-3.96875 z"
         style="opacity:0.194;fill:#000000;fill-opacity:1;fill-rule:evenodd;stroke:none"
         inkscape:connector-curvature="0" />
      <path
         id="path11721"
         d="m 1568.2188,871 c 9.8045,0.0456 19.5973,0.40634 28.75,2.625 24.4226,5.329 36.6937,26.41017 21,39.84375 -12.2162,9.64729 -31.9439,13.23935 -51.25,13.5625 20.8375,0.24273 42.9758,-3.07974 56.25,-13.5625 15.6937,-13.43358 3.4225,-34.51475 -21,-39.84375 -10.7154,-2.59746 -22.2793,-2.64186 -33.75,-2.625 z"
         style="opacity:0.194;fill:#000000;fill-opacity:1;fill-rule:evenodd;stroke:none"
         inkscape:connector-curvature="0" />
      <path
         id="path11719"
         d="m 1421.9375,873.3125 c -10.0738,2.47605 -21.1456,4.59471 -32.3125,4.90625 11.9712,0.28441 23.959,-1.76047 34.9062,-4.34375 -0.8693,-0.18311 -1.7315,-0.35592 -2.5937,-0.5625 z"
         style="opacity:0.194;fill:#000000;fill-opacity:1;fill-rule:evenodd;stroke:none"
         inkscape:connector-curvature="0" />
      <path
         id="path11717"
         d="m 1552.9688,877.21875 c -17.4539,0.51796 -36.4992,7.09876 -39.8126,18.5625 -3.1639,12.40567 14.8799,23.7206 34.0313,24.3125 6.0498,0.35258 12.3709,0.61728 18.6875,0.5625 -4.643,-0.0715 -9.2302,-0.30273 -13.6875,-0.5625 -19.1514,-0.5919 -37.1951,-11.90683 -34.0313,-24.3125 3.3134,-11.46374 22.3588,-18.04454 39.8126,-18.5625 -1.3166,0.002 -2.6254,0.008 -3.9376,0 -0.3462,0.006 -0.7148,-0.0103 -1.0624,0 z"
         style="opacity:0.194;fill:#000000;fill-opacity:1;fill-rule:evenodd;stroke:none"
         inkscape:connector-curvature="0" />
      <path
         id="path11715"
         d="m 1429.5312,880.5 c -1.038,0.0581 -2.0875,0.15575 -3.125,0.25 7.6376,1.24336 15.3872,1.74253 23.0938,1.625 -6.5838,-0.13266 -13.1514,-0.72724 -19.6562,-1.875 -0.1039,0.005 -0.2087,-0.006 -0.3126,0 z"
         style="opacity:0.08600003;fill:#000000;fill-opacity:1;fill-rule:evenodd;stroke:none"
         inkscape:connector-curvature="0" />
      <path
         id="path11713"
         d="m 1567.3438,883.5 c 4.4036,0.0495 8.8037,0.24006 13.125,0.78125 16.633,-0.64359 31.0913,12.27882 21.7812,21.5 -8.2739,6.22376 -20.6696,8.2832 -33.25,8.5625 14.2183,0.15948 28.8841,-1.5173 38.25,-8.5625 9.3101,-9.22118 -5.1482,-22.14359 -21.7812,-21.5 -5.9557,-0.74588 -12.0553,-0.80303 -18.125,-0.78125 z"
         style="opacity:0.43700005;fill:#000000;fill-opacity:1;fill-rule:evenodd;stroke:none"
         inkscape:connector-curvature="0" />
      <path
         id="path11711"
         d="m 1488.0312,883.6875 c -12.0116,2.88462 -25.1232,4.76206 -38.25,4.96875 12.652,0.21878 25.4086,-1.20607 37.3126,-3.65625 0.2891,-0.44013 0.6177,-0.87906 0.9374,-1.3125 z"
         style="opacity:0.08600003;fill:#000000;fill-opacity:1;fill-rule:evenodd;stroke:none"
         inkscape:connector-curvature="0" />
      <path
         id="path11709"
         d="m 1424.1875,887.15625 c -12.0784,0.2275 -24.0407,3.88155 -36.3125,3.78125 -0.3909,0.0146 -0.7964,0.0522 -1.1875,0.0625 2.0589,0.0414 4.1279,0.0146 6.1875,-0.0625 11.7683,0.0962 23.2676,-3.24257 34.8438,-3.71875 -1.1791,-0.0495 -2.3544,-0.0847 -3.5313,-0.0625 z"
         style="opacity:0.08600003;fill:#000000;fill-opacity:1;fill-rule:evenodd;stroke:none"
         inkscape:connector-curvature="0" />
      <path
         id="path11707"
         d="m 1565.0625,889.75 c -0.7112,10e-4 -1.4142,0.0225 -2.125,0.0312 -10.6716,0.0779 -25.1933,0.1639 -29.9687,7.375 -2.1997,6.1501 8.6889,10.3655 17.375,10.25 6.0828,0.31796 12.7331,0.75303 19.25,0.625 -4.874,-0.0857 -9.7214,-0.38828 -14.25,-0.625 -8.6862,0.1155 -19.5747,-4.0999 -17.375,-10.25 4.5516,-6.87308 17.9505,-7.28549 28.4374,-7.375 -0.4499,-0.003 -0.8937,-0.0321 -1.3437,-0.0312 z"
         style="opacity:0.43700005;fill:#000000;fill-opacity:1;fill-rule:evenodd;stroke:none"
         inkscape:connector-curvature="0" />
    </g>
    <g
       inkscape:label="#g1718"
       style="opacity:0.2"
       transform="matrix(1.344023,0,0,1.344023,-458.3754,-317.3448)"
       id="gbsd-logo-reflection">
      <path
         id="path1720"
         transform="translate(3.7615,15.0416)"
         d="m 855.03125,365.40625 c -40.36158,1.1688 -60.32073,39.85427 -56.40625,75.4375 -30.27209,18.56419 -49.02772,49.89612 -46.5625,60.25 L 757,520.9375 c 3.35158,14.07663 45.6989,31.30691 49.71875,33.75 0.21358,-0.14198 0.41172,-0.29693 0.625,-0.4375 L 807,554.90625 c -0.0396,-0.049 -0.13175,-0.12789 -0.28125,-0.21875 -31.03082,20.62755 -65.09613,56.00964 -57.5,80.40625 L 752.75,650 c 22.86772,79.47685 197.75402,-38.00971 229.25,-90.40625 48.108,0.72643 98.853,-46.37443 58.8438,-102.46875 3.8909,20.86916 9.1779,74.04579 -57.31255,65.65625 -11.81596,-38.4572 -92.28096,-97.28104 -139.3125,-96.15625 -4.66757,0.11163 -9.21861,0.6072 -13.65625,1.46875 -13.85579,-47.11574 24.5339,-57.77659 51.3125,-58.46875 -9.75864,-3.1418 -18.71193,-4.45423 -26.84375,-4.21875 z m 5.84375,142 c 5.06632,-0.17302 12.59706,2.55833 13.5,5.71875 -5.31818,3.90009 -14.54831,4.25683 -18.09375,-2.125 -0.38641,-2.44721 1.70315,-3.49503 4.59375,-3.59375 z"
         style="fill:url(#radialGradient5295);fill-opacity:1;fill-rule:evenodd;stroke:none"
         inkscape:connector-curvature="0" />
      <path
         sodipodi:nodetypes="csssssssssscccssss"
         id="path1730"
         d="m 753.949,779.17771 c -32.69123,0.64259 -53.27798,-29.07277 -58.41234,-46.77323 -6.12005,-21.09859 -6.30039,-40.192 11.34984,-53.60177 25.20406,-19.1488 43.05056,-16.79594 56.4375,-14.78125 4.68313,0.70479 7.80221,11.82289 2.1875,13.71875 -9.1122,3.07681 -31.44326,-3.83106 -50.875,10.5 -13.29886,9.80801 -12.80047,23.01908 -6.76736,40.06842 5.75266,16.2568 20.53284,41.89396 44.73611,42.05658 45.12449,0.30319 74.97982,-12.97891 85.40625,-26.21875 30.90806,-39.24812 134.04236,-42.57306 128.59375,15 -4.64621,49.09456 -60.39122,68.03757 -73.375,30.125 -3.9202,-11.44695 -15.23521,-4.03646 -15.9375,-3.5625 l 12.375,-23.375 24.78125,23 c -1.11831,-0.58384 -18.95992,-9.71857 -14.5,2.875 12.27972,34.67465 56.65567,4.43606 59.9375,-29.4375 4.60767,-47.55838 -85.42986,-46.81689 -116.0625,-9.4375 -17.92012,21.86697 -56.23317,29.19244 -89.875,29.84375 z"
         style="fill:#000000;fill-opacity:1;fill-rule:evenodd;stroke:none"
         inkscape:connector-curvature="0" />
    </g>
    <g
       id="gbsd-logo-shadow"
       style="opacity:0.77198696"
       transform="matrix(1.713436,0,0,1.713436,-818.619,-595.4704)"
       inkscape:label="#g4801">
      <path
         transform="matrix(0.29519,0.460459,-1.047167,0.671315,1259.881,-211.1182)"
         d="m 1057.4737,614.65271 a 112.98734,116.27823 0 1 1 -225.97471,0 112.98734,116.27823 0 1 1 225.97471,0 z"
         sodipodi:ry="116.27823"
         sodipodi:rx="112.98734"
         sodipodi:cy="614.65271"
         sodipodi:cx="944.48633"
         id="path3033"
         style="fill:url(#radialGradient3914);fill-opacity:1;stroke:none"
         sodipodi:type="arc" />
      <path
         sodipodi:type="arc"
         style="fill:url(#radialGradient3918);fill-opacity:1;stroke:none"
         id="path3916"
         sodipodi:cx="944.48633"
         sodipodi:cy="614.65271"
         sodipodi:rx="112.98734"
         sodipodi:ry="116.27823"
         d="m 1057.4737,614.65271 a 112.98734,116.27823 0 1 1 -225.97471,0 112.98734,116.27823 0 1 1 225.97471,0 z"
         transform="matrix(0.246271,-0.38415,-0.873629,-0.560062,1213.932,1255.904)" />
      <path
         transform="matrix(-0.109078,-0.170147,0.386947,-0.248063,736.7227,798.6676)"
         d="m 1057.4737,614.65271 a 112.98734,116.27823 0 1 1 -225.97471,0 112.98734,116.27823 0 1 1 225.97471,0 z"
         sodipodi:ry="116.27823"
         sodipodi:rx="112.98734"
         sodipodi:cy="614.65271"
         sodipodi:cx="944.48633"
         id="path3920"
         style="opacity:0.5;fill:url(#radialGradient3922);fill-opacity:1;stroke:none"
         sodipodi:type="arc" />
      <path
         sodipodi:type="arc"
         style="opacity:0.63517917;fill:url(#radialGradient4799);fill-opacity:1;stroke:none"
         id="path4797"
         sodipodi:cx="944.48633"
         sodipodi:cy="614.65271"
         sodipodi:rx="112.98734"
         sodipodi:ry="116.27823"
         d="m 1057.4737,614.65271 a 112.98734,116.27823 0 1 1 -225.97471,0 112.98734,116.27823 0 1 1 225.97471,0 z"
         transform="matrix(-0.109078,-0.170147,0.386947,-0.248063,888.3422,897.1118)" />
      <path
         transform="matrix(-0.00488745,-0.09481795,0.61549,-0.00389354,517.0844,815.183)"
         d="m 1057.4737,614.65271 a 112.98734,116.27823 0 1 1 -225.97471,0 112.98734,116.27823 0 1 1 225.97471,0 z"
         sodipodi:ry="116.27823"
         sodipodi:rx="112.98734"
         sodipodi:cy="614.65271"
         sodipodi:cx="944.48633"
         id="path3209"
         style="opacity:0.63517917;fill:url(#radialGradient3251);fill-opacity:1;stroke:none"
         sodipodi:type="arc" />
      <path
         sodipodi:type="arc"
         style="opacity:0.61889248;fill:url(#radialGradient3249);fill-opacity:1;stroke:none"
         id="path3233"
         sodipodi:cx="944.48633"
         sodipodi:cy="614.65271"
         sodipodi:rx="112.98734"
         sodipodi:ry="116.27823"
         d="m 1057.4737,614.65271 a 112.98734,116.27823 0 1 1 -225.97471,0 112.98734,116.27823 0 1 1 225.97471,0 z"
         transform="matrix(0.03830277,-0.195896,-0.561817,-0.120592,1137.045,960.2644)" />
    </g>
    <g
       id="gbsd-logo"
       transform="matrix(1.344023,0,0,1.344023,-463.7515,-350.1359)">
      <path
         sodipodi:nodetypes="cccss"
         id="horn-right"
         d="m 805.96278,472.1474 c -15.53187,-45.64938 13.94243,-108.65848 79.68482,-87.49264 -29.65634,0.76654 -73.58148,13.76644 -44.97818,74.95989 -9.49261,0.89136 -17.96569,2.56523 -22.42111,7.87907 -6.77286,8.07777 -10.5694,9.69754 -12.28553,4.65368 z"
         style="fill:url(#horn-right-gradient);fill-opacity:1;fill-rule:evenodd;stroke:none"
         inkscape:connector-curvature="0" />
      <path
         sodipodi:nodetypes="cccscccccccc"
         d="m 810.76574,570.01333 c 0.70911,-0.70911 -46.44568,-19.14553 -49.99115,-34.03651 l -4.96366,-19.85465 c -3.54547,-14.89098 36.85305,-73.13167 92.18225,-74.4549 48.91865,-1.16992 134.01192,62.5264 140.40069,100.69138 l 2.12728,17.37281 c 5.33003,38.17561 -208.54249,193.78208 -234.00112,105.30052 L 752.97456,650.141 c -7.6484,-24.56451 26.94558,-60.27303 58.14572,-80.83673 m 48.92754,-43.25477 c -1.06366,-6.73641 16.66375,-2.83638 18.08187,2.12723 -5.31821,3.90009 -14.53643,4.2546 -18.08187,-2.12723 z"
         style="fill:url(#g-shape-gradient);fill-opacity:1;fill-rule:evenodd;stroke:none"
         id="g-shape"
         inkscape:connector-curvature="0" />
      <path
         sodipodi:nodetypes="cccss"
         id="horn-left"
         d="m 985.40987,574.6225 c 48.20983,0.95781 99.31433,-46.23557 59.20933,-102.46412 3.9001,20.91828 9.1947,74.29141 -57.79115,65.59122 2.02916,9.31593 3.00348,17.89765 -0.70909,23.75465 -5.64363,8.90346 -6.03586,13.01242 -0.70909,13.11825 z"
         style="fill:url(#horn-left-gradient);fill-opacity:1;fill-rule:evenodd;stroke:none"
         inkscape:connector-curvature="0" />
      <path
         sodipodi:nodetypes="cssssccsc"
         d="m 823.88394,558.66786 c -47.09394,33.32743 -78.55783,66.90866 -70.90943,91.47317 23.6859,76.07242 242.52204,-65.35221 235.4193,-107.78234 -6.38876,-38.16498 -91.48201,-101.8613 -140.40066,-100.69138 -55.32922,1.32323 -95.72773,59.56392 -92.18226,74.4549 3.54547,14.89098 68.78214,41.83656 68.07305,42.54565 z m 33.32743,-51.05479 c -13.19681,10.06945 9.80114,30.0053 21.98192,19.85464 12.7637,-10.63641 -10.74564,-28.42815 -21.98192,-19.85464 z"
         style="fill:url(#g-bevel-exterior-gradient);fill-opacity:1;fill-rule:evenodd;stroke:none"
         id="g-bevel-exterior"
         inkscape:connector-curvature="0" />
      <path
         sodipodi:nodetypes="cccccccccccccccccccc"
         id="g-top"
         d="m 842.65278,452.11508 c -24.20881,3.77144 -45.86144,17.85885 -61.79793,36.10709 -6.1126,6.95906 -11.97134,14.84098 -14.16158,23.92217 1.31653,6.30105 8.11353,8.86244 12.94016,12.04582 17.40429,10.32511 35.75071,18.93439 53.27817,29.04398 5.34258,3.38039 3.24746,8.12645 -6.17099,15.80895 -22.9048,18.47669 -46.68786,37.27534 -61.87769,62.97364 -3.43354,8.15553 0.23876,18.55979 8.36919,22.30978 11.89718,8.08392 27.38618,6.77555 40.48545,2.68838 27.93435,-7.18512 53.54936,-20.98189 77.94463,-36.04934 29.43465,-18.12505 58.01479,-38.55866 80.844,-64.77414 3.64499,-4.25382 7.53198,-10.31402 4.34319,-15.9213 -4.46715,-9.09149 -11.5552,-16.58971 -18.2697,-24.05866 -18.01609,-18.99347 -39.13238,-35.01427 -61.91425,-47.84769 -16.49427,-9.19143 -34.74366,-17.05909 -54.01265,-16.24868 z m 22.19022,38.94701 c 12.61884,1.63457 27.19974,13.42274 28.24079,26.63753 -0.22965,12.48454 -12.01371,21.46666 -23.72869,19.0761 -13.14226,-2.33647 -31.44941,-17.44165 -28.67755,-31.11235 2.04417,-9.47773 14.92372,-15.32322 24.16545,-14.60128 z"
         style="fill:url(#g-top-gradient);fill-opacity:1;fill-rule:evenodd;stroke:none"
         inkscape:connector-curvature="0" />
      <path
         sodipodi:nodetypes="cssscccsssss"
         id="tail-shape-end"
         d="m 743.43144,630.89165 c 33.84816,0.31197 74.41167,17.21132 98.38683,60.37686 33.56629,60.43367 122.67187,51.10385 118.0642,3.54547 -3.28183,-33.87354 -47.63875,-64.10206 -59.91847,-29.42741 -4.60377,12.99981 14.53643,2.83638 14.53643,2.83638 l -24.8183,23.04556 -12.40915,-23.40011 c 0,0 11.90796,8.27073 15.95462,-3.54548 12.98381,-37.91258 68.74505,-18.95805 73.39126,30.13651 5.44861,57.57308 -96.36021,62.98178 -132.60063,0 -12.31299,-21.3667 -34.42727,-50.09498 -89.74344,-54.17228 -4.95048,-0.36142 -5.46355,-9.43808 -0.84335,-9.3955 z"
         style="fill:#000000;fill-opacity:1;fill-rule:evenodd;stroke:none"
         inkscape:connector-curvature="0" />
      <path
         sodipodi:nodetypes="csssssc"
         id="tail-shape-start"
         d="m 764.52699,670.35023 c 6.0273,2.48183 7.80004,6.38185 7.80004,9.21822 0,2.83638 -24.89207,19.24198 -54.95481,9.21823 -35.20698,-11.73899 -12.0987,-60.93546 26.41377,-57.96846 5.31978,0.41365 5.62445,9.85734 -0.17728,9.3955 -28.40688,-2.2331 -45.07964,32.52961 -21.98192,38.64564 23.34044,6.1803 35.80926,-11.34551 42.9002,-8.50913 z"
         style="fill:#000000;fill-opacity:1;fill-rule:evenodd;stroke:none"
         inkscape:connector-curvature="0" />
      <path
         d="m 857.21139,507.61304 c -13.19681,10.06944 9.80114,30.00529 21.98192,19.85464 12.7637,-10.63642 -10.74563,-28.42816 -21.98192,-19.85464 z m 7.63163,-16.55099 c 12.61885,1.63457 27.19974,13.42275 28.24079,26.63754 -0.22964,12.48454 -12.01371,21.46666 -23.72869,19.07609 -13.14226,-2.33647 -31.44941,-17.44165 -28.67755,-31.11235 2.04418,-9.47773 14.92372,-15.32321 24.16545,-14.60128 z"
         style="fill:url(#g-bevel-interior-gradient);fill-opacity:1;fill-rule:evenodd;stroke:none"
         id="g-bevel-interior"
         inkscape:connector-curvature="0" />
      <path
         id="g-bevel-exterior-additional-hilight"
         d="m 826.11629,549.39621 -17.7606,1.72177 c 8.66482,4.14118 15.03415,6.99914 15.51144,7.49202 0.002,0.002 -0.002,0.0136 0,0.0155 0.003,0.004 0.0136,0.0122 0.0155,0.0155 5.5e-4,0.001 -3.5e-4,0.0141 0,0.0155 -2.7e-4,10e-4 4.8e-4,0.0145 0,0.0155 -5.01326,3.62497 -9.8619,7.25447 -14.51871,10.87351 l 18.97049,-1.83035 c 8.05108,-6.90937 9.60369,-11.30645 4.57588,-14.48768 -2.25251,-1.29922 -4.51819,-2.57484 -6.79401,-3.83132 z"
         style="fill:url(#g-bevel-exterior-additional-hilight-gradient);fill-opacity:1;fill-rule:evenodd;stroke:none"
         inkscape:connector-curvature="0" />
      <path
         id="tail-hilight1"
         d="m 711.30727,669.88684 c 0.1178,8.93292 11.58893,16.15153 25.70245,16.14741 14.02644,-0.004 25.43687,-7.13551 25.68694,-15.9923 -7.34961,0.15083 -19.6181,14.49189 -41.07429,8.8105 -5.7954,-1.53456 -9.08433,-4.86104 -10.3151,-8.96561 z"
         style="fill:url(#tail-hilight1-gradient);fill-opacity:1;stroke:none"
         inkscape:connector-curvature="0" />
      <path
         id="tail-hilight2"
         d="m 893.69075,663.0463 c -0.15944,0.4185 -0.31694,0.83861 -0.46534,1.27193 -3.63041,10.60074 -13.59436,5.0421 -15.60451,3.78479 0.20291,0.36668 0.43415,0.73035 0.6825,1.08581 3.17899,4.54977 8.89513,6.30625 12.76592,3.90888 3.17525,-1.96661 4.13793,-6.11296 2.62143,-10.05141 z"
         style="fill:url(#tail-hilight2-gradient);fill-opacity:1;stroke:none"
         inkscape:connector-curvature="0" />
      <path
         id="tail-hilight3"
         d="m 739.78627,630.68944 c -32.13645,0.50726 -51.77257,37.25778 -31.62782,53.26627 2.54906,-2.08063 5.42199,-4.50365 8.50026,-7.1973 -15.27137,-9.56575 0.90515,-38.59185 26.94337,-36.54495 0.003,2.2e-4 0.0124,-8e-5 0.0155,0 0.0132,-6e-5 0.0334,1.4e-4 0.0465,0 0.003,5e-5 0.0127,-1.9e-4 0.0155,0 10e-4,1.1e-4 0.0142,3e-5 0.0155,0 0.001,-4e-5 0.0142,-1e-4 0.0155,0 0.009,5.2e-4 0.0233,-0.001 0.031,0 0.007,0.002 0.0236,0.0139 0.031,0.0155 0.008,10e-4 0.0226,-3.5e-4 0.031,0 10e-4,-1.3e-4 0.0142,4e-5 0.0155,0 0.14602,0.0278 0.29513,0.0507 0.44983,0.062 1.93407,0.14255 3.82328,0.32594 5.67719,0.52739 2.04443,-3.04727 3.84332,-6.11816 5.33593,-9.15175 -3.6848,-0.44491 -7.32059,-0.69422 -10.88903,-0.76006 -0.19243,-0.0426 -0.39714,-0.0769 -0.60494,-0.0931 -1.35396,-0.10431 -2.68794,-0.14484 -4.00195,-0.12409 z"
         style="fill:url(#tail-hilight3-gradient);fill-opacity:1;fill-rule:evenodd;stroke:none"
         inkscape:connector-curvature="0" />
      <path
         id="tail-hilight4"
         d="m 953.58041,661.88294 -5.46003,5.46002 c 6.24592,7.7884 10.78887,17.47117 11.75767,27.47076 3.12561,32.26109 -36.86889,46.9362 -73.40012,34.1717 l -4.87059,4.85508 c 41.56501,15.19817 88.77385,0.301 85.01819,-39.38354 -1.251,-13.21881 -6.21556,-24.24703 -13.04512,-32.57402 z"
         style="fill:url(#tail-hilight4-gradient);fill-opacity:1;fill-rule:evenodd;stroke:none"
         inkscape:connector-curvature="0" />
      <path
         id="tail-hilight5"
         d="m 919.26911,644.23092 c -11.10153,0.23163 -21.05139,6.32774 -25.79552,19.42032 l 6.66992,1.24092 c 6.74424,-18.23525 22.59196,-17.94006 36.29676,-8.51578 l 4.82406,-5.47554 c -6.88655,-4.37081 -14.38841,-6.6972 -21.45232,-6.66992 -0.17978,7e-4 -0.36369,-0.004 -0.5429,0 z"
         style="fill:url(#tail-hilight5-gradient);fill-opacity:1;fill-rule:evenodd;stroke:none"
         inkscape:connector-curvature="0" />
    </g>
    <!--hallodri-->
  </g>
</svg>
