<?xml version="1.0" encoding="UTF-8" standalone="no"?>
<!-- Created with Inkscape (http://www.inkscape.org/) -->

<svg
   xmlns:dc="http://purl.org/dc/elements/1.1/"
   xmlns:cc="http://creativecommons.org/ns#"
   xmlns:rdf="http://www.w3.org/1999/02/22-rdf-syntax-ns#"
   xmlns:svg="http://www.w3.org/2000/svg"
   xmlns="http://www.w3.org/2000/svg"
   xmlns:sodipodi="http://sodipodi.sourceforge.net/DTD/sodipodi-0.dtd"
   xmlns:inkscape="http://www.inkscape.org/namespaces/inkscape"
   width="1280"
   height="960"
   id="svg2"
   version="1.1"
   inkscape:version="0.48.3.1 r9886"
   inkscape:export-filename="gentoo-cow-gdm-remake-XxY.png"
   inkscape:export-xdpi="112.5"
   inkscape:export-ydpi="112.5"
   sodipodi:docname="gentoo-cow-gdm-remake.svg">
  <title
     id="title3019">Remake of &quot;gentoo-cow&quot; GDM 2.x background v1.0</title>
  <defs
     id="defs4">
    <inkscape:perspective
       sodipodi:type="inkscape:persp3d"
       inkscape:vp_x="0 : 0.5 : 1"
       inkscape:vp_y="0 : 1000 : 0"
       inkscape:vp_z="1 : 0.5 : 1"
       inkscape:persp3d-origin="0.5 : 0.33333333 : 1"
       id="perspective4104" />
    <inkscape:perspective
       id="perspective4094"
       inkscape:persp3d-origin="372.04724 : 350.78739 : 1"
       inkscape:vp_z="744.09448 : 526.18109 : 1"
       inkscape:vp_y="0 : 1000 : 0"
       inkscape:vp_x="0 : 526.18109 : 1"
       sodipodi:type="inkscape:persp3d" />
  </defs>
  <sodipodi:namedview
     id="base"
     pagecolor="#ffffff"
     bordercolor="#666666"
     borderopacity="1.0"
     inkscape:pageopacity="0"
     inkscape:pageshadow="2"
     inkscape:zoom="0.24748737"
     inkscape:cx="-266.2545"
     inkscape:cy="1159.4979"
     inkscape:document-units="px"
     inkscape:current-layer="layer1"
     showgrid="false"
     fit-margin-top="0"
     fit-margin-left="0"
     fit-margin-right="0"
     fit-margin-bottom="0"
     borderlayer="true"
     inkscape:window-width="1920"
     inkscape:window-height="1024"
     inkscape:window-x="0"
     inkscape:window-y="0"
     inkscape:window-maximized="1" />
  <metadata
     id="metadata7">
    <rdf:RDF>
      <cc:Work
         rdf:about="">
        <dc:format>image/svg+xml</dc:format>
        <dc:type
           rdf:resource="http://purl.org/dc/dcmitype/StillImage" />
        <dc:title>Remake of &quot;gentoo-cow&quot; GDM 2.x background v1.0</dc:title>
        <dc:date>2012-06-24</dc:date>
        <dc:creator>
          <cc:Agent>
            <dc:title>Sebastian Pipping</dc:title>
          </cc:Agent>
        </dc:creator>
        <dc:contributor>
          <cc:Agent>
            <dc:title>Ethan Dunham of Fonthead Design Inc. for the original head of Larry</dc:title>
          </cc:Agent>
        </dc:contributor>
        <dc:subject>
          <rdf:Bag>
            <rdf:li>Larry gentoo-cow gentoo-cow-alpha Gentoo Linux Background Wallpaper GDM Theme</rdf:li>
          </rdf:Bag>
        </dc:subject>
        <cc:license
           rdf:resource="http://creativecommons.org/licenses/by-sa/3.0/" />
      </cc:Work>
      <cc:License
         rdf:about="http://creativecommons.org/licenses/by-sa/3.0/">
        <cc:permits
           rdf:resource="http://creativecommons.org/ns#Reproduction" />
        <cc:permits
           rdf:resource="http://creativecommons.org/ns#Distribution" />
        <cc:requires
           rdf:resource="http://creativecommons.org/ns#Notice" />
        <cc:requires
           rdf:resource="http://creativecommons.org/ns#Attribution" />
        <cc:permits
           rdf:resource="http://creativecommons.org/ns#DerivativeWorks" />
        <cc:requires
           rdf:resource="http://creativecommons.org/ns#ShareAlike" />
      </cc:License>
    </rdf:RDF>
  </metadata>
  <g
     inkscape:label="Layer 1"
     inkscape:groupmode="layer"
     id="layer1"
     transform="translate(360.22473,-291.71936)">
    <rect
       style="color:#000000;fill:#000000;fill-opacity:1;fill-rule:nonzero;stroke:none;stroke-width:1.77165353;marker:none;visibility:visible;display:inline;overflow:visible;enable-background:accumulate"
       id="rect3924"
       width="2624.894"
       height="1853.5715"
       x="-802.97668"
       y="-337.56635" />
    <rect
       style="color:#000000;fill:#254351;fill-opacity:1;fill-rule:nonzero;stroke:none;stroke-width:1.77165353;marker:none;visibility:visible;display:inline;overflow:visible;enable-background:accumulate"
       id="rect3879"
       width="1600"
       height="900"
       x="-680.22473"
       y="291.71936" />
    <rect
       y="291.71936"
       x="-616.22473"
       height="960"
       width="1536"
       id="rect3877"
       style="color:#000000;fill:#254351;fill-opacity:1;fill-rule:nonzero;stroke:none;stroke-width:1.77165353;marker:none;visibility:visible;display:inline;overflow:visible;enable-background:accumulate" />
    <rect
       style="color:#000000;fill:#254351;fill-opacity:1;fill-rule:nonzero;stroke:none;stroke-width:1.77165353;marker:none;visibility:visible;display:inline;overflow:visible;enable-background:accumulate"
       id="rect3862"
       width="1280"
       height="960"
       x="-360.22473"
       y="291.71936" />
    <rect
       style="color:#000000;fill:#1c343f;fill-opacity:1;fill-rule:nonzero;stroke:none;stroke-width:1.77165353;marker:none;visibility:visible;display:inline;overflow:visible;enable-background:accumulate"
       id="rect3864"
       width="225"
       height="225"
       x="-764.09924"
       y="-303.73422" />
    <rect
       style="color:#000000;fill:#254351;fill-opacity:1;fill-rule:nonzero;stroke:none;stroke-width:1.77165353;marker:none;visibility:visible;display:inline;overflow:visible;enable-background:accumulate"
       id="rect3866"
       width="225"
       height="225"
       x="-503.65683"
       y="-303.73422" />
    <rect
       style="color:#000000;fill:#7c8e96;fill-opacity:1;fill-rule:nonzero;stroke:none;stroke-width:1.77165353;marker:none;visibility:visible;display:inline;overflow:visible;enable-background:accumulate"
       id="rect3868"
       width="225"
       height="225"
       x="-243.21442"
       y="-303.73422" />
    <flowRoot
       xml:space="preserve"
       id="flowRoot3884"
       style="font-size:40px;font-style:normal;font-weight:normal;line-height:125%;letter-spacing:0px;word-spacing:0px;fill:#000000;fill-opacity:1;stroke:none;font-family:Sans"
       transform="matrix(1.25,0,0,1.25,-53.081864,387.46237)"><flowRegion
         id="flowRegion3886"><rect
           id="rect3888"
           width="282.85715"
           height="111.42857"
           x="-274.28571"
           y="-143.42857" /></flowRegion><flowPara
         id="flowPara3890"
         style="fill:#ffffff">4:3</flowPara></flowRoot>    <flowRoot
       xml:space="preserve"
       id="flowRoot3908"
       style="font-size:40px;font-style:normal;font-weight:normal;line-height:125%;letter-spacing:0px;word-spacing:0px;fill:#000000;fill-opacity:1;stroke:none;font-family:Sans"
       transform="matrix(1.25,0,0,1.25,-311.47351,335.46237)"><flowRegion
         id="flowRegion3910"><rect
           id="rect3912"
           width="282.85715"
           height="111.42857"
           x="-274.28571"
           y="-143.42857" /></flowRegion><flowPara
         id="flowPara3914"
         style="fill:#ffffff">8:5</flowPara></flowRoot>    <flowRoot
       transform="matrix(1.25,0,0,1.25,-407.23718,387.46237)"
       style="font-size:40px;font-style:normal;font-weight:normal;line-height:125%;letter-spacing:0px;word-spacing:0px;fill:#000000;fill-opacity:1;stroke:none;font-family:Sans"
       id="flowRoot3926"
       xml:space="preserve"><flowRegion
         id="flowRegion3928"><rect
           y="-143.42857"
           x="-274.28571"
           height="111.42857"
           width="282.85715"
           id="rect3930" /></flowRegion><flowPara
         style="fill:#ffffff"
         id="flowPara3932">16:9</flowPara></flowRoot>    <rect
       style="color:#000000;fill:#254351;fill-opacity:1;fill-rule:nonzero;stroke:none;stroke-width:1.77165353;marker:none;visibility:visible;display:inline;overflow:visible;enable-background:accumulate"
       id="rect3021"
       width="1200"
       height="960"
       x="-280.22473"
       y="291.71936" />
    <g
       id="g3021"
       transform="matrix(16.324775,0,0,16.324775,-215.64151,-394.36132)">
      <path
         style="fill:#7c8e96;fill-opacity:1;stroke:none"
         d="m 31.071428,31.39286 c -6.229906,-0.351549 -13.692098,-0.484955 -18.061119,4.790655 -6.9288015,4.040118 -0.440418,12.066014 5.903011,10.329211 6.222688,1.330854 11.227788,-6.211598 17.024659,-3.3799 4.31082,4.174611 2.886711,10.786495 4.445887,16.09303 1.074783,7.723036 2.258524,15.628933 6.36398,22.424154 2.932521,6.158951 7.903315,13.305018 15.588528,12.854902 5.767912,-0.265766 11.482579,-2.52759 16.126035,-5.846498 3.859587,-4.590697 5.859254,-10.87569 5.683567,-16.829462 -1.334381,-5.87897 -3.29365,-11.627859 -3.489001,-17.723492 -1.717351,-5.258212 -0.513502,-12.584986 6.743586,-11.503702 5.273735,0.475974 10.65501,0.366531 15.608819,-1.740435 3.99762,-1.194195 8.8933,-5.00351 6.75039,-9.675282 -3.74092,-5.457558 -11.625472,-3.959958 -16.97949,-2.197174 -5.662579,1.571637 -9.585011,9.609529 -16.001335,6.992922 -6.666191,-4.260177 0.530597,-10.281796 1.078716,-15.527302 1.755436,-3.964867 -3.675971,-6.210499 -3.775606,-1.408342 -2.399892,6.763144 -8.818818,12.263196 -16.244271,11.936758 -5.81475,-0.208188 -8.016278,-6.632964 -8.84231,-11.455952 0.02883,-4.731646 -5.238703,-4.137809 -4.78549,0.442052 0.259833,5.064208 3.291665,12.433998 -3.838622,14.527133 C 36.960421,35.495328 33.324851,34.024 31.071428,31.39286 z"
         id="path2984"
         inkscape:connector-curvature="0" />
      <g
         transform="translate(-301.25,-430.125)"
         id="layer1-4"
         inkscape:label="Layer 1">
        <path
           style="font-size:144px;font-style:normal;font-variant:normal;font-weight:normal;font-stretch:normal;text-align:start;line-height:125%;letter-spacing:0px;word-spacing:0px;writing-mode:lr-tb;text-anchor:start;fill:#1c343f;fill-opacity:1;stroke:none;font-family:Font Heads;-inkscape-font-specification:Font Heads"
           d="m 362.152,532.16961 c 6.19195,-0.10663 19.40651,-1.39935 25.632,-9.05061 2.30492,-10.50853 -0.80949,-21.14145 -2.09685,-31.57691 -0.85381,-5.51693 -1.58388,-11.07259 -1.64715,-16.66309 8.14526,0.24619 17.22283,1.91753 24.31255,-3.23015 4.32712,-1.64269 10.02471,-7.3354 5.12235,-11.47595 -5.98598,-5.82476 -15.61833,-5.73515 -22.70951,-2.043 -2.99742,1.93622 -7.84038,3.01056 -9.16484,6.27279 -3.14384,1.7024 -4.42858,-4.1958 -1.88413,-6.32054 2.7849,-6.07887 2.31293,-13.35563 -0.23328,-19.43811 -1.68742,-4.07004 -4.69317,-2.88286 -3.74728,1.20426 -0.89143,7.19055 -4.7679,13.63342 -9.40786,19.0467 -4.35505,-1.61357 -11.97031,0.88436 -13.71439,-4.21942 -1.57119,-4.66421 -0.96778,-12.10647 -5.96109,-14.30332 -3.79029,4.36489 -1.72503,11.55272 -1.56706,17.04721 0.32039,4.73868 -7.75964,6.69454 -10.71719,2.87968 -9.03907,-4.10935 -21.43274,-0.67977 -26.6966,7.53921 -2.79978,4.18641 1.03071,6.77926 5.08786,8.2584 2.74379,1.0641 8.68516,2.29208 17.06411,-0.78511 9.91206,-5.29599 7.861,3.1341 8.75644,8.96865 1.40015,16.5028 3.41404,24.64166 13.32653,37.26231 2.99807,4.00781 6.58088,9.47804 10.24539,10.627 z M 409.24,462.495 c -6.96113,0.009 -13.62903,2.60544 -20.592,2.592 5.65755,-4.41805 14.2184,-7.32823 20.592,-2.592 z m 0.576,2.736 c -7.17734,6.02769 -17.03873,6.12045 -25.92,6.48 6.97595,-6.92372 17.76641,-2.59306 25.92,-6.48 z m -97.92643,7.25134 c -1.5205,-2.86932 12.14079,-3.04631 18.12729,-2.46524 2.2832,-0.6198 4.68169,0.62024 1.10314,1.3519 -6.83504,3.48807 -18.30681,2.95886 -19.23043,1.11334 z M 319.96,465.663 c 4.25544,-3.76156 14.97946,-0.47254 15.42165,1.27789 -5.02632,-1.39056 -10.29753,-0.6976 -15.42165,-1.27789 z m 57.744,-16.272 c 0.26969,3.20436 -3.16523,11.02532 -4.99828,9.38945 1.24075,-2.95434 4.74746,-8.03041 4.99828,-9.38945 z m -29.664,-2.016 c 0.6444,3.12372 5.6941,11.67089 0.20637,11.15734 -0.44183,-3.63612 -0.0986,-7.45691 -0.20637,-11.15734 z m 8.63657,72.65525 c -4.38251,-2.31695 -6.59244,-7.53479 -8.64315,-11.79963 -3.69595,-9.83226 -4.44983,-18.55049 -6.2044,-31.08268 -0.75965,-6.06084 -1.68017,-11.63175 4.89103,-12.56765 6.35767,-2.32296 12.97719,-2.4352 19.43402,-0.5805 7.03706,-0.1786 9.87207,6.44391 10.42107,12.46101 2.06081,11.83223 3.84352,23.71038 5.73686,35.5702 -15.61868,0.038 -16.91758,3.06529 -19.85216,5.1093 -2.287,1.91583 -3.41956,4.09406 -5.78327,2.88995 z m 11.98591,-38.91265 c -0.42038,2.06851 3.36201,3.07135 3.16049,0.012 -0.1327,-1.3766 -2.64602,-1.74834 -3.16049,-0.012 z m -13.07252,7.14613 c -4.59914,-2.37049 -9.19228,5.27537 -2.299,5.99395 3.35813,0.16305 5.14933,-3.79128 2.299,-5.99395 z"
           id="path3764"
           inkscape:connector-curvature="0"
           sodipodi:nodetypes="cccccccccccccccccccccccccccccccccccccccccccccccccccccccc" />
      </g>
    </g>
    <flowRoot
       transform="matrix(1.25,0,0,1.25,23.212591,335.13278)"
       style="font-size:40px;font-style:normal;font-weight:normal;line-height:125%;letter-spacing:0px;word-spacing:0px;fill:#000000;fill-opacity:1;stroke:none;font-family:Sans"
       id="flowRoot3023"
       xml:space="preserve"><flowRegion
         id="flowRegion3025"><rect
           y="-143.42857"
           x="-274.28571"
           height="111.42857"
           width="282.85715"
           id="rect3027" /></flowRegion><flowPara
         style="fill:#ffffff"
         id="flowPara3029">5:4</flowPara></flowRoot>    <flowRoot
       transform="matrix(1.25,0,0,1.25,1283.8824,1395.2908)"
       style="font-size:40px;font-style:normal;font-weight:normal;line-height:125%;letter-spacing:0px;word-spacing:0px;fill:#000000;fill-opacity:1;stroke:none;font-family:Sans"
       id="flowRoot3892"
       xml:space="preserve"><flowRegion
         id="flowRegion3894"><rect
           y="-143.42857"
           x="-274.28571"
           height="111.42857"
           width="318.41452"
           id="rect3896" /></flowRegion><flowPara
         style="fill:#ffffff"
         id="flowPara3898">-- 4:3, 5:4, 8:5</flowPara></flowRoot>    <flowRoot
       xml:space="preserve"
       id="flowRoot3916"
       style="font-size:40px;font-style:normal;font-weight:normal;line-height:125%;letter-spacing:0px;word-spacing:0px;fill:#000000;fill-opacity:1;stroke:none;font-family:Sans"
       transform="matrix(1.25,0,0,1.25,1283.8824,1335.6534)"><flowRegion
         id="flowRegion3918"><rect
           id="rect3920"
           width="282.85715"
           height="111.42857"
           x="-274.28571"
           y="-143.42857" /></flowRegion><flowPara
         id="flowPara3922"
         style="fill:#ffffff">-- 16:9</flowPara></flowRoot>  </g>
</svg>
