<?xml version="1.0" encoding="UTF-8" standalone="no"?>
<!-- Created with Inkscape (http://www.inkscape.org/) -->

<svg
   xmlns:dc="http://purl.org/dc/elements/1.1/"
   xmlns:cc="http://creativecommons.org/ns#"
   xmlns:rdf="http://www.w3.org/1999/02/22-rdf-syntax-ns#"
   xmlns:svg="http://www.w3.org/2000/svg"
   xmlns="http://www.w3.org/2000/svg"
   xmlns:sodipodi="http://sodipodi.sourceforge.net/DTD/sodipodi-0.dtd"
   xmlns:inkscape="http://www.inkscape.org/namespaces/inkscape"
   id="svg919"
   sodipodi:version="0.32"
   inkscape:version="0.48.1 r9760"
   width="425.26068"
   height="406.17465"
   sodipodi:docname="larry_the_cow-full_udder.svg"
   version="1.1"
   inkscape:export-filename="/home/peach/works/Gentoo/larry_the_cow-full_udder.png"
   inkscape:export-xdpi="90"
   inkscape:export-ydpi="90">
  <title
     id="title3023">Larry the Cow (Female)</title>
  <defs
     id="defs921">
    <linearGradient
       id="linearGradient2791">
      <stop
         style="stop-color:#ffffff;stop-opacity:1.0000000;"
         offset="0.0000000"
         id="stop2792" />
      <stop
         style="stop-color:#2e2e46;stop-opacity:1.0000000;"
         offset="1.0000000"
         id="stop2793" />
    </linearGradient>
    <linearGradient
       id="linearGradient2797">
      <stop
         style="stop-color:#000000;stop-opacity:1.0000000;"
         offset="0.0000000"
         id="stop2798" />
      <stop
         style="stop-color:#66667d;stop-opacity:1.0000000;"
         offset="1.0000000"
         id="stop2799" />
    </linearGradient>
    <linearGradient
       id="linearGradient4049">
      <stop
         style="stop-color:#000000;stop-opacity:0.45882353;"
         offset="0.0000000"
         id="stop4050" />
      <stop
         style="stop-color:#76768d;stop-opacity:1.0000000;"
         offset="1.0000000"
         id="stop4051" />
    </linearGradient>
    <linearGradient
       id="linearGradient2624">
      <stop
         style="stop-color:#ffffff;stop-opacity:0.0000000;"
         offset="0.0000000"
         id="stop2625" />
      <stop
         style="stop-color:#ffffff;stop-opacity:1.0000000;"
         offset="1.0000000"
         id="stop2626" />
    </linearGradient>
    <linearGradient
       id="linearGradient3587">
      <stop
         style="stop-color:#ffffff;stop-opacity:1.0000000;"
         offset="0.0000000"
         id="stop3588" />
      <stop
         style="stop-color:#ffffff;stop-opacity:1.0000000;"
         offset="0.50000000"
         id="stop3595" />
      <stop
         style="stop-color:#ffffff;stop-opacity:0.0000000;"
         offset="1.0000000"
         id="stop3589" />
    </linearGradient>
    <linearGradient
       id="linearGradient3591">
      <stop
         style="stop-color:#000000;stop-opacity:1.0000000;"
         offset="0.0000000"
         id="stop3592" />
      <stop
         style="stop-color:#000000;stop-opacity:0.49803922;"
         offset="0.50000000"
         id="stop3596" />
      <stop
         style="stop-color:#ffffff;stop-opacity:0.0000000;"
         offset="1.0000000"
         id="stop3593" />
    </linearGradient>
    <linearGradient
       id="linearGradient3613">
      <stop
         style="stop-color:#100049;stop-opacity:1.0000000;"
         offset="0.0000000"
         id="stop3614" />
      <stop
         style="stop-color:#090029;stop-opacity:1.0000000;"
         offset="1.0000000"
         id="stop3616" />
    </linearGradient>
  </defs>
  <sodipodi:namedview
     id="base"
     pagecolor="#ffffff"
     bordercolor="#666666"
     borderopacity="1.0"
     inkscape:pageopacity="0.0"
     inkscape:pageshadow="2"
     inkscape:zoom="1.1005117"
     inkscape:cx="212.63371"
     inkscape:cy="203.08201"
     inkscape:window-width="1022"
     inkscape:window-height="715"
     inkscape:window-x="138"
     inkscape:window-y="73"
     inkscape:current-layer="svg919"
     showgrid="false"
     fit-margin-top="10"
     fit-margin-left="10"
     fit-margin-right="10"
     fit-margin-bottom="10"
     inkscape:window-maximized="0"
     showguides="true"
     inkscape:guide-bbox="true" />
  <metadata
     id="metadata922">
    <rdf:RDF>
      <cc:Work
         rdf:about="">
        <dc:format>image/svg+xml</dc:format>
        <dc:type
           rdf:resource="http://purl.org/dc/dcmitype/StillImage" />
        <dc:title>Larry the Cow (Female)</dc:title>
        <dc:creator>
          <cc:Agent>
            <dc:title>Matteo 'Peach' Pescarin</dc:title>
          </cc:Agent>
        </dc:creator>
        <dc:contributor>
          <cc:Agent>
            <dc:title>Ethan Dunham of Fonthead Design Inc. for Larry's Head</dc:title>
          </cc:Agent>
        </dc:contributor>
        <cc:license
           rdf:resource="http://creativecommons.org/licenses/by-sa/2.5/" />
      </cc:Work>
      <cc:License
         rdf:about="http://creativecommons.org/licenses/by-sa/2.5/">
        <cc:permits
           rdf:resource="http://creativecommons.org/ns#Reproduction" />
        <cc:permits
           rdf:resource="http://creativecommons.org/ns#Distribution" />
        <cc:requires
           rdf:resource="http://creativecommons.org/ns#Notice" />
        <cc:requires
           rdf:resource="http://creativecommons.org/ns#Attribution" />
        <cc:permits
           rdf:resource="http://creativecommons.org/ns#DerivativeWorks" />
        <cc:requires
           rdf:resource="http://creativecommons.org/ns#ShareAlike" />
      </cc:License>
    </rdf:RDF>
  </metadata>
  <g
     inkscape:groupmode="layer"
     id="layer1"
     inkscape:label="Larry"
     transform="translate(-1.3240382,-4.4419361)">
    <g
       id="g3036">
      <path
         id="path2650"
         transform="translate(1.3240382,4.4419361)"
         d="M 247.625 152.5 C 247.625 152.5 199.07657 170.95246 167.03125 177.75 C 134.98599 184.54747 95.15053 173.84375 84.46875 173.84375 C 73.78698 173.84375 70.89122 157.33444 64.09375 161.21875 C 57.29628 165.10299 47.57181 165.11451 43.6875 182.59375 C 39.80327 200.073 31.66848 234.05585 27.1875 242.8125 C 26.65623 252.88809 24.68121 259.32077 24.15625 269.625 C 24.61039 282.8908 19.15625 298.71875 19.15625 298.71875 L 13.3125 300.65625 C 13.3125 300.65625 8.46177 312.32521 11.375 320.09375 C 14.28816 327.86237 17.21875 332.71875 17.21875 332.71875 L 20.125 319.125 L 21.09375 337.5625 C 21.09375 337.5625 25.9375 330.76156 25.9375 325.90625 C 25.9375 321.05086 27.9016 313.29515 29.84375 307.46875 C 31.78583 301.64236 23.03125 300.65625 23.03125 300.65625 C 23.03125 300.65625 26.05187 294.83747 28.28125 272.78125 C 29.46769 261.06513 32.03125 250.5625 32.03125 250.5625 C 32.03125 250.5625 32.05326 257.37847 35.9375 269.03125 C 39.82181 280.68411 50.48611 293.30327 56.3125 297.1875 C 62.13889 301.07181 53.40857 303.99076 52.4375 307.875 C 51.46642 311.75931 56.33218 323.39927 61.1875 326.3125 C 66.04288 329.22573 72.83677 336.98611 75.75 342.8125 C 78.66316 348.63897 85.46642 366.11344 86.4375 370.96875 C 87.4085 375.82414 84.46875 391.375 84.46875 391.375 C 84.46875 391.375 90.30319 392.34375 94.1875 392.34375 L 105.84375 392.34375 L 103.90625 384.5625 L 108.75 392.34375 L 113.625 391.375 L 106.8125 371.9375 C 106.8125 371.9375 101.94681 349.61688 98.0625 339.90625 C 96.12042 335.05087 96.99374 337.60503 96.78125 329.59375 C 97.348678 329.22425 98.931508 328.12142 100.78125 326.75 C 100.59981 329.96782 100.68502 333.73414 101.8125 336.28125 C 102.84315 338.60952 105.73189 341.7329 108.25 343.21875 C 110.76817 344.70447 112.8259 346.0121 112.8125 346.125 C 112.8035 346.23815 111.88546 349.69834 110.78125 353.8125 C 107.86829 364.66517 108.11438 365.9191 113.46875 368.15625 C 120.09123 370.9234 124.52544 370.61743 127.75 367.15625 C 127.75 367.15625 136.37873 349.79486 145.90625 349.0625 C 152.02052 348.59251 162.98 344.28125 163.6875 344.28125 C 164.1208 344.28125 165.99825 347.32798 167.875 351.03125 C 171.19868 357.59023 171.40214 357.72868 175.375 356.34375 C 179.59453 354.87285 186.28125 348.03273 186.28125 345.1875 C 186.28125 344.29654 184.74509 341.31456 182.875 338.5625 C 181.00494 335.81045 179.46875 333.27738 179.46875 332.9375 C 179.46875 332.59777 181.56194 331.07475 184.125 329.5625 C 186.688 328.05026 189.75181 325.34079 190.9375 323.53125 C 192.88006 320.56742 192.91438 319.65483 191.0625 314.40625 C 189.08943 308.81403 188.31319 306.65798 187.625 304.75 C 188.83852 304.34706 190.08401 303.94041 191.34375 303.5625 C 198.21023 301.50252 202.3159 298.0608 205.0625 296.6875 C 203.6892 304.92727 203.68839 304.94943 204.375 314.5625 C 205.06169 324.17557 207.81421 335.84968 209.1875 340.65625 C 210.5608 345.46282 222.25 376.34375 222.25 376.34375 L 222.9375 391.46875 C 222.9375 391.46875 233.9113 394.90714 238.03125 395.59375 C 242.15114 396.28043 251.0625 394.21875 251.0625 394.21875 L 251.0625 387.34375 C 251.0625 387.34375 256.56679 386.65625 260 386.65625 C 263.43327 386.65625 264.125 380.46875 264.125 380.46875 C 264.125 380.46875 261.37411 365.36899 260.6875 360.5625 C 260.00082 355.75593 262.75423 339.2685 266.1875 328.96875 C 269.6207 318.669 276.47045 301.5142 277.84375 287.78125 C 279.21711 274.04822 273.0625 241.09375 273.0625 241.09375 L 265.5 233.53125 L 247.625 152.5 z M 120.46875 306.75 C 130.06608 306.78955 168.00597 308.375 172.8125 308.375 C 174.48565 308.375 176.23071 308.10009 178.03125 307.6875 L 179.09375 312.40625 C 181.21612 321.71023 180.36515 328.82117 177.59375 325.03125 C 176.39558 323.3924 175.31649 323.14715 173.625 324.09375 C 170.23994 325.98817 170.73934 328.53878 176.375 338.84375 C 180.69067 346.73531 181.14462 348.41254 179.59375 350.28125 C 177.70196 352.56083 172.6875 353.30891 172.6875 351.3125 C 172.6875 350.68047 170.2114 346.38017 167.21875 341.75 C 162.27253 334.09728 161.54211 333.44985 158.9375 334.84375 C 156.84218 335.96512 156.46118 336.80488 157.5625 337.90625 C 158.39091 338.73465 159.0625 339.80289 159.0625 340.3125 C 159.0625 341.89886 147.33657 344.28125 139.53125 344.28125 C 130.83604 344.28125 127.78125 343.37396 127.78125 340.75 C 127.78125 338.08266 126.02808 338.4091 124.15625 341.40625 C 123.06669 343.15106 122.93881 345.58756 123.78125 349.21875 C 124.4553 352.1241 125.01335 355.1454 125.03125 355.9375 C 125.04905 356.72945 124.28762 358.42806 123.34375 359.71875 C 121.86606 361.73952 121.3018 361.81028 119.125 360.21875 C 116.85288 358.55731 116.72405 357.66791 118.09375 351.28125 C 120.12733 341.79884 119.98053 336.00942 117.5625 332.8125 C 116.46426 331.36036 115.4987 330.45117 115.4375 330.78125 C 115.376 331.11121 115.04873 333.20702 114.6875 335.4375 C 114.32613 337.66811 113.7343 339.76571 113.40625 340.09375 C 112.03679 341.46334 105.88299 333.85589 104.4375 329.03125 C 103.856 327.09034 103.51542 325.83979 103.6875 324.5 C 105.30192 323.20765 106.93969 321.81028 108.28125 320.46875 C 112.16555 316.58444 117.99643 307.37329 118.28125 306.84375 C 118.31684 306.77756 119.0977 306.74435 120.46875 306.75 z "
         style="fill:#000000;fill-opacity:1;fill-rule:evenodd;stroke:#000000;stroke-width:0.70850501pt;stroke-linecap:butt;stroke-linejoin:miter;stroke-opacity:1" />
      <path
         style="fill:#ffffff;fill-opacity:1;fill-rule:evenodd;stroke:#000000;stroke-width:0.70850501pt;stroke-linecap:butt;stroke-linejoin:miter;stroke-opacity:1"
         d="m 101.82819,322.01247 c -5.82646,4.36984 -4.61258,3.27733 -6.37265,9.7107 -1.76007,6.43336 0.78899,16.02269 2.48834,21.84909 3.39877,11.65278 9.7107,29.61756 6.79754,30.58864 -2.91323,0.97107 -6.79754,1.45661 -10.68177,1.94215 -3.88431,0.48554 -2.91323,-4.36985 -2.91323,-8.25408 0,-3.88431 -3.88424,-21.84909 -7.76855,-28.64656 -3.88431,-6.79747 -4.36985,-18.45032 -10.19624,-21.84909 -5.82639,-3.3987 -12.62386,-5.34085 -13.10939,-8.25408 -0.48554,-2.91316 1.94208,-7.28301 4.36977,-10.68171 2.42769,-3.39877 7.76855,-1.94215 7.76855,-1.94215 0,0 0,-5.34093 -1.45662,-9.22516 -1.45654,-3.88431 -5.34085,0 -12.62386,-13.10947 -7.283,-13.1094 -12.13839,-29.61756 -12.13839,-37.87165 0,-8.25415 9.22516,-24.27678 9.7107,-31.55979 0.48554,-7.283 3.88431,8.73963 10.19624,10.68178 6.31193,1.94215 -7.76855,5.82639 -5.34086,18.45032 2.42763,12.62386 11.16725,26.21886 21.36349,28.16102 10.19623,1.94208 20.39247,2.91316 26.21886,-1.94216 5.82646,-4.85538 7.28301,-7.283 7.28301,-7.283 0,0 6.312,5.34085 3.39877,13.1094 -2.4277,26.7044 -11.16725,41.75595 -16.99371,46.1258 z"
         id="path2647"
         sodipodi:nodetypes="cszccccccccccccccccccc"
         inkscape:connector-curvature="0" />
      <path
         id="path2655"
         style="fill:#ffffff;fill-opacity:1;fill-rule:evenodd;stroke:#000000;stroke-width:0.70850501pt;stroke-linecap:butt;stroke-linejoin:miter;stroke-opacity:1"
         d="m 122.62366,301.83077 c 0,0 4.8065,0 4.8065,0 0,0 54.93202,4.11989 58.36523,2.74659 3.43327,-1.37329 15.10631,-6.86647 17.8529,-8.92645 2.7466,-2.05991 -4.80656,-20.5995 -4.80656,-26.77929 0,-6.17987 0,-24.03278 0,-24.03278 0,0 4.11995,-4.11988 6.17986,-0.68661 2.05998,3.4332 4.11989,8.92638 4.11989,8.92638 -2.74659,17.85291 2.05997,36.39243 3.43327,44.63228 1.37329,8.23977 2.74659,39.82563 4.11988,46.69218 1.3733,6.86647 13.04635,28.15258 13.04635,31.58586 0,3.43327 0,12.35966 0,12.35966 0,0 8.92645,3.43327 11.67304,1.37336 2.74659,-2.05998 5.49318,-2.74666 5.49318,-2.74666 0,0 1.3733,-8.23977 -1.37329,-12.35966 -2.74659,-4.11988 -3.43321,-9.61306 -4.8065,-16.47961 -1.3733,-6.86648 -1.3733,-19.91282 0,-32.27247 1.37329,-12.35973 3.4332,-13.73303 2.05991,-19.22621 -1.3733,-5.49318 -2.7466,-41.199 -2.7466,-41.199 0,0 6.86648,-6.86647 7.55316,-2.74659 0.68662,4.11989 2.74659,13.04634 2.74659,13.04634 0,0 2.7466,-6.86647 8.23978,-12.35973 5.49325,-5.49318 8.23984,-25.40599 8.23984,-25.40599 0,0 -0.68668,-2.74659 -0.68668,-2.74659 L 253.08707,203.63984 246.9072,166.5608 c 0,0 -10.29975,3.4332 -15.79293,5.49318 -5.49318,2.05998 -17.16623,4.80657 -23.34609,6.86648 -6.17986,2.05998 -12.35966,2.05998 -12.35966,2.05998 l -7.55316,9.61306 c -4.11988,7.55316 3.43328,9.61314 6.17987,24.71939 2.74659,15.10632 -4.11996,17.85291 -9.61314,19.2262 -5.49318,1.3733 -10.29975,7.55316 -15.79293,19.22621 -5.49318,11.67304 -7.55316,20.5995 -13.04634,24.71938 -5.49318,4.11989 -12.35966,2.05998 -18.53952,0 -6.17987,-2.05998 -6.86655,-0.68668 -6.86655,-0.68668 0,0 -0.68661,-6.17979 -1.37329,2.05998 -0.68662,8.23977 -6.1798,21.97279 -6.1798,21.97279 z"
         sodipodi:nodetypes="cccccccccccccccccccccccccccccccccccccc"
         inkscape:connector-curvature="0" />
      <g
         id="g1550"
         transform="matrix(0.43221,0,0,0.43221,128.5923,-74.87833)">
        <path
           style="fill:#000000;fill-opacity:1;fill-rule:evenodd;stroke:#000000;stroke-width:1pt;stroke-linecap:butt;stroke-linejoin:miter;stroke-opacity:1"
           d="m 72.698128,436.22755 c 0,0 30.230902,-39.58809 45.346362,-48.94527 15.11545,-9.35719 43.187,-17.99459 43.187,-17.99459 0,0 28.79134,-0.71978 44.62658,2.87914 15.83523,3.59891 35.26938,14.39567 35.26938,14.39567 0,0 7.19784,-5.75827 12.23632,-7.19784 5.03849,-1.43957 11.51654,-3.59892 11.51654,-3.59892 0,0 2.87913,-43.90679 3.59892,-47.5057 0.71978,-3.59892 0.71978,-38.86831 2.87913,-51.82441 2.15935,-12.9561 7.91762,-33.11004 12.9561,-33.82982 5.03849,-0.71979 17.99459,28.07155 18.71437,35.26939 0.71978,7.19783 11.51654,61.18159 15.11545,70.53877 3.59892,9.35719 8.6374,17.27481 8.6374,17.27481 0,0 23.03307,-5.03849 40.30788,-5.03849 17.2748,0 44.62657,3.59892 44.62657,3.59892 0,0 2.87913,2.15935 7.19784,0.71978 4.3187,-1.43956 5.03848,-2.15935 5.03848,-2.15935 0,0 23.75285,-35.98917 23.75285,-67.65964 0,-31.67047 -12.9561,-81.33553 -12.9561,-81.33553 0,0 -2.87913,-5.75827 0,-6.47805 2.87913,-0.71979 22.31329,10.79675 28.79134,28.07155 6.47805,17.2748 24.47264,45.34636 26.63199,59.02224 2.15935,13.67589 -6.47805,56.8629 -13.67589,64.78051 -7.19783,7.91762 -12.23632,17.99459 -8.6374,20.87372 3.59892,2.87914 9.35718,2.87914 14.39567,-0.71978 5.03848,-3.59892 48.22549,-39.58809 76.29704,-46.78592 28.07156,-7.19784 33.11004,-6.47805 43.18701,-6.47805 10.07697,0 22.31329,8.6374 22.31329,8.6374 0,0 17.99458,2.15935 28.79134,12.9561 10.79675,10.79675 17.2748,20.87372 9.35718,28.79134 -7.91762,7.91762 -20.15394,23.75285 -25.19242,23.75285 -5.03848,0 -4.3187,-1.43957 -4.3187,-1.43957 0,0 -24.47264,20.87372 -51.10463,23.75286 -26.63198,2.87913 -44.62657,3.59891 -59.74202,0.71978 -15.11545,-2.87913 -23.03307,-6.47805 -23.03307,-6.47805 0,0 11.51653,28.79134 12.9561,38.86831 1.43957,10.07696 10.79675,47.5057 11.51654,60.46181 0.71978,12.9561 6.47805,77.01682 6.47805,77.01682 0,0 7.19783,56.8629 10.07696,70.53878 2.87914,13.67589 10.07697,60.46181 5.75827,80.61575 -4.3187,20.15393 -5.03848,29.51112 -10.79675,35.98917 -5.75827,6.47805 -15.83524,15.83524 -23.75285,17.2748 -7.91762,1.43957 -27.35177,0.71979 -41.74744,6.47805 -14.39567,5.75827 -54.70355,28.79134 -68.37943,28.79134 -13.67589,0 -29.51112,-16.55502 -29.51112,-16.55502 0,0 -11.51654,-15.83523 -18.71437,-23.75285 -7.19784,-7.91762 -47.50571,-38.14852 -64.06073,-79.89596 -16.55502,-41.74744 -24.47264,-115.16536 -24.47264,-115.16536 0,0 -4.3187,-71.97834 -12.23631,-98.61033 -7.91762,-26.63198 -19.43416,-58.30246 -19.43416,-58.30246 0,0 -35.98917,32.39026 -82.05531,29.51113 -46.06614,-2.87914 -77.736612,-33.82983 -77.736612,-33.82983 z"
           id="path2603"
           inkscape:connector-curvature="0" />
        <path
           style="fill:#ffffff;fill-opacity:1;fill-rule:evenodd;stroke:none"
           d="m 104.3686,437.66712 48.22549,14.39567 c 0,0 40.30787,-15.11545 46.78592,-17.2748 6.47806,-2.15935 9.35719,-5.75827 14.39567,-7.19784 5.03849,-1.43957 14.39567,-4.3187 14.39567,-4.3187 l -0.71978,-10.07697 c 0,0 -11.51654,-2.15935 -27.35177,0 -15.83524,2.15935 -83.49488,17.27481 -89.25315,18.71437 -5.75827,1.43957 -6.47805,5.75827 -6.47805,5.75827 z"
           id="path920"
           inkscape:connector-curvature="0" />
        <path
           style="fill:#ffffff;fill-opacity:1;fill-rule:evenodd;stroke:none"
           d="m 142.51712,396.63946 74.1377,-0.71978 c 0,0 -16.55502,-8.6374 -36.70896,-8.6374 -20.15394,0 -37.42874,9.35718 -37.42874,9.35718 z"
           id="path921"
           inkscape:connector-curvature="0" />
        <path
           style="fill:#ffffff;fill-opacity:1;fill-rule:evenodd;stroke:none"
           d="M 314.54537,369.28769 304.4684,348.41397 c 0,0 -0.71979,-9.35718 -3.59892,-20.87372 -2.87913,-11.51653 -7.19783,-17.99458 -7.19783,-17.99458 0,0 -5.75827,7.91761 -6.47806,14.39567 -0.71978,6.47805 -0.71978,25.19242 -1.43956,29.51112 -0.71979,4.3187 -5.03849,9.35718 -0.71979,14.39567 4.31871,5.03848 7.19784,6.47805 10.79676,6.47805 3.59891,0 12.23631,-4.3187 12.23631,-4.3187 l 6.47806,-0.71979 z"
           id="path922"
           inkscape:connector-curvature="0" />
        <path
           style="fill:#ffffff;fill-opacity:1;fill-rule:evenodd;stroke:none"
           d="m 437.62833,362.08986 c 0,0 13.67589,3.59892 17.27481,0.71978 3.59891,-2.87913 10.79675,-13.67588 10.79675,-13.67588 0,0 2.15935,-22.31329 3.59892,-33.82983 1.43956,-11.51653 2.87913,-18.71437 2.87913,-18.71437 0,0 -2.15935,-6.47805 -3.59892,-11.51653 -1.43956,-5.03848 -5.03848,-12.23632 -5.03848,-12.23632 l -5.03849,-15.11545 c 0,0 1.43957,15.11545 0,20.15394 -1.43956,5.03848 -0.71978,20.15393 -2.15935,28.79133 -1.43956,8.6374 -6.47805,34.54961 -10.07696,39.58809 -3.59892,5.03849 -8.63741,15.83524 -8.63741,15.83524 z"
           id="path923"
           inkscape:connector-curvature="0" />
        <path
           style="fill:#ffffff;fill-opacity:1;fill-rule:evenodd;stroke:none"
           d="m 507.44733,400.95816 c 0,0 2.87913,-10.07696 10.79675,-12.9561 7.91762,-2.87913 38.86831,-7.19783 46.06614,-7.19783 7.19784,0 25.91221,0 25.91221,0 0,0 5.75826,-5.03849 14.39566,-5.03849 8.63741,0 20.87372,0 20.87372,0 0,0 -7.91761,9.35719 -12.9561,12.23632 -5.03848,2.87914 -13.67588,3.59892 -17.2748,7.19784 -3.59892,3.59891 -19.43415,10.79675 -35.26939,12.23632 -15.83524,1.43956 -39.58809,0.71978 -39.58809,0.71978 l -12.9561,-7.19784 z"
           id="path924"
           inkscape:connector-curvature="0" />
        <path
           style="fill:#ffffff;fill-opacity:1;fill-rule:evenodd;stroke:none"
           d="m 519.68365,376.48553 c 0,0 21.5935,-10.79675 41.02765,-12.9561 19.43416,-2.15936 57.58268,-3.59892 57.58268,-3.59892 0,0 -8.6374,-12.9561 -37.42874,-10.07697 -28.79134,2.87913 -45.34636,9.35718 -51.82441,14.39567 -6.47805,5.03848 -9.35718,12.23632 -9.35718,12.23632 z"
           id="path925"
           inkscape:connector-curvature="0" />
        <path
           style="fill:#ffffff;fill-opacity:1;fill-rule:evenodd;stroke:none"
           d="m 351.25432,763.72902 c 0,0 24.47264,-36.70895 68.37943,-52.54419 43.90679,-15.83524 91.4125,-9.35719 91.4125,-9.35719 0,0 2.15935,-13.67588 -0.71979,-23.75285 -2.87913,-10.07697 -2.87913,-10.07697 -2.87913,-10.07697 l -2.15935,-4.3187 c 0,0 0,-23.75285 -2.15935,-36.70895 -2.15935,-12.95611 -15.83524,-95.01142 -15.83524,-95.01142 0,0 0.71979,-26.63199 -2.15935,-37.42874 -2.87913,-10.79675 -10.79675,-35.26939 -10.79675,-40.30787 0,-5.03848 2.15935,-8.6374 2.15935,-8.6374 0,0 -3.59892,-12.9561 -5.75827,-18.71437 -2.15935,-5.75827 -3.59891,-10.79675 -3.59891,-10.79675 0,0 -32.39026,-25.91221 -60.46181,-30.95069 -28.07156,-5.03849 -59.02225,0 -68.37943,0 -9.35719,0 -50.38484,9.35718 -55.42333,9.35718 -5.03848,0 -32.39025,3.59892 -33.82982,15.11546 -1.43956,11.51653 17.2748,44.62657 17.2748,44.62657 0,0 5.03849,24.47264 7.91762,31.67047 2.87914,7.19784 10.79675,42.46722 12.23632,61.90138 1.43957,19.43415 9.35719,102.20925 12.9561,116.60492 3.59892,14.39566 7.91762,41.02765 16.55502,56.1431 8.6374,15.11546 17.99459,28.79134 23.03307,33.11004 5.03849,4.3187 12.23632,10.07697 12.23632,10.07697 z"
           id="path926"
           inkscape:connector-curvature="0" />
        <path
           style="fill:#000000;fill-opacity:1;fill-rule:evenodd;stroke:#000000;stroke-width:1pt;stroke-linecap:butt;stroke-linejoin:miter;stroke-opacity:1"
           d="m 340.45757,516.12352 c 0,0 -14.39567,-2.15935 -25.19242,8.6374 -10.79675,10.79675 -13.67589,13.67588 -11.51654,20.15393 2.15935,6.47805 2.15935,10.79676 6.47806,13.67589 4.3187,2.87913 8.6374,7.19783 12.9561,7.19783 4.3187,0 19.43415,-9.35718 24.47263,-12.23632 5.03849,-2.87913 12.23632,-11.51653 9.35719,-17.2748 -2.87913,-5.75827 -3.59892,-12.9561 -7.91762,-15.83523 -4.3187,-2.87914 -4.3187,-2.87914 -8.6374,-4.3187 z"
           id="path927"
           inkscape:connector-curvature="0" />
        <path
           style="fill:#000000;fill-opacity:1;fill-rule:evenodd;stroke:#000000;stroke-width:1pt;stroke-linecap:butt;stroke-linejoin:miter;stroke-opacity:1"
           d="m 423.23267,494.53001 c 10.79675,1.43957 14.39566,-1.43956 15.83523,-5.75827 1.43957,-4.3187 4.3187,-17.2748 -8.6374,-17.2748 -12.9561,0 -15.83524,4.3187 -15.83524,10.79675 0,6.47805 2.87914,10.07697 8.63741,12.23632 z"
           id="path928"
           inkscape:connector-curvature="0" />
      </g>
      <path
         id="path3578"
         style="fill:#000000;fill-opacity:1;fill-rule:evenodd;stroke:#000000;stroke-width:0.88749999;stroke-linecap:butt;stroke-linejoin:miter;stroke-miterlimit:4;stroke-opacity:1"
         d="m 138.76971,342.81301 3.76677,7.76985 c 0,0 3.43327,10.29975 6.17986,15.793 2.74659,5.49318 4.11989,19.22613 5.49318,21.97273 1.3733,2.74666 -4.80656,2.74666 -4.80656,2.74666 l -1.3733,-5.49326 -1.37329,6.17987 c 0,0 -4.11989,2.74659 -8.23978,2.05998 -4.11988,-0.68669 -13.73302,-0.68669 -14.41963,-3.43328 -0.68668,-2.74659 4.11988,-12.35965 4.11988,-12.35965 l 2.74659,-8.23985 -2.74659,-4.11988 -5.81705,-20.28964 c -0.32387,-0.37683 -2.19079,-4.15751 -6.71632,-9.42093 -3.74192,-4.35206 -6.62913,-7.53522 -11.00413,-9.41022 l 3.69639,-6.29441 9.28077,-11.93243 28.28427,0.88388 c 0,0 -0.44194,5.74525 -1.76776,11.93243 -1.32583,6.18718 -8.83884,11.93243 -8.83884,11.93243 l 3.53554,9.72272 z"
         sodipodi:nodetypes="ccccccccccccccccccccc"
         inkscape:connector-curvature="0" />
      <path
         id="path3026"
         d="m 178.94049,309.27493 -30.5,0.125 -30.53125,0.15625 -6.65624,9.625 c -6.49002,9.32982 -6.64182,9.74971 -5.125,14.8125 1.44549,4.82464 7.59929,12.43209 8.96874,11.0625 0.32805,-0.32804 0.91988,-2.42564 1.28125,-4.65625 0.36123,-2.23048 0.6885,-4.32629 0.75,-4.65625 0.0612,-0.33008 1.02676,0.57911 2.125,2.03125 2.41803,3.19692 2.56483,8.98634 0.53125,18.46875 -1.3697,6.38666 -1.24087,7.27606 1.03125,8.9375 2.1768,1.59153 2.74106,1.52077 4.21875,-0.5 0.94387,-1.29069 1.7053,-2.9893 1.6875,-3.78125 -0.0179,-0.7921 -0.57595,-3.8134 -1.25,-6.71875 -0.84244,-3.63119 -0.71456,-6.06769 0.375,-7.8125 1.87183,-2.99715 3.625,-3.32359 3.625,-0.65625 0,2.62396 3.05479,3.53125 11.75,3.53125 7.80532,0 19.53125,-2.38239 19.53125,-3.96875 0,-0.50961 -0.67159,-1.57785 -1.5,-2.40625 -1.10132,-1.10137 -0.72032,-1.94113 1.375,-3.0625 2.60461,-1.3939 3.33503,-0.74647 8.28125,6.90625 2.99265,4.63017 5.46875,8.93047 5.46875,9.5625 0,1.99641 5.01446,1.24833 6.90625,-1.03125 1.55087,-1.86871 1.09692,-3.54594 -3.21875,-11.4375 -5.63566,-10.30497 -6.13506,-12.85558 -2.75,-14.75 1.69149,-0.9466 2.77058,-0.70135 3.96875,0.9375 2.7714,3.78992 3.62237,-3.32102 1.5,-12.625 l -1.84375,-8.09375 z"
         style="fill:#f350ff;fill-opacity:1;stroke:#000000;stroke-width:0.12285208px;stroke-linecap:butt;stroke-linejoin:miter;stroke-opacity:1"
         inkscape:connector-curvature="0" />
    </g>
  </g>
</svg>
