<?xml version="1.0" encoding="UTF-8" standalone="no"?>
<!-- Created with Inkscape (http://www.inkscape.org/) -->

<svg
   xmlns:dc="http://purl.org/dc/elements/1.1/"
   xmlns:cc="http://creativecommons.org/ns#"
   xmlns:rdf="http://www.w3.org/1999/02/22-rdf-syntax-ns#"
   xmlns:svg="http://www.w3.org/2000/svg"
   xmlns="http://www.w3.org/2000/svg"
   xmlns:sodipodi="http://sodipodi.sourceforge.net/DTD/sodipodi-0.dtd"
   xmlns:inkscape="http://www.inkscape.org/namespaces/inkscape"
   width="120"
   height="108"
   id="svg2"
   version="1.1"
   inkscape:version="0.48.1 r9760"
   sodipodi:docname="cow-font-head.svg"
   inkscape:export-filename="/home/sping/Desktop/cow-font-head.png"
   inkscape:export-xdpi="150"
   inkscape:export-ydpi="150">
  <title
     id="title3768">Cow font head v1.0.1</title>
  <defs
     id="defs4" />
  <sodipodi:namedview
     id="base"
     pagecolor="#ffffff"
     bordercolor="#666666"
     borderopacity="1.0"
     inkscape:pageopacity="0"
     inkscape:pageshadow="2"
     inkscape:zoom="5.6"
     inkscape:cx="88.698011"
     inkscape:cy="51.856902"
     inkscape:document-units="px"
     inkscape:current-layer="layer1"
     showgrid="false"
     fit-margin-top="0"
     fit-margin-left="0"
     fit-margin-right="0"
     fit-margin-bottom="0"
     borderlayer="false"
     inkscape:window-width="1280"
     inkscape:window-height="968"
     inkscape:window-x="0"
     inkscape:window-y="0"
     inkscape:window-maximized="1" />
  <metadata
     id="metadata7">
    <rdf:RDF>
      <cc:Work
         rdf:about="">
        <dc:format>image/svg+xml</dc:format>
        <dc:type
           rdf:resource="http://purl.org/dc/dcmitype/StillImage" />
        <dc:title>Cow font head v1.0.1</dc:title>
        <cc:license
           rdf:resource="http://creativecommons.org/licenses/by-sa/2.5/" />
        <dc:creator>
          <cc:Agent>
            <dc:title>Ethan Dunham</dc:title>
          </cc:Agent>
        </dc:creator>
        <dc:rights>
          <cc:Agent>
            <dc:title>Fonthead Design Inc.</dc:title>
          </cc:Agent>
        </dc:rights>
        <dc:publisher>
          <cc:Agent>
            <dc:title>Fonthead Design Inc.</dc:title>
          </cc:Agent>
        </dc:publisher>
        <dc:subject>
          <rdf:Bag>
            <rdf:li>Cow font head Fonthead Dunham</rdf:li>
          </rdf:Bag>
        </dc:subject>
        <dc:relation>http://www.fonthead.com/fonts/Font-Heads</dc:relation>
        <dc:date>2000-10-11</dc:date>
      </cc:Work>
      <cc:License
         rdf:about="http://creativecommons.org/licenses/by-sa/2.5/">
        <cc:permits
           rdf:resource="http://creativecommons.org/ns#Reproduction" />
        <cc:permits
           rdf:resource="http://creativecommons.org/ns#Distribution" />
        <cc:requires
           rdf:resource="http://creativecommons.org/ns#Notice" />
        <cc:requires
           rdf:resource="http://creativecommons.org/ns#Attribution" />
        <cc:permits
           rdf:resource="http://creativecommons.org/ns#DerivativeWorks" />
        <cc:requires
           rdf:resource="http://creativecommons.org/ns#ShareAlike" />
      </cc:License>
    </rdf:RDF>
  </metadata>
  <path
     style="fill:#ffffff;fill-opacity:1;stroke:#000000;stroke-width:1px;stroke-linecap:butt;stroke-linejoin:miter;stroke-opacity:1"
     d="m 31.071428,31.39286 c -5.346419,0.28294 -11.920093,-1.31113 -15.956281,3.22891 -3.555641,1.91813 -8.9912446,9.09973 -2.124399,10.57129 5.912868,2.68542 12.757024,0.92596 17.945446,-2.51988 6.315335,-2.43821 8.646883,5.11677 8.141694,9.90869 1.129866,5.52889 2.184043,11.08506 2.819999,16.68241 1.918799,7.35112 5.309016,14.40973 9.93767,20.42881 3.536364,4.12075 9.591106,6.40181 14.763468,4.0721 5.432784,-1.47829 12.261226,-2.86021 14.3921,-8.8822 2.668835,-5.49278 4.668599,-12.104 1.886905,-17.96309 -2.009313,-6.42684 -2.064148,-13.21935 -3.017358,-19.83491 1.176374,-5.7915 8.526792,-4.35937 12.89223,-4.20276 6.019246,0.15675 12.100108,-2.18488 16.662528,-6.02018 3.83032,-5.3676 -3.37372,-10.744015 -8.521,-9.183882 -6.491538,-0.768938 -12.208044,3.200962 -16.946606,7.127412 -4.584934,4.25539 -13.192689,-0.0236 -9.24326,-6.20769 1.503755,-3.261628 6.533449,-13.092526 0.478324,-12.916559 -1.359675,3.893927 -2.624273,7.881442 -5.850493,10.733728 -3.91892,4.068511 -10.471094,5.692891 -15.657082,3.298201 -4.597267,-3.185021 -3.100891,-9.771501 -6.202404,-13.824372 -4.363716,-1.783367 -2.873442,6.999636 -2.899492,9.628761 2.721222,4.485301 -1.569378,9.190611 -6.217056,9.169401 -2.825063,0.35937 -5.454457,-1.28237 -7.284933,-3.29419 z"
     id="path2984"
     inkscape:connector-curvature="0" />
  <g
     inkscape:label="Layer 1"
     inkscape:groupmode="layer"
     id="layer1"
     transform="translate(-301.25,-430.125)">
    <path
       inkscape:connector-curvature="0"
       id="path3764"
       style="font-size:144px;font-style:normal;font-variant:normal;font-weight:normal;font-stretch:normal;text-align:start;line-height:125%;letter-spacing:0px;word-spacing:0px;writing-mode:lr-tb;text-anchor:start;fill:#000000;fill-opacity:1;stroke:none;font-family:Font Heads;-inkscape-font-specification:Font Heads"
       d="m 362.152,532.479 c 8.92799,-2.304 19.29601,-1.58401 25.632,-9.36 0.576,-1.872 0.864,-4.032 0.864,-6.048 0,-13.82399 -4.464,-28.22401 -4.608,-42.192 3.456,0.144 6.912,0.432 10.512,0.432 2.736,0 7.344,-0.288 9.936,-1.44 0.864,-0.432 1.728,-1.152 2.736,-1.584 3.312,-1.872 7.2,-3.744 8.352,-7.776 0,-0.144 0,-0.576 0,-0.864 0,-3.024 -3.456,-4.608 -5.76,-5.904 -2.592,-1.44 -5.184,-2.304 -8.352,-2.304 -7.05599,0 -13.96801,4.176 -19.728,7.776 -0.432,0.72 0.144,2.016 -1.008,2.16 l -3.312,-3.6 c 3.168,-2.736 4.032,-8.352 4.032,-12.384 0,-4.608 -0.72,-12.528 -5.616,-14.4 0.72,9.07199 -3.74401,17.13601 -9.504,23.904 -3.6,-0.144 -6.912,-1.296 -10.512,-1.296 -0.576,0 -1.152,0.144 -1.728,0.144 -2.736,-3.168 -1.584,-7.632 -3.312,-11.088 -1.008,-2.016 -1.872,-7.056 -4.752,-6.912 -1.008,3.6 -1.584,7.2 -1.584,10.944 0,3.024 0.288,5.904 1.44,8.784 -2.16,1.152 -4.752,1.728 -6.336,3.744 -3.888,-2.736 -8.64001,-4.608 -13.536,-4.608 -6.33599,0 -12.672,3.888 -16.992,8.496 0.288,1.008 -0.288,2.16 -1.296,2.736 0,0.576 0.144,1.296 -0.576,1.584 3.456,4.752 7.20001,7.776 13.392,7.776 5.90399,0 11.23201,-3.312 16.848,-5.04 l 0.576,0.576 c 0.144,9.07199 2.16,22.89601 5.328,31.536 3.6,9.50399 11.08801,19.72801 18.864,26.208 m 47.088,-69.984 c -6.91199,0 -13.53601,2.592 -20.592,2.592 3.744,-2.736 8.208,-5.04 12.816,-5.04 2.88,0 5.472,0.864 7.776,2.448 m 0.576,2.736 c -8.06399,6.33599 -16.12801,5.904 -25.92,6.48 7.91999,-7.19999 17.56801,-2.448 25.92,-6.48 m -87.12,9.216 c -3.6,-0.576 -7.92,0.144 -11.232,-1.728 4.32,-0.576 8.496,-2.88 12.96,-2.88 1.152,0 2.304,0.144 3.312,0.576 1.008,-0.288 2.016,-0.432 3.024,-0.432 1.008,0 2.016,0.144 3.024,0 -3.312,2.448 -7.776,2.016 -11.088,4.464 m -2.736,-8.784 c 2.016,-1.152 4.32,-1.728 6.48,-1.728 3.456,0 7.056,1.152 9.936,3.312 -4.752,-1.728 -11.376,-1.008 -16.416,-1.584 m 57.744,-16.272 c 0,4.032 -2.16,7.344 -4.32,10.512 l -1.584,-0.288 c 2.592,-3.168 4.32,-6.912 5.904,-10.8 l 0,0.576 m -29.664,-2.016 c 1.728,3.456 1.872,7.488 3.456,10.944 -1.152,0.144 -2.304,0.288 -3.456,0.576 l 0,-11.52 m 8.928,73.584 c -12.95999,-13.53599 -12.384,-31.68002 -14.976,-48.96 -0.576,-1.152 -0.864,-2.448 -1.584,-3.6 1.296,-0.288 1.872,-1.728 2.736,-2.736 4.89599,-0.864 9.648,-3.312 14.688,-3.312 3.456,0 5.616,1.584 8.64,2.16 l 0.864,-0.576 c 2.304,0.576 4.464,1.728 6.768,2.592 -0.288,0.288 -0.576,0.72 -0.576,1.152 0,1.152 1.584,2.304 2.016,3.744 1.008,4.176 1.584,8.928 2.448,13.248 1.44,9.07199 2.88,18.28801 4.32,27.36 -1.584,-0.288 -3.312,-0.432 -4.896,-0.432 -8.06399,0 -15.26401,3.02401 -20.448,9.36 m 11.664,-41.472 c -0.576,0.576 -1.296,1.296 -1.296,2.16 0,0.432 0.144,0.864 0.288,1.152 1.152,0.144 1.728,1.872 2.88,1.872 0.288,0 0.432,-0.144 0.72,-0.288 -0.144,-1.152 0.288,-2.304 0.576,-3.456 -0.72,-0.72 -1.44,-1.44 -2.448,-1.44 -0.288,0 -0.432,0 -0.72,0 m -12.96,8.64 c -0.432,-0.288 -1.008,-0.576 -1.44,-0.576 -1.728,0 -3.168,2.16 -4.896,2.736 0.144,0.144 0.432,0.288 0.432,0.576 0,0.72 -1.008,1.152 -1.152,1.728 1.008,1.584 2.304,1.728 3.744,2.736 l 0.288,0 c 2.592,0.144 3.6,-2.592 4.608,-4.608 -0.144,-1.152 -1.728,-1.152 -1.728,-2.304 l 0.144,-0.288" />
  </g>
</svg>
