<?xml version="1.0" encoding="UTF-8" standalone="no"?>
<!-- Created with Inkscape (http://www.inkscape.org/) -->

<svg
   xmlns:dc="http://purl.org/dc/elements/1.1/"
   xmlns:cc="http://creativecommons.org/ns#"
   xmlns:rdf="http://www.w3.org/1999/02/22-rdf-syntax-ns#"
   xmlns:svg="http://www.w3.org/2000/svg"
   xmlns="http://www.w3.org/2000/svg"
   xmlns:sodipodi="http://sodipodi.sourceforge.net/DTD/sodipodi-0.dtd"
   xmlns:inkscape="http://www.inkscape.org/namespaces/inkscape"
   width="920"
   height="828"
   id="svg4086"
   version="1.1"
   inkscape:version="0.48.1 r9760"
   sodipodi:docname="larry.svg"
   inkscape:export-filename="larry.png"
   inkscape:export-xdpi="19.565218"
   inkscape:export-ydpi="19.565218">
  <title
     id="title3766">Larry the Cow v1.0.1</title>
  <defs
     id="defs4088">
    <inkscape:perspective
       sodipodi:type="inkscape:persp3d"
       inkscape:vp_x="0 : 526.18109 : 1"
       inkscape:vp_y="0 : 1000 : 0"
       inkscape:vp_z="744.09448 : 526.18109 : 1"
       inkscape:persp3d-origin="372.04724 : 350.78739 : 1"
       id="perspective4094" />
    <inkscape:perspective
       id="perspective4104"
       inkscape:persp3d-origin="0.5 : 0.33333333 : 1"
       inkscape:vp_z="1 : 0.5 : 1"
       inkscape:vp_y="0 : 1000 : 0"
       inkscape:vp_x="0 : 0.5 : 1"
       sodipodi:type="inkscape:persp3d" />
  </defs>
  <sodipodi:namedview
     id="base"
     pagecolor="#ffffff"
     bordercolor="#666666"
     borderopacity="1.0"
     inkscape:pageopacity="0"
     inkscape:pageshadow="2"
     inkscape:zoom="0.35"
     inkscape:cx="1224.317"
     inkscape:cy="485.80219"
     inkscape:document-units="px"
     inkscape:current-layer="layer1"
     showgrid="false"
     inkscape:window-width="1280"
     inkscape:window-height="968"
     inkscape:window-x="0"
     inkscape:window-y="0"
     inkscape:window-maximized="1" />
  <metadata
     id="metadata4091">
    <rdf:RDF>
      <cc:Work
         rdf:about="">
        <dc:format>image/svg+xml</dc:format>
        <dc:type
           rdf:resource="http://purl.org/dc/dcmitype/StillImage" />
        <dc:title>Larry the Cow v1.0.1</dc:title>
        <dc:creator>
          <cc:Agent>
            <dc:title>Alex Legler &lt;a3li@gentoo.org&gt;</dc:title>
          </cc:Agent>
        </dc:creator>
        <dc:rights>
          <cc:Agent>
            <dc:title>Gentoo Foundation, Inc.</dc:title>
          </cc:Agent>
        </dc:rights>
        <dc:publisher>
          <cc:Agent>
            <dc:title>Gentoo Foundation, Inc.</dc:title>
          </cc:Agent>
        </dc:publisher>
        <dc:source>Traced from a bitmap</dc:source>
        <dc:subject>
          <rdf:Bag>
            <rdf:li>Gentoo Linux Larry Cow mascot</rdf:li>
          </rdf:Bag>
        </dc:subject>
        <dc:contributor>
          <cc:Agent>
            <dc:title>Ethan Dunham of Fonthead Design Inc. for Larry's original head</dc:title>
          </cc:Agent>
        </dc:contributor>
        <cc:license
           rdf:resource="http://creativecommons.org/licenses/by-sa/2.5/" />
      </cc:Work>
      <cc:License
         rdf:about="http://creativecommons.org/licenses/by-sa/2.5/">
        <cc:permits
           rdf:resource="http://creativecommons.org/ns#Reproduction" />
        <cc:permits
           rdf:resource="http://creativecommons.org/ns#Distribution" />
        <cc:requires
           rdf:resource="http://creativecommons.org/ns#Notice" />
        <cc:requires
           rdf:resource="http://creativecommons.org/ns#Attribution" />
        <cc:permits
           rdf:resource="http://creativecommons.org/ns#DerivativeWorks" />
        <cc:requires
           rdf:resource="http://creativecommons.org/ns#ShareAlike" />
      </cc:License>
    </rdf:RDF>
  </metadata>
  <g
     inkscape:label="Layer 1"
     inkscape:groupmode="layer"
     id="layer1"
     transform="translate(0,-224.35931)">
    <g
       id="g3762"
       transform="translate(87.178583,-12.970088)">
      <path
         inkscape:connector-curvature="0"
         id="path2987"
         d="m 148.49242,477.58251 c -43.1138,-5.91973 -78.071278,32.07439 -103.982237,60.86013 -3.519589,41.55694 53.737911,34.15453 80.975887,33.51754 36.31991,4.67666 70.22549,-49.63646 101.77451,-15.07104 15.13129,32.98068 15.24984,71.88627 23.45512,107.78896 5.55475,40.38771 8.19261,81.09805 12.93682,121.57802 20.94305,34.24737 16.27068,77.95806 37.55812,112.20068 15.8014,50.06748 71.65005,78.81423 122.11468,68.77545 35.19792,-6.32944 69.6612,-17.5679 103.16134,-29.59202 40.57836,-25.03196 42.87658,-80.67865 33.3214,-122.59789 -6.16587,-43.52467 -9.04502,-87.58435 -16.85566,-130.79818 -3.94604,-40.43365 -17.46261,-79.37265 -27.68909,-118.32541 -16.60909,-24.4019 -3.23238,-67.90808 31.36565,-46.60243 39.75772,9.69682 80.84674,3.94657 117.78605,-12.10364 25.35898,-9.94007 55.30879,-49.6483 22.94403,-69.10033 -40.31439,-19.80395 -87.91797,-9.70128 -124.94673,12.38397 -21.62828,11.61303 -63.3807,55.86969 -79.1121,28.35092 10.64936,-39.48697 32.80224,-80.26456 18.38573,-121.83567 3.84406,-20.76769 -30.88916,-60.33801 -28.56973,-19.09455 -1.66714,40.11322 -2.17948,85.00946 -24.68268,119.59122 -31.54002,25.93948 -75.44016,10.27806 -112.65181,13.21274 -40.20959,0.50205 -34.67288,-49.28178 -41.19807,-76.75728 2.77666,-25.33906 -32.68569,-32.22135 -28.47511,-2.26956 -8.69217,34.29274 3.51153,92.03139 -41.42945,102.50248 -26.48121,2.61399 -50.90505,-11.16404 -76.18667,-16.61411 z"
         style="fill:#ffffff;fill-opacity:1;stroke:#000000;stroke-width:1px;stroke-linecap:butt;stroke-linejoin:miter;stroke-opacity:1" />
      <path
         inkscape:connector-curvature="0"
         id="path4110"
         d="m 408.57141,1028.1683 c -19.0846,-3.7007 -33.2683,-12.4994 -54.5131,-33.81664 -24.3515,-24.43442 -44.7472,-54.09953 -64.9405,-94.45467 -25.1158,-50.19247 -34.4654,-88.58716 -46.5367,-191.10624 -9.0531,-76.88633 -15.3209,-108.41027 -28.1677,-141.66979 -4.2631,-11.03707 -5.0617,-11.73289 -9.6876,-8.44177 -1.4599,1.03865 -6.2544,3.70076 -10.65439,5.9158 -36.70221,18.47663 -82.98384,24.53349 -122.478896,16.02878 -15.47561,-3.33246 -31.10204,-9.71647 -42.0211,-17.16727 -5.07289,-3.46157 -15,-12.54889 -15,-13.73107 0,-1.82338 28.37166,-34.47726 39.91082,-45.93468 14.07871,-13.97897 23.66726,-21.03217 37.50144,-27.58548 15.008866,-7.10977 22.475076,-8.73898 40.087736,-8.74757 16.03618,-0.008 19.08858,0.4707 50.5,7.91679 13.87279,3.28855 17.02229,3.68698 29.99999,3.79527 12.7403,0.10631 15.31,-0.15891 21.1743,-2.18535 7.5302,-2.60208 8.2121,-3.20302 10.2774,-9.05665 4.3926,-12.44996 6.2006,-27.89637 8.0923,-69.13701 1.6283,-35.49962 3.1662,-50.63681 6.4481,-63.46906 2.2766,-8.90147 7.3892,-20.661 10.0161,-23.03834 1.6166,-1.46295 2.0557,-1.22698 5.9503,3.19755 5.6776,6.45014 10.5338,15.38675 14.715,27.0793 4.4567,12.46302 6.2412,20.12536 11.8152,50.73055 5.0851,27.92072 9.9056,47.00254 14.3501,56.80474 l 2.971,6.5524 22.8451,0.0102 c 12.5648,0.006 34.5451,0.52661 48.8451,1.15775 30.7419,1.35681 45.2871,0.71682 48.9357,-2.15318 3.4748,-2.73326 10.8967,-15.0089 14.4332,-23.87194 9.2804,-23.25853 13.4298,-57.10096 11.2348,-91.63068 -1.2904,-20.29994 -4.2909,-42.47453 -7.5987,-56.15703 -2.8113,-11.62859 -2.0838,-12.2281 6.9849,-5.75681 45.0563,32.15157 65.63,109.23078 44.9777,168.50912 -3.9524,11.3443 -5.831,15.43119 -11.1907,24.34404 -1.9211,3.19475 -3.209,6.09252 -2.8621,6.43949 1.1308,1.13076 14.8554,-3.89656 25.0852,-9.18873 5.5,-2.8453 18.325,-10.57835 28.5,-17.18456 22.7442,-14.76687 27.9899,-17.90386 39.804,-23.80321 30.8301,-15.39494 61.112,-17.64425 94.196,-6.99681 17.8843,5.7557 31.5823,13.7177 40.3201,23.43626 6.7074,7.4602 8.1799,11.1487 8.1799,20.48892 0,6.74087 -0.4414,8.89895 -2.8047,13.7116 -12.2464,24.93846 -60.5308,47.83057 -116.8584,55.40366 -23.5919,3.17187 -57.3777,1.73779 -73.5212,-3.12072 -2.6667,-0.80253 -5.1534,-1.0568 -5.6341,-0.57608 -0.4807,0.48073 3.1376,18.45388 8.198,40.72104 26.7225,117.58694 36.9617,180.07526 41.1058,250.8605 3.0735,52.49742 -1.1995,108.00553 -11.316,147 l -1.2972,5 -11.192,1.63399 c -21.1513,3.08801 -34.4127,8.33384 -71.6802,28.35469 -26.8628,14.4313 -35.216,18.2402 -48.5,22.1152 -8.2602,2.4095 -23.4068,3.8582 -29,2.7736 z m -56.2019,-91.02167 c 3.1361,-2.00426 16.0519,-10.95789 28.7019,-19.89695 27.2705,-19.27053 37.5838,-25.66569 55,-34.10503 29.6879,-14.38575 60.0925,-20.4146 95.25,-18.88687 10.1204,0.43976 15.25,0.32 15.25,-0.35604 0,-0.56029 -1.7931,-12.62698 -3.9846,-26.81485 -3.7558,-24.31417 -7.7324,-53.48688 -18.5107,-135.79614 -5.5933,-42.71355 -11.3421,-80.76407 -16.6193,-110 -5.0235,-27.83132 -13.6094,-66.33328 -15.4209,-69.15275 -2.424,-3.77289 -18.0381,-14.73758 -28.1062,-19.73701 -28.3291,-14.06721 -64.1733,-20.46004 -108.3481,-19.32393 -31.4019,0.80761 -60.1161,5.10263 -88.5102,13.23916 -18.2917,5.24164 -40.5,13.97185 -40.5,15.9208 0,0.22009 1.778,3.69721 3.951,7.72695 5.1858,9.61663 13.9627,31.64362 17.8803,44.87348 9.8896,33.39786 15.7948,67.87148 24.1449,140.9533 7.2995,63.88706 11.3851,92.09756 17.1499,118.41668 8.873,40.50907 19.8397,68.97743 35.7022,92.67885 6.8876,10.29136 18.4528,23.90447 20.3084,23.90447 0.5277,0 3.5253,-1.63985 6.6614,-3.64412 z m -44.7981,-235.41082 c -3.902,-1.64687 -8.9373,-6.97287 -11.6946,-12.36976 -5.1026,-9.98728 -1.6979,-22.29318 8.8767,-32.08336 17.2544,-15.97455 39.6115,-16.35221 48.0528,-0.81173 3.2068,5.9036 5.3248,18.1019 4.3138,24.8439 -0.5592,3.72903 -1.1797,4.76533 -3.3469,5.58928 -1.4632,0.55631 -6.5428,3.25214 -11.2879,5.99073 -4.7452,2.73859 -10.9374,5.85693 -13.7606,6.92964 -6.1582,2.33992 -17.6727,3.38031 -21.1533,1.9113 z m 130.728,-82.30922 c -0.7382,-0.62471 -2.5536,-2.79292 -4.0343,-4.81824 -1.4808,-2.02532 -3.551,-3.95495 -4.6006,-4.28807 -2.7083,-0.85957 -2.9993,-2.34976 -1.5606,-7.99018 3.2504,-12.74292 21.1361,-19.02466 29.7219,-10.43883 2.7309,2.73085 2.8834,3.28375 2.2528,8.16435 -0.9489,7.34397 -4.0874,13.43201 -8.3783,16.252 -4.6674,3.06741 -11.565,4.67278 -13.4009,3.11897 z M 127.32993,559.7807 c 22.80179,-4.74574 46.76066,-15.45952 67.97515,-30.39671 3.97853,-2.80128 7.24103,-5.62817 7.25003,-6.28197 0.026,-1.90988 -8.33878,-2.8151 -25.48369,-2.75773 -28.0765,0.094 -54.07667,5.78222 -98.999996,21.65902 -9.35,3.30448 -17.62227,6.59683 -18.38283,7.31634 -1.15811,1.0956 -0.42108,1.79369 4.53524,4.29564 7.32429,3.69729 17.92163,6.96943 26.40817,8.15407 8.83886,1.23381 25.571626,0.32707 36.697926,-1.98866 z m 487.24148,-49.87327 c 19.6162,-4.02484 35.7148,-10.39691 49.4185,-19.56057 8.7232,-5.83319 18.3659,-14.95333 16.8202,-15.90863 -0.5243,-0.324 -3.4004,-0.1908 -6.3913,0.29599 -5.4997,0.89509 -21.9205,2.1416 -53.8474,4.08756 -31.1893,1.90102 -47.1652,4.95694 -60.6843,11.60791 -7.4035,3.64228 -17.3157,12.09017 -17.3157,14.75767 0,1.97064 8.6854,4.25962 26.5,6.98398 7.0953,1.08506 36.2474,-0.36544 45.5,-2.26391 z m -449.42698,-9.19012 c 13.32992,-1.85402 18.74611,-4.71413 13.03736,-6.8846 -10.70429,-4.06976 -49.13912,-6.14833 -59.61037,-3.22374 -10.32915,2.8849 -14.17278,5.69256 -10.75,7.85259 4.73976,2.99114 41.60546,4.44186 57.32301,2.25575 z m 404.78238,-31.37477 c 11.4387,-3.43838 21.0525,-5.08228 47.2858,-8.0855 32.5371,-3.7249 51.4124,-7.12586 52.8991,-9.5314 0.956,-1.54682 -11.3331,-6.62942 -20.5396,-8.49488 -11.3197,-2.29367 -32.1567,-1.56192 -43.5007,1.52764 -10.9881,2.99266 -21.078,7.14651 -28.896,11.89612 -10.6373,6.46237 -20.0738,15.13623 -16.4672,15.13623 0.5907,0 4.7391,-1.1017 9.2186,-2.44821 z m -275.3554,-0.16367 c 3.025,-0.3526 6.048,-1.07723 6.7178,-1.61029 2.217,-1.76451 -1.2443,-22.34397 -6.2994,-37.45295 -4.3795,-13.08993 -13.0196,-31.62446 -14.5105,-31.1275 -1.6061,0.53538 -4.5699,8.61596 -7.4466,20.30262 -2.8524,11.58821 -5.0172,34.89496 -3.9984,43.0487 1.0766,8.61721 3.869,9.36506 25.5371,6.83942 z m 178.5029,-15.38952 c 15.313,-7.4129 24.4587,-28.52074 24.48,-56.4986 0.011,-14.47171 -2.0213,-27.82867 -6.0818,-39.97253 -3.14,-9.39092 -7.2916,-17.52747 -8.9432,-17.52747 -0.5717,0 -0.9579,6.6383 -0.9579,16.46562 0,27.02309 -3.7813,47.01313 -15.4229,81.53438 -3.0604,9.075 -5.5672,17.12175 -5.5707,17.88167 -0.01,1.9399 6.6821,0.93166 12.4965,-1.88307 z"
         style="fill:#060606" />
    </g>
  </g>
</svg>
