<?xml version="1.0" encoding="UTF-8" standalone="no"?>
<!-- Created with Inkscape (http://www.inkscape.org/) -->

<svg
   xmlns:dc="http://purl.org/dc/elements/1.1/"
   xmlns:cc="http://creativecommons.org/ns#"
   xmlns:rdf="http://www.w3.org/1999/02/22-rdf-syntax-ns#"
   xmlns:svg="http://www.w3.org/2000/svg"
   xmlns="http://www.w3.org/2000/svg"
   xmlns:sodipodi="http://sodipodi.sourceforge.net/DTD/sodipodi-0.dtd"
   xmlns:inkscape="http://www.inkscape.org/namespaces/inkscape"
   id="svg919"
   sodipodi:version="0.32"
   inkscape:version="0.48.1 r9760"
   width="333"
   height="300"
   sodipodi:docname="larry_the_cow.svg"
   version="1.1"
   inkscape:export-filename="/home/peach/works/Gentoo/larry_the_cow.png"
   inkscape:export-xdpi="90"
   inkscape:export-ydpi="90">
  <title
     id="title3026">Larry the Cow</title>
  <defs
     id="defs921" />
  <sodipodi:namedview
     id="base"
     pagecolor="#ffffff"
     bordercolor="#666666"
     borderopacity="1.0"
     inkscape:pageopacity="0.0"
     inkscape:pageshadow="2"
     inkscape:zoom="1"
     inkscape:cx="398.9276"
     inkscape:cy="191.50547"
     inkscape:window-width="1022"
     inkscape:window-height="715"
     inkscape:window-x="273"
     inkscape:window-y="143"
     inkscape:current-layer="svg919"
     showgrid="false"
     fit-margin-top="10"
     fit-margin-left="10"
     fit-margin-right="10"
     fit-margin-bottom="10"
     inkscape:window-maximized="0" />
  <metadata
     id="metadata922">
    <rdf:RDF>
      <cc:Work
         rdf:about="">
        <dc:format>image/svg+xml</dc:format>
        <dc:type
           rdf:resource="http://purl.org/dc/dcmitype/StillImage" />
        <dc:title>Larry the Cow</dc:title>
        <dc:creator>
          <cc:Agent>
            <dc:title>Matteo 'Peach' Pescarin</dc:title>
          </cc:Agent>
        </dc:creator>
        <cc:license
           rdf:resource="http://creativecommons.org/licenses/by-sa/2.5/" />
        <dc:contributor>
          <cc:Agent>
            <dc:title>Ethan Dunham of Fonthead Design Inc. for the original head</dc:title>
          </cc:Agent>
        </dc:contributor>
      </cc:Work>
      <cc:License
         rdf:about="http://creativecommons.org/licenses/by-sa/2.5/">
        <cc:permits
           rdf:resource="http://creativecommons.org/ns#Reproduction" />
        <cc:permits
           rdf:resource="http://creativecommons.org/ns#Distribution" />
        <cc:requires
           rdf:resource="http://creativecommons.org/ns#Notice" />
        <cc:requires
           rdf:resource="http://creativecommons.org/ns#Attribution" />
        <cc:permits
           rdf:resource="http://creativecommons.org/ns#DerivativeWorks" />
        <cc:requires
           rdf:resource="http://creativecommons.org/ns#ShareAlike" />
      </cc:License>
    </rdf:RDF>
  </metadata>
  <g
     inkscape:groupmode="layer"
     id="layer1"
     inkscape:label="Larry"
     transform="translate(-1.3240382,-110.61659)">
    <g
       id="g2339"
       transform="translate(-120.34286,110.71704)">
      <g
         id="g1550"
         transform="matrix(0.43221,0,0,0.43221,128.5923,-74.87833)">
        <path
           style="fill:#000000;fill-opacity:1;fill-rule:evenodd;stroke:#000000;stroke-width:1pt;stroke-linecap:butt;stroke-linejoin:miter;stroke-opacity:1"
           d="m 72.698128,436.22755 c 0,0 30.230902,-39.58809 45.346362,-48.94527 15.11545,-9.35719 43.187,-17.99459 43.187,-17.99459 0,0 28.79134,-0.71978 44.62658,2.87914 15.83523,3.59891 35.26938,14.39567 35.26938,14.39567 0,0 7.19784,-5.75827 12.23632,-7.19784 5.03849,-1.43957 11.51654,-3.59892 11.51654,-3.59892 0,0 2.87913,-43.90679 3.59892,-47.5057 0.71978,-3.59892 0.71978,-38.86831 2.87913,-51.82441 2.15935,-12.9561 7.91762,-33.11004 12.9561,-33.82982 5.03849,-0.71979 17.99459,28.07155 18.71437,35.26939 0.71978,7.19783 11.51654,61.18159 15.11545,70.53877 3.59892,9.35719 8.6374,17.27481 8.6374,17.27481 0,0 23.03307,-5.03849 40.30788,-5.03849 17.2748,0 44.62657,3.59892 44.62657,3.59892 0,0 2.87913,2.15935 7.19784,0.71978 4.3187,-1.43956 5.03848,-2.15935 5.03848,-2.15935 0,0 23.75285,-35.98917 23.75285,-67.65964 0,-31.67047 -12.9561,-81.33553 -12.9561,-81.33553 0,0 -2.87913,-5.75827 0,-6.47805 2.87913,-0.71979 22.31329,10.79675 28.79134,28.07155 6.47805,17.2748 24.47264,45.34636 26.63199,59.02224 2.15935,13.67589 -6.47805,56.8629 -13.67589,64.78051 -7.19783,7.91762 -12.23632,17.99459 -8.6374,20.87372 3.59892,2.87914 9.35718,2.87914 14.39567,-0.71978 5.03848,-3.59892 48.22549,-39.58809 76.29704,-46.78592 28.07156,-7.19784 33.11004,-6.47805 43.18701,-6.47805 10.07697,0 22.31329,8.6374 22.31329,8.6374 0,0 17.99458,2.15935 28.79134,12.9561 10.79675,10.79675 17.2748,20.87372 9.35718,28.79134 -7.91762,7.91762 -20.15394,23.75285 -25.19242,23.75285 -5.03848,0 -4.3187,-1.43957 -4.3187,-1.43957 0,0 -24.47264,20.87372 -51.10463,23.75286 -26.63198,2.87913 -44.62657,3.59891 -59.74202,0.71978 -15.11545,-2.87913 -23.03307,-6.47805 -23.03307,-6.47805 0,0 11.51653,28.79134 12.9561,38.86831 1.43957,10.07696 10.79675,47.5057 11.51654,60.46181 0.71978,12.9561 6.47805,77.01682 6.47805,77.01682 0,0 7.19783,56.8629 10.07696,70.53878 2.87914,13.67589 10.07697,60.46181 5.75827,80.61575 -4.3187,20.15393 -5.03848,29.51112 -10.79675,35.98917 -5.75827,6.47805 -15.83524,15.83524 -23.75285,17.2748 -7.91762,1.43957 -27.35177,0.71979 -41.74744,6.47805 -14.39567,5.75827 -54.70355,28.79134 -68.37943,28.79134 -13.67589,0 -29.51112,-16.55502 -29.51112,-16.55502 0,0 -11.51654,-15.83523 -18.71437,-23.75285 -7.19784,-7.91762 -47.50571,-38.14852 -64.06073,-79.89596 -16.55502,-41.74744 -24.47264,-115.16536 -24.47264,-115.16536 0,0 -4.3187,-71.97834 -12.23631,-98.61033 -7.91762,-26.63198 -19.43416,-58.30246 -19.43416,-58.30246 0,0 -35.98917,32.39026 -82.05531,29.51113 -46.06614,-2.87914 -77.736612,-33.82983 -77.736612,-33.82983 z"
           id="path2603"
           inkscape:connector-curvature="0" />
        <path
           style="fill:#ffffff;fill-opacity:1;fill-rule:evenodd;stroke:none"
           d="m 104.3686,437.66712 48.22549,14.39567 c 0,0 40.30787,-15.11545 46.78592,-17.2748 6.47806,-2.15935 9.35719,-5.75827 14.39567,-7.19784 5.03849,-1.43957 14.39567,-4.3187 14.39567,-4.3187 l -0.71978,-10.07697 c 0,0 -11.51654,-2.15935 -27.35177,0 -15.83524,2.15935 -83.49488,17.27481 -89.25315,18.71437 -5.75827,1.43957 -6.47805,5.75827 -6.47805,5.75827 z"
           id="path920"
           inkscape:connector-curvature="0" />
        <path
           style="fill:#ffffff;fill-opacity:1;fill-rule:evenodd;stroke:none"
           d="m 142.51712,396.63946 74.1377,-0.71978 c 0,0 -16.55502,-8.6374 -36.70896,-8.6374 -20.15394,0 -37.42874,9.35718 -37.42874,9.35718 z"
           id="path921"
           inkscape:connector-curvature="0" />
        <path
           style="fill:#ffffff;fill-opacity:1;fill-rule:evenodd;stroke:none"
           d="M 314.54537,369.28769 304.4684,348.41397 c 0,0 -0.71979,-9.35718 -3.59892,-20.87372 -2.87913,-11.51653 -7.19783,-17.99458 -7.19783,-17.99458 0,0 -5.75827,7.91761 -6.47806,14.39567 -0.71978,6.47805 -0.71978,25.19242 -1.43956,29.51112 -0.71979,4.3187 -5.03849,9.35718 -0.71979,14.39567 4.31871,5.03848 7.19784,6.47805 10.79676,6.47805 3.59891,0 12.23631,-4.3187 12.23631,-4.3187 l 6.47806,-0.71979 z"
           id="path922"
           inkscape:connector-curvature="0" />
        <path
           style="fill:#ffffff;fill-opacity:1;fill-rule:evenodd;stroke:none"
           d="m 437.62833,362.08986 c 0,0 13.67589,3.59892 17.27481,0.71978 3.59891,-2.87913 10.79675,-13.67588 10.79675,-13.67588 0,0 2.15935,-22.31329 3.59892,-33.82983 1.43956,-11.51653 2.87913,-18.71437 2.87913,-18.71437 0,0 -2.15935,-6.47805 -3.59892,-11.51653 -1.43956,-5.03848 -5.03848,-12.23632 -5.03848,-12.23632 l -5.03849,-15.11545 c 0,0 1.43957,15.11545 0,20.15394 -1.43956,5.03848 -0.71978,20.15393 -2.15935,28.79133 -1.43956,8.6374 -6.47805,34.54961 -10.07696,39.58809 -3.59892,5.03849 -8.63741,15.83524 -8.63741,15.83524 z"
           id="path923"
           inkscape:connector-curvature="0" />
        <path
           style="fill:#ffffff;fill-opacity:1;fill-rule:evenodd;stroke:none"
           d="m 507.44733,400.95816 c 0,0 2.87913,-10.07696 10.79675,-12.9561 7.91762,-2.87913 38.86831,-7.19783 46.06614,-7.19783 7.19784,0 25.91221,0 25.91221,0 0,0 5.75826,-5.03849 14.39566,-5.03849 8.63741,0 20.87372,0 20.87372,0 0,0 -7.91761,9.35719 -12.9561,12.23632 -5.03848,2.87914 -13.67588,3.59892 -17.2748,7.19784 -3.59892,3.59891 -19.43415,10.79675 -35.26939,12.23632 -15.83524,1.43956 -39.58809,0.71978 -39.58809,0.71978 l -12.9561,-7.19784 z"
           id="path924"
           inkscape:connector-curvature="0" />
        <path
           style="fill:#ffffff;fill-opacity:1;fill-rule:evenodd;stroke:none"
           d="m 519.68365,376.48553 c 0,0 21.5935,-10.79675 41.02765,-12.9561 19.43416,-2.15936 57.58268,-3.59892 57.58268,-3.59892 0,0 -8.6374,-12.9561 -37.42874,-10.07697 -28.79134,2.87913 -45.34636,9.35718 -51.82441,14.39567 -6.47805,5.03848 -9.35718,12.23632 -9.35718,12.23632 z"
           id="path925"
           inkscape:connector-curvature="0" />
        <path
           style="fill:#ffffff;fill-opacity:1;fill-rule:evenodd;stroke:none"
           d="m 351.25432,763.72902 c 0,0 24.47264,-36.70895 68.37943,-52.54419 43.90679,-15.83524 91.4125,-9.35719 91.4125,-9.35719 0,0 2.15935,-13.67588 -0.71979,-23.75285 -2.87913,-10.07697 -2.87913,-10.07697 -2.87913,-10.07697 l -2.15935,-4.3187 c 0,0 0,-23.75285 -2.15935,-36.70895 -2.15935,-12.95611 -15.83524,-95.01142 -15.83524,-95.01142 0,0 0.71979,-26.63199 -2.15935,-37.42874 -2.87913,-10.79675 -10.79675,-35.26939 -10.79675,-40.30787 0,-5.03848 2.15935,-8.6374 2.15935,-8.6374 0,0 -3.59892,-12.9561 -5.75827,-18.71437 -2.15935,-5.75827 -3.59891,-10.79675 -3.59891,-10.79675 0,0 -32.39026,-25.91221 -60.46181,-30.95069 -28.07156,-5.03849 -59.02225,0 -68.37943,0 -9.35719,0 -50.38484,9.35718 -55.42333,9.35718 -5.03848,0 -32.39025,3.59892 -33.82982,15.11546 -1.43956,11.51653 17.2748,44.62657 17.2748,44.62657 0,0 5.03849,24.47264 7.91762,31.67047 2.87914,7.19784 10.79675,42.46722 12.23632,61.90138 1.43957,19.43415 9.35719,102.20925 12.9561,116.60492 3.59892,14.39566 7.91762,41.02765 16.55502,56.1431 8.6374,15.11546 17.99459,28.79134 23.03307,33.11004 5.03849,4.3187 12.23632,10.07697 12.23632,10.07697 z"
           id="path926"
           inkscape:connector-curvature="0" />
        <path
           style="fill:#000000;fill-opacity:1;fill-rule:evenodd;stroke:#000000;stroke-width:1pt;stroke-linecap:butt;stroke-linejoin:miter;stroke-opacity:1"
           d="m 340.45757,516.12352 c 0,0 -14.39567,-2.15935 -25.19242,8.6374 -10.79675,10.79675 -13.67589,13.67588 -11.51654,20.15393 2.15935,6.47805 2.15935,10.79676 6.47806,13.67589 4.3187,2.87913 8.6374,7.19783 12.9561,7.19783 4.3187,0 19.43415,-9.35718 24.47263,-12.23632 5.03849,-2.87913 12.23632,-11.51653 9.35719,-17.2748 -2.87913,-5.75827 -3.59892,-12.9561 -7.91762,-15.83523 -4.3187,-2.87914 -4.3187,-2.87914 -8.6374,-4.3187 z"
           id="path927"
           inkscape:connector-curvature="0" />
        <path
           style="fill:#000000;fill-opacity:1;fill-rule:evenodd;stroke:#000000;stroke-width:1pt;stroke-linecap:butt;stroke-linejoin:miter;stroke-opacity:1"
           d="m 423.23267,494.53001 c 10.79675,1.43957 14.39566,-1.43956 15.83523,-5.75827 1.43957,-4.3187 4.3187,-17.2748 -8.6374,-17.2748 -12.9561,0 -15.83524,4.3187 -15.83524,10.79675 0,6.47805 2.87914,10.07697 8.63741,12.23632 z"
           id="path928"
           inkscape:connector-curvature="0" />
      </g>
    </g>
  </g>
</svg>
