<?xml version="1.0" encoding="UTF-8" standalone="no"?>
<!-- Created with Inkscape (http://www.inkscape.org/) -->

<svg
   xmlns:dc="http://purl.org/dc/elements/1.1/"
   xmlns:cc="http://creativecommons.org/ns#"
   xmlns:rdf="http://www.w3.org/1999/02/22-rdf-syntax-ns#"
   xmlns:svg="http://www.w3.org/2000/svg"
   xmlns="http://www.w3.org/2000/svg"
   xmlns:sodipodi="http://sodipodi.sourceforge.net/DTD/sodipodi-0.dtd"
   xmlns:inkscape="http://www.inkscape.org/namespaces/inkscape"
   version="1.1"
   id="Ebene_1"
   x="0px"
   y="0px"
   width="567"
   height="567"
   viewBox="0 0 567.00001 567.00001"
   enable-background="new 0 0 566.93 566.93"
   xml:space="preserve"
   inkscape:version="0.48.1 "
   sodipodi:docname="larry.svg"><title
   id="title3151">Larry</title><metadata
   id="metadata3149"><rdf:RDF><cc:Work
       rdf:about=""><dc:format>image/svg+xml</dc:format><dc:type
         rdf:resource="http://purl.org/dc/dcmitype/StillImage" /><dc:title>Larry</dc:title><dc:date>2011/08/15</dc:date><dc:creator><cc:Agent><dc:title>Manuel &quot;Nefarius&quot; Zwerenz</dc:title></cc:Agent></dc:creator><cc:license
         rdf:resource="http://creativecommons.org/licenses/by-sa/2.5/" /><dc:contributor><cc:Agent><dc:title>based on material from http://www.gentoo.org/proj/en/desktop/artwork/artwork.xml - &quot;Gentoo&quot; is a trademark of Gentoo Foundation, Inc.</dc:title></cc:Agent></dc:contributor><dc:description>a full body version of Gentoo's mascot &quot;Larry&quot;</dc:description></cc:Work></rdf:RDF></metadata><defs
   id="defs3147" /><sodipodi:namedview
   pagecolor="#ffffff"
   bordercolor="#666666"
   borderopacity="1"
   objecttolerance="10"
   gridtolerance="10"
   guidetolerance="10"
   inkscape:pageopacity="0"
   inkscape:pageshadow="2"
   inkscape:window-width="1152"
   inkscape:window-height="802"
   id="namedview3145"
   showgrid="false"
   showborder="true"
   borderlayer="false"
   inkscape:showpageshadow="true"
   inkscape:zoom="0.78096786"
   inkscape:cx="465.97152"
   inkscape:cy="263.37644"
   inkscape:window-x="-8"
   inkscape:window-y="-8"
   inkscape:window-maximized="1"
   inkscape:current-layer="Ebene_1" />
<g
   id="g3069"
   transform="translate(0,0.07002931)">
	<g
   id="g3071">
		<g
   id="g3073">
			<path
   clip-rule="evenodd"
   d="m 216.765,369.146 c 3.154,21.027 6.68,39.047 1.75,60"
   id="path3075"
   inkscape:connector-curvature="0"
   style="fill:none;stroke:#000000;stroke-width:10" />
			<path
   clip-rule="evenodd"
   d="m 174.545,468.646 c 12.947,1.363 26.504,3.699 39.375,0.875 14.769,-3.242 13.839,-19.592 10.917,-32.01 -4.038,-17.164 -17.271,-8.51 -26.417,0.885 -9.18,9.428 -19.011,18.723 -25.875,30 0.666,0.083 1.334,0.167 2,0.25"
   id="path3077"
   inkscape:connector-curvature="0"
   style="fill:#993300;fill-rule:evenodd;stroke:#000000;stroke-width:10" />
		</g>
		<g
   id="g3079">
			<path
   clip-rule="evenodd"
   d="m 267.265,383.646 c 3.776,14.207 8.359,28.322 9.29,43.031 1.044,16.502 -1.559,31.561 -4.79,47.719"
   id="path3081"
   inkscape:connector-curvature="0"
   style="fill:none;stroke:#000000;stroke-width:10" />
			<path
   clip-rule="evenodd"
   d="m 232.045,542.396 c 16.025,-4.092 36.148,-6.33 50.5,-15 18.352,-11.088 8.999,-31.605 1.02,-46.762 -12.589,-23.92 -26.842,2.764 -32.961,14.66 -7.533,14.649 -14.49,31.2 -18.559,47.102 z"
   id="path3083"
   inkscape:connector-curvature="0"
   style="fill:#993300;fill-rule:evenodd;stroke:#000000;stroke-width:10" />
		</g>
		<g
   id="g3085">
			<path
   clip-rule="evenodd"
   d="m 363.266,369.646 c 4.074,17.461 3.043,28.113 -1.25,45.5"
   id="path3087"
   inkscape:connector-curvature="0"
   style="fill:none;stroke:#000000;stroke-width:10" />
			<path
   clip-rule="evenodd"
   d="m 335.108,449.084 c 12.563,1.063 17.063,1.313 28.308,-0.734 11.412,-2.076 7.335,-21.75 5.454,-30.027 -5.654,-24.879 -38.8,25.74 -42.074,30.324 2.375,-10e-4 6.683,0.298 8.312,0.437 z"
   id="path3089"
   inkscape:connector-curvature="0"
   style="fill:#993300;fill-rule:evenodd;stroke:#000000;stroke-width:10" />
		</g>
		<g
   id="g3091">
			<path
   clip-rule="evenodd"
   d="m 393.016,357.896 c 8.295,24.082 12.786,44.949 12,70.5"
   id="path3093"
   inkscape:connector-curvature="0"
   style="fill:none;stroke:#000000;stroke-width:10" />
			<path
   clip-rule="evenodd"
   d="m 379.671,486.521 c 13.718,-4.674 28.47,-8.531 40.375,-17.063 12.507,-8.963 4.2,-25.645 -4,-35.938 -21.983,-27.594 -32.826,38.279 -36.375,53.001 z"
   id="path3095"
   inkscape:connector-curvature="0"
   style="fill:#993300;fill-rule:evenodd;stroke:#000000;stroke-width:10" />
		</g>
	</g>
	<g
   id="g3097">
		<g
   id="g3099">
			<polygon
   clip-rule="evenodd"
   points="250.406,92.909 289.073,89.242 312.907,102.242 308.24,108.076 266.74,111.242 221.24,123.076 219.073,116.742 "
   id="polygon3101"
   style="fill:#ffffff;fill-rule:evenodd" />
			<polygon
   clip-rule="evenodd"
   points="254.406,111.909 302.74,107.576 312.907,111.409 299.073,127.076 257.906,136.409 224.74,133.242 219.24,125.409 "
   id="polygon3103"
   style="fill:#ff99cc;fill-rule:evenodd" />
			<path
   clip-rule="evenodd"
   d="m 208.52,127.659 c 12.632,-12.993 26.432,-31.186 44.738,-35.361 11.385,-2.597 21.723,-4.567 33.419,-3.398 7.135,0.713 23.855,4.727 25.473,13.461 4.135,22.325 -24.734,30.989 -42.695,32.622 -11.795,1.072 -22.576,1.575 -34.366,0.24 -10.169,-1.151 -16.441,-5.617 -26.569,-7.564 z"
   id="path3105"
   inkscape:connector-curvature="0"
   style="fill:none;stroke:#000000;stroke-width:10;stroke-linejoin:round" />
			<path
   clip-rule="evenodd"
   d="m 212.02,128.659 c 16.015,-7.455 30.947,-14.764 48.382,-18.194 17.308,-3.405 35.317,-2.082 52.869,-2.556"
   id="path3107"
   inkscape:connector-curvature="0"
   style="fill:none;stroke:#000000;stroke-width:10;stroke-linejoin:round" />
		</g>
		<g
   id="g3109">
			<polygon
   clip-rule="evenodd"
   points="41.406,100.909 70.073,99.409 97.573,109.909 95.073,116.575 58.24,118.575 10.073,131.242 8.073,122.075 "
   id="polygon3111"
   style="fill:#ffffff;fill-rule:evenodd" />
			<polygon
   clip-rule="evenodd"
   points="92.406,115.075 52.24,118.742 15.906,128.242 13.573,134.242 30.906,142.242 60.406,142.409 81.74,132.909 97.74,123.075 "
   id="polygon3113"
   style="fill:#ff99cc;fill-rule:evenodd" />
			<path
   clip-rule="evenodd"
   d="m 89.24,103.402 c -17.726,-6.488 -35.988,-6.146 -53.75,0.616 -12.648,4.815 -40.953,20.287 -18.75,32.639 14.582,8.112 38.518,9.239 53.484,2.433 8.075,-3.672 14.482,-9.518 22.516,-13.025 9.109,-3.977 7.498,-6.128 17,-9.114 -10.834,-4.517 -9.666,-9.033 -20.5,-13.549 z"
   id="path3115"
   inkscape:connector-curvature="0"
   style="fill:none;stroke:#000000;stroke-width:10;stroke-linejoin:round" />
			<path
   clip-rule="evenodd"
   d="m 99.74,116.352 c -33.125,-3.778 -60.871,2.5 -88,13.853"
   id="path3117"
   inkscape:connector-curvature="0"
   style="fill:none;stroke:#000000;stroke-width:10;stroke-linejoin:round" />
		</g>
	</g>
	<g
   id="g3119">
		<path
   clip-rule="evenodd"
   d="m 178.324,94.409 c 8.899,-8.419 20.688,-21.424 28.411,-42.501 3.755,-10.249 1.731,-27.384 1.741,-27.374 8.63,9.63 8.683,26.213 7.703,41.19 -1.139,17.454 -5.439,33.185 -10.189,47.852 -9.223,-6.389 -18.445,-12.779 -27.666,-19.167 z"
   id="path3121"
   inkscape:connector-curvature="0"
   style="fill:#ffcc00;fill-rule:evenodd;stroke:#000000;stroke-width:10;stroke-linejoin:round" />
		<path
   clip-rule="evenodd"
   d="m 116.227,96.248 c -1.085,-9.251 -6.755,-61.007 2.642,-61.714 1.701,-0.128 16.468,52.357 19.184,59.335 -7.135,1.069 -14.269,2.137 -21.405,3.206 l -0.421,-0.827 z"
   id="path3123"
   inkscape:connector-curvature="0"
   style="fill:#ffcc00;fill-rule:evenodd;stroke:#000000;stroke-width:10;stroke-linejoin:round" />
	</g>
	<g
   id="g3125">
		<path
   clip-rule="evenodd"
   d="m 437.016,259.895 c 12.604,-6.588 24.785,-14.225 38.534,-17.941 13.753,-3.717 28.589,1.654 38.966,10.691 22.22,19.354 32.609,50.985 33.75,79.5"
   id="path3127"
   inkscape:connector-curvature="0"
   style="fill:none;stroke:#000000;stroke-width:10" />
		<path
   clip-rule="evenodd"
   d="m 547.266,325.896 c -1.87,4.91 -3.602,9.744 -6.052,14.388 -2.338,4.43 -4.747,9.475 -4.349,14.65 0.99,12.873 9.836,18.131 20.15,23.961 0.51,-9.354 2.254,-19.059 1.75,-28.375 -0.502,-9.301 -6.457,-17.06 -11.499,-24.624"
   id="path3129"
   inkscape:connector-curvature="0"
   style="fill:#ffffff;fill-rule:evenodd;stroke:#000000;stroke-width:10" />
	</g>
	<path
   clip-rule="evenodd"
   d="m 173.765,296.396 c -5.09,75.201 70.359,97.086 131.172,87.908 59.069,-8.916 129.299,-14.238 141.578,-86.158 12.544,-73.47 -81.299,-70.912 -128.797,-78.219 -68.39,-10.521 -135.218,-3.594 -143.953,76.469"
   id="path3131"
   inkscape:connector-curvature="0"
   style="fill:#ffffff;fill-rule:evenodd;stroke:#000000;stroke-width:10;stroke-linejoin:round" />
	<g
   id="g3133">
		<path
   clip-rule="evenodd"
   d="m 232.74,219.409 c -2.861,-22.313 -7.076,-44.267 -10.607,-66.461 -4.026,-25.309 -7.648,-47.405 -35.393,-55.039 -21.541,-5.927 -47.535,-4.033 -69.325,-0.681 -13.827,2.127 -20.793,5.222 -20.227,19.381 0.479,11.97 3.479,24.433 5.103,36.339 3.167,23.224 5.47,46.24 13.449,68.461 6.809,18.958 18.262,47.574 34.695,60.436 8.072,6.319 18.332,14.698 29.305,15.065 9.634,0.322 22.809,-5.721 31.904,-8.416 30.773,-9.119 23.203,-26.942 21.897,-53.049 -0.266,-5.347 -0.534,-10.692 -0.801,-16.036 z"
   id="path3135"
   inkscape:connector-curvature="0"
   style="fill:#ffffff;fill-rule:evenodd;stroke:#000000;stroke-width:10;stroke-linejoin:round" />
		<path
   clip-rule="evenodd"
   d="m 154.24,283.409 c -19.59,-7.959 7.441,-29.895 19.186,-34.877 18.258,-7.746 36.233,-10.926 55.648,-5.289 23.327,6.772 -3.24,39.592 -15.775,44.567 -21.754,8.632 -40.637,13.209 -59.059,-4.401"
   id="path3137"
   inkscape:connector-curvature="0"
   style="fill-rule:evenodd" />
		<g
   id="g3139">
			<path
   clip-rule="evenodd"
   d="m 134.919,179.268 c -2.672,3.157 -5.469,7.16 -1.981,11.084 3.369,3.789 7.057,2.007 10.302,-0.943 2.205,-2.004 4.863,-8.444 2.68,-11.141 -2.463,-3.043 -8.288,-0.416 -11.001,1"
   id="path3141"
   inkscape:connector-curvature="0"
   style="fill-rule:evenodd;stroke:#000000;stroke-width:10;stroke-linecap:round;stroke-linejoin:round" />
			<path
   clip-rule="evenodd"
   d="m 183.522,153.77 c -0.963,5.943 7.098,11.078 7.718,3.639 0.132,-1.583 0.246,-4.175 -0.968,-5.389 -1.432,-1.432 -6.074,0.154 -6.75,1.75"
   id="path3143"
   inkscape:connector-curvature="0"
   style="fill-rule:evenodd;stroke:#000000;stroke-width:10;stroke-linecap:round;stroke-linejoin:round" />
		</g>
	</g>
</g>
</svg>