<?xml version="1.0" encoding="UTF-8" standalone="no"?>
<!-- Created with Inkscape (http://www.inkscape.org/) -->

<svg
   xmlns:dc="http://purl.org/dc/elements/1.1/"
   xmlns:cc="http://creativecommons.org/ns#"
   xmlns:rdf="http://www.w3.org/1999/02/22-rdf-syntax-ns#"
   xmlns:svg="http://www.w3.org/2000/svg"
   xmlns="http://www.w3.org/2000/svg"
   xmlns:sodipodi="http://sodipodi.sourceforge.net/DTD/sodipodi-0.dtd"
   xmlns:inkscape="http://www.inkscape.org/namespaces/inkscape"
   width="685.71875"
   height="685.6875"
   id="svg2"
   version="1.1"
   inkscape:version="0.48.1 r9760"
   sodipodi:docname="ripples-larry.svg"
   inkscape:export-filename="ripples-larry-105x105.png"
   inkscape:export-xdpi="13.78116"
   inkscape:export-ydpi="13.78116">
  <title
     id="title3010">Ripples Larry v1.0.1</title>
  <defs
     id="defs4">
    <filter
       inkscape:collect="always"
       id="filter3989"
       color-interpolation-filters="sRGB">
      <feGaussianBlur
         inkscape:collect="always"
         stdDeviation="6.5429688"
         id="feGaussianBlur3991" />
    </filter>
  </defs>
  <sodipodi:namedview
     id="base"
     pagecolor="#ffffff"
     bordercolor="#000000"
     borderopacity="0.17254902"
     inkscape:pageopacity="0"
     inkscape:pageshadow="2"
     inkscape:zoom="0.7"
     inkscape:cx="14.814194"
     inkscape:cy="343.38752"
     inkscape:document-units="px"
     inkscape:current-layer="layer1"
     showgrid="false"
     inkscape:window-width="1280"
     inkscape:window-height="968"
     inkscape:window-x="0"
     inkscape:window-y="0"
     inkscape:window-maximized="1"
     fit-margin-top="0"
     fit-margin-left="0"
     fit-margin-right="0"
     fit-margin-bottom="0"
     borderlayer="true"
     inkscape:showpageshadow="false" />
  <metadata
     id="metadata7">
    <rdf:RDF>
      <cc:Work
         rdf:about="">
        <dc:format>image/svg+xml</dc:format>
        <dc:type
           rdf:resource="http://purl.org/dc/dcmitype/StillImage" />
        <dc:title>Ripples Larry v1.0.1</dc:title>
        <cc:license
           rdf:resource="http://creativecommons.org/licenses/by-nc-sa/2.5/" />
        <dc:creator>
          <cc:Agent>
            <dc:title>Sebastian Pipping &lt;sping@gentoo.org&gt;</dc:title>
          </cc:Agent>
        </dc:creator>
        <dc:rights>
          <cc:Agent>
            <dc:title>Gentoo Foundation Inc., Ethan Dunham, Fonthead Design Inc.</dc:title>
          </cc:Agent>
        </dc:rights>
        <dc:publisher>
          <cc:Agent>
            <dc:title>Gentoo Foundation Inc.</dc:title>
          </cc:Agent>
        </dc:publisher>
        <dc:source>icon-cow.png</dc:source>
        <dc:relation>SVG remake from raster image</dc:relation>
        <dc:subject>
          <rdf:Bag>
            <rdf:li>Gentoo Linux Larry cow SVG icon news</rdf:li>
          </rdf:Bag>
        </dc:subject>
        <dc:contributor>
          <cc:Agent>
            <dc:title>Ethan Dunham of Fonthead Design Inc. for the head of Larry</dc:title>
          </cc:Agent>
        </dc:contributor>
      </cc:Work>
      <cc:License
         rdf:about="http://creativecommons.org/licenses/by-nc-sa/2.5/">
        <cc:permits
           rdf:resource="http://creativecommons.org/ns#Reproduction" />
        <cc:permits
           rdf:resource="http://creativecommons.org/ns#Distribution" />
        <cc:requires
           rdf:resource="http://creativecommons.org/ns#Notice" />
        <cc:requires
           rdf:resource="http://creativecommons.org/ns#Attribution" />
        <cc:prohibits
           rdf:resource="http://creativecommons.org/ns#CommercialUse" />
        <cc:permits
           rdf:resource="http://creativecommons.org/ns#DerivativeWorks" />
        <cc:requires
           rdf:resource="http://creativecommons.org/ns#ShareAlike" />
      </cc:License>
    </rdf:RDF>
  </metadata>
  <g
     inkscape:label="Layer 1"
     inkscape:groupmode="layer"
     id="layer1"
     transform="translate(-31.796875,-190.73437)">
    <g
       id="g3880"
       style="stroke:none;display:none"
       transform="translate(2.8571428,1.4285714)"
       inkscape:label="full circles">
      <path
         inkscape:label="0"
         sodipodi:type="arc"
         style="opacity:0.05;color:#000000;fill:#ff63a9;fill-opacity:1;stroke:none;stroke-width:0.35299999;marker:none;visibility:visible;display:inline;overflow:visible;enable-background:accumulate"
         id="path3855"
         sodipodi:cx="396.42856"
         sodipodi:cy="595.2193"
         sodipodi:rx="327.14285"
         sodipodi:ry="327.14285"
         d="m 723.57141,595.2193 c 0,180.67601 -146.46684,327.14285 -327.14285,327.14285 -180.67601,0 -327.142854,-146.46684 -327.142854,-327.14285 0,-180.67601 146.466844,-327.14285 327.142854,-327.14285 180.67601,0 327.14285,146.46684 327.14285,327.14285 z"
         transform="translate(-24.630257,-63.057129)" />
      <path
         inkscape:label="01"
         sodipodi:type="arc"
         style="color:#000000;fill:#ffffff;fill-opacity:1;stroke:none;stroke-width:0.35299999;marker:none;visibility:visible;display:inline;overflow:visible;enable-background:accumulate"
         id="path3878"
         sodipodi:cx="396.42856"
         sodipodi:cy="595.2193"
         sodipodi:rx="308.57141"
         sodipodi:ry="308.57141"
         d="m 704.99997,595.2193 c 0,170.41928 -138.15213,308.57141 -308.57141,308.57141 -170.41929,0 -308.571413,-138.15213 -308.571413,-308.57141 0,-170.41929 138.152123,-308.57141 308.571413,-308.57141 170.41928,0 308.57141,138.15212 308.57141,308.57141 z"
         transform="translate(-24.630257,-63.057129)" />
      <path
         inkscape:label="1"
         transform="translate(-24.630257,-63.057129)"
         d="m 685.71426,595.2193 c 0,159.76808 -129.51762,289.2857 -289.2857,289.2857 -159.76809,0 -289.28571,-129.51762 -289.28571,-289.2857 0,-159.76808 129.51762,-289.28571 289.28571,-289.28571 159.76808,0 289.2857,129.51763 289.2857,289.28571 z"
         sodipodi:ry="289.28571"
         sodipodi:rx="289.28571"
         sodipodi:cy="595.2193"
         sodipodi:cx="396.42856"
         id="path3853"
         style="opacity:0.2;color:#000000;fill:#ff63a9;fill-opacity:1;stroke:none;stroke-width:0.35299999;marker:none;visibility:visible;display:inline;overflow:visible;enable-background:accumulate"
         sodipodi:type="arc" />
      <path
         transform="translate(-24.630257,-63.057129)"
         d="m 660.71426,595.2193 c 0,148.19254 -118.32474,268.32632 -264.2857,268.32632 -145.96097,0 -264.28571,-120.13378 -264.28571,-268.32632 0,-148.19254 118.32474,-268.32633 264.28571,-268.32633 145.96096,0 264.2857,120.13379 264.2857,268.32633 z"
         sodipodi:ry="268.32632"
         sodipodi:rx="264.28571"
         sodipodi:cy="595.2193"
         sodipodi:cx="396.42856"
         id="path3876"
         style="color:#000000;fill:#ffffff;fill-opacity:1;stroke:none;stroke-width:0.35299999;marker:none;visibility:visible;display:inline;overflow:visible;enable-background:accumulate"
         sodipodi:type="arc"
         inkscape:label="12" />
      <path
         inkscape:label="2"
         sodipodi:type="arc"
         style="opacity:0.4;color:#000000;fill:#ff63a9;fill-opacity:1;stroke:none;stroke-width:0.35299999;marker:none;visibility:visible;display:inline;overflow:visible;enable-background:accumulate"
         id="path3851"
         sodipodi:cx="396.42856"
         sodipodi:cy="595.2193"
         sodipodi:rx="248.57143"
         sodipodi:ry="248.57143"
         d="m 644.99998,595.2193 c 0,137.28221 -111.28921,248.57143 -248.57142,248.57143 -137.28221,0 -248.57143,-111.28922 -248.57143,-248.57143 0,-137.28221 111.28922,-248.57143 248.57143,-248.57143 137.28221,0 248.57142,111.28922 248.57142,248.57143 z"
         transform="translate(-24.630257,-63.057129)" />
      <path
         inkscape:label="23"
         sodipodi:type="arc"
         style="color:#000000;fill:#ffffff;fill-opacity:1;stroke:none;stroke-width:0.35299999;marker:none;visibility:visible;display:inline;overflow:visible;enable-background:accumulate"
         id="path3874"
         sodipodi:cx="396.42856"
         sodipodi:cy="595.2193"
         sodipodi:rx="224.99998"
         sodipodi:ry="224.99998"
         d="m 621.42854,595.2193 c 0,124.26406 -100.73592,224.99998 -224.99998,224.99998 -124.26406,0 -224.99999,-100.73592 -224.99999,-224.99998 0,-124.26406 100.73593,-224.99999 224.99999,-224.99999 124.26406,0 224.99998,100.73593 224.99998,224.99999 z"
         transform="translate(-24.630257,-63.057129)" />
      <path
         inkscape:label="3"
         transform="translate(-24.630257,-63.057129)"
         d="m 601.42856,595.2193 c 0,113.21837 -91.78163,205 -205,205 -113.21838,0 -205,-91.78163 -205,-205 0,-113.21837 91.78162,-205 205,-205 113.21837,0 205,91.78163 205,205 z"
         sodipodi:ry="205"
         sodipodi:rx="205"
         sodipodi:cy="595.2193"
         sodipodi:cx="396.42856"
         id="path3849"
         style="opacity:0.55;color:#000000;fill:#ff63a9;fill-opacity:1;stroke:none;stroke-width:0.35299999;marker:none;visibility:visible;display:inline;overflow:visible;enable-background:accumulate"
         sodipodi:type="arc" />
      <path
         transform="translate(-24.630257,-63.057129)"
         d="m 577.31615,595.2193 c 0,99.90146 -80.98614,180.88759 -180.88759,180.88759 -99.90146,0 -180.88759,-80.98613 -180.88759,-180.88759 0,-99.90146 80.98613,-180.88759 180.88759,-180.88759 99.90145,0 180.88759,80.98613 180.88759,180.88759 z"
         sodipodi:ry="180.88759"
         sodipodi:rx="180.88759"
         sodipodi:cy="595.2193"
         sodipodi:cx="396.42856"
         id="path3872"
         style="color:#000000;fill:#ffffff;fill-opacity:1;stroke:none;stroke-width:0.35299999;marker:none;visibility:visible;display:inline;overflow:visible;enable-background:accumulate"
         sodipodi:type="arc"
         inkscape:label="34" />
      <path
         inkscape:label="4"
         sodipodi:type="arc"
         style="opacity:0.76000001;color:#000000;fill:#ff63a9;fill-opacity:1;stroke:none;stroke-width:0.35299999;marker:none;visibility:visible;display:inline;overflow:visible;enable-background:accumulate"
         id="path3847"
         sodipodi:cx="396.42856"
         sodipodi:cy="595.2193"
         sodipodi:rx="161.42856"
         sodipodi:ry="161.42856"
         d="m 557.85712,595.2193 c 0,89.15453 -72.27403,161.42856 -161.42856,161.42856 C 307.27403,756.64786 235,684.37383 235,595.2193 c 0,-89.15453 72.27403,-161.42856 161.42856,-161.42856 89.15453,0 161.42856,72.27403 161.42856,161.42856 z"
         transform="translate(-24.630257,-63.057129)" />
      <path
         inkscape:label="45"
         sodipodi:type="arc"
         style="color:#000000;fill:#ffffff;fill-opacity:1;stroke:none;stroke-width:0.35299999;marker:none;visibility:visible;display:inline;overflow:visible;enable-background:accumulate"
         id="path3870"
         sodipodi:cx="396.42856"
         sodipodi:cy="595.2193"
         sodipodi:rx="136.42856"
         sodipodi:ry="139.28571"
         d="m 532.85712,595.2193 c 0,76.92537 -61.08115,139.2857 -136.42856,139.2857 C 321.08115,734.505 260,672.14467 260,595.2193 c 0,-76.92537 61.08115,-139.28571 136.42856,-139.28571 75.34741,0 136.42856,62.36034 136.42856,139.28571 z"
         transform="translate(-24.630257,-63.057129)" />
      <path
         inkscape:label="5"
         transform="translate(-24.630257,-63.057129)"
         d="m 512.85713,595.2193 c 0,64.30172 -52.12685,116.42857 -116.42857,116.42857 -64.30173,0 -116.42858,-52.12685 -116.42858,-116.42857 0,-64.30173 52.12685,-116.42857 116.42858,-116.42857 64.30172,0 116.42857,52.12684 116.42857,116.42857 z"
         sodipodi:ry="116.42857"
         sodipodi:rx="116.42857"
         sodipodi:cy="595.2193"
         sodipodi:cx="396.42856"
         id="path3845"
         style="color:#000000;fill:#ff63a9;fill-opacity:1;stroke:none;stroke-width:0.35299999;marker:none;visibility:visible;display:inline;overflow:visible;enable-background:accumulate"
         sodipodi:type="arc" />
      <path
         transform="translate(-24.630257,-63.057129)"
         d="m 489.2857,595.2193 c 0,51.28358 -41.57356,92.85714 -92.85714,92.85714 -51.28358,0 -92.85714,-41.57356 -92.85714,-92.85714 0,-51.28358 41.57356,-92.85714 92.85714,-92.85714 51.28358,0 92.85714,41.57356 92.85714,92.85714 z"
         sodipodi:ry="92.85714"
         sodipodi:rx="92.85714"
         sodipodi:cy="595.2193"
         sodipodi:cx="396.42856"
         id="path3868"
         style="color:#000000;fill:#ffffff;fill-opacity:1;stroke:none;stroke-width:0.35299999;marker:none;visibility:visible;display:inline;overflow:visible;enable-background:accumulate"
         sodipodi:type="arc"
         inkscape:label="56" />
      <path
         inkscape:label="6"
         sodipodi:type="arc"
         style="color:#000000;fill:#ff63a9;fill-opacity:1;stroke:none;stroke-width:0.35299999;marker:none;visibility:visible;display:inline;overflow:visible;enable-background:accumulate"
         id="path3843"
         sodipodi:cx="396.42856"
         sodipodi:cy="595.2193"
         sodipodi:rx="77.142853"
         sodipodi:ry="77.142853"
         d="m 473.57141,595.2193 c 0,42.60482 -34.53803,77.14285 -77.14285,77.14285 -42.60482,0 -77.14285,-34.53803 -77.14285,-77.14285 0,-42.60482 34.53803,-77.14285 77.14285,-77.14285 42.60482,0 77.14285,34.53803 77.14285,77.14285 z"
         transform="translate(-24.630257,-63.057129)" />
    </g>
    <g
       id="g3993">
      <g
         id="g3935"
         style="stroke:none;filter:url(#filter3989)"
         transform="translate(2.8571428,1.4285714)"
         inkscape:label="rings">
        <path
           id="path3937"
           transform="translate(-2.8571428,-1.4285714)"
           d="M 374.65625,206.4375 C 193.98024,206.4375 47.5,352.91774 47.5,533.59375 c 0,180.67601 146.48024,327.125 327.15625,327.125 180.67601,0 327.15625,-146.44899 327.15625,-327.125 0,-180.67601 -146.48024,-327.15625 -327.15625,-327.15625 z m -4,18.59375 c 1.32741,-0.0168 2.6686,0 4,0 170.41928,0 308.5625,138.14322 308.5625,308.5625 0,170.41928 -138.14322,308.5625 -308.5625,308.5625 -170.41928,0 -308.5625,-138.14322 -308.5625,-308.5625 0,-169.08788 135.98126,-306.42715 304.5625,-308.5625 z"
           style="opacity:0.05;color:#000000;fill:#ff63a9;fill-opacity:1;stroke:none;stroke-width:0.35299999;marker:none;visibility:visible;display:inline;overflow:visible;enable-background:accumulate"
           inkscape:label="ring 0"
           inkscape:connector-curvature="0" />
        <path
           id="path3941"
           transform="translate(-2.8571428,-1.4285714)"
           d="m 374.65625,244.3125 c -159.76808,0 -289.28125,129.51317 -289.28125,289.28125 0,159.76808 129.51317,289.28125 289.28125,289.28125 159.76808,0 289.28125,-129.51317 289.28125,-289.28125 0,-159.76808 -129.51317,-289.28125 -289.28125,-289.28125 z m 0,20.9375 c 145.96096,0 264.28125,120.15121 264.28125,268.34375 0,148.19254 -118.32029,268.3125 -264.28125,268.3125 C 228.69529,801.90625 110.375,681.78629 110.375,533.59375 110.375,385.40121 228.69529,265.25 374.65625,265.25 z"
           style="opacity:0.2;color:#000000;fill:#ff63a9;fill-opacity:1;stroke:none;stroke-width:0.35299999;marker:none;visibility:visible;display:inline;overflow:visible;enable-background:accumulate"
           inkscape:label="ring 1"
           inkscape:connector-curvature="0" />
        <path
           id="path3945"
           transform="translate(-2.8571428,-1.4285714)"
           d="m 374.65625,285.03125 c -137.28221,0 -248.5625,111.28029 -248.5625,248.5625 0,137.28221 111.28029,248.5625 248.5625,248.5625 137.28221,0 248.5625,-111.28029 248.5625,-248.5625 0,-137.28221 -111.28029,-248.5625 -248.5625,-248.5625 z m 0,23.5625 c 124.26406,0 225,100.73594 225,225 0,124.26406 -100.73594,225 -225,225 -124.26406,0 -225,-100.73594 -225,-225 0,-124.26406 100.73594,-225 225,-225 z"
           style="opacity:0.4;color:#000000;fill:#ff63a9;fill-opacity:1;stroke:none;stroke-width:0.35299999;marker:none;visibility:visible;display:inline;overflow:visible;enable-background:accumulate"
           inkscape:label="ring 2"
           inkscape:connector-curvature="0" />
        <path
           id="path3949"
           transform="translate(-2.8571428,-1.4285714)"
           d="m 374.65625,328.59375 c -113.21837,0 -205,91.78163 -205,205 0,113.21837 91.78163,205 205,205 113.21837,0 205,-91.78163 205,-205 0,-113.21837 -91.78163,-205 -205,-205 z m 0,24.125 c 99.90146,0 180.875,80.97354 180.875,180.875 0,99.90146 -80.97354,180.875 -180.875,180.875 -99.90146,0 -180.875,-80.97354 -180.875,-180.875 0,-99.90146 80.97354,-180.875 180.875,-180.875 z"
           style="opacity:0.55;color:#000000;fill:#ff63a9;fill-opacity:1;stroke:none;stroke-width:0.35299999;marker:none;visibility:visible;display:inline;overflow:visible;enable-background:accumulate"
           inkscape:label="ring 3"
           inkscape:connector-curvature="0" />
        <path
           id="path3953"
           transform="translate(-2.8571428,-1.4285714)"
           d="m 374.65625,372.15625 c -89.15453,0 -161.4375,72.28297 -161.4375,161.4375 0,89.15453 72.28297,161.4375 161.4375,161.4375 89.15453,0 161.4375,-72.28297 161.4375,-161.4375 0,-89.15453 -72.28297,-161.4375 -161.4375,-161.4375 z m 0,22.15625 c 75.34741,0 136.4375,62.35588 136.4375,139.28125 0,76.92537 -61.09009,139.28125 -136.4375,139.28125 -75.34741,0 -136.4375,-62.35588 -136.4375,-139.28125 0,-76.92537 61.09009,-139.28125 136.4375,-139.28125 z"
           style="opacity:0.76000001;color:#000000;fill:#ff63a9;fill-opacity:1;stroke:none;stroke-width:0.35299999;marker:none;visibility:visible;display:inline;overflow:visible;enable-background:accumulate"
           inkscape:label="ring 4"
           inkscape:connector-curvature="0" />
        <path
           id="path3957"
           transform="translate(-2.8571428,-1.4285714)"
           d="m 374.65625,417.15625 c -64.30173,0 -116.4375,52.13577 -116.4375,116.4375 0,64.30173 52.13577,116.4375 116.4375,116.4375 64.30173,0 116.4375,-52.13577 116.4375,-116.4375 0,-64.30173 -52.13577,-116.4375 -116.4375,-116.4375 z m 0,23.5625 c 51.28358,0 92.84375,41.59142 92.84375,92.875 0,51.28358 -41.56017,92.84375 -92.84375,92.84375 -51.28358,0 -92.84375,-41.56017 -92.84375,-92.84375 0,-51.28358 41.56017,-92.875 92.84375,-92.875 z"
           style="color:#000000;fill:#ff63a9;fill-opacity:1;stroke:none;stroke-width:0.35299999;marker:none;visibility:visible;display:inline;overflow:visible;enable-background:accumulate"
           inkscape:label="ring 5"
           inkscape:connector-curvature="0" />
        <path
           inkscape:label="center"
           sodipodi:type="arc"
           style="color:#000000;fill:#ff63a9;fill-opacity:1;stroke:none;stroke-width:0.35299999;marker:none;visibility:visible;display:inline;overflow:visible;enable-background:accumulate"
           id="path3961"
           sodipodi:cx="396.42856"
           sodipodi:cy="595.2193"
           sodipodi:rx="77.142853"
           sodipodi:ry="77.142853"
           d="m 473.57141,595.2193 c 0,42.60482 -34.53803,77.14285 -77.14285,77.14285 -42.60482,0 -77.14285,-34.53803 -77.14285,-77.14285 0,-42.60482 34.53803,-77.14285 77.14285,-77.14285 42.60482,0 77.14285,34.53803 77.14285,77.14285 z"
           transform="translate(-24.630257,-63.057129)" />
      </g>
      <g
         transform="matrix(0.95867111,0,0,0.95867111,-48.539637,-0.23160491)"
         inkscape:label="larry head"
         id="g4634">
        <path
           style="fill:#ffffff;stroke:none"
           d="m 368.69313,473.57867 c -8.59077,6.4208 4.50226,-4.52236 -2.8907,4.5087 -13.01685,4.71021 -24.98914,11.689 -18.3225,27.81618 3.02157,18.25008 3.86248,36.88038 6.25259,55.23527 0.89416,16.76925 4.90404,32.81654 8.40369,49.44336 1.31892,16.93211 15.57345,27.14609 21.72598,41.63035 2.9286,16.52839 14.93916,31.78848 31.09626,37.49607 12.96174,5.91315 28.11032,3.80143 41.56091,1.67886 14.35114,-6.02448 25.96246,-16.99251 40.26928,-23.81954 19.21994,-5.87153 20.62671,-27.64419 14.09875,-43.68223 -4.20614,-16.13854 -2.41127,-32.83053 -2.79321,-49.29176 -9.6375,-13.57382 -15.30512,-29.6583 -14.30204,-46.4433 3.30904,-17.03079 -2.70098,-33.76798 -14.12518,-46.28485 -11.42474,-10.73304 -28.19727,-16.18338 -43.99539,-16.37005 -20.90825,-0.0659 -41.81436,-0.60171 -62.63743,0.38126 -2.1445,2.09315 -2.08477,5.58212 -4.34101,7.70168 z m -61.6193,-5.05076 c -15.16784,0.61974 -31.98005,-0.77525 -44.64474,9.40904 -9.86193,9.44841 -26.41834,23.78022 -13.43201,37.41263 13.01107,5.12173 28.97653,2.80122 43.1058,4.72946 17.59199,-1.26123 43.31907,4.06883 52.433,-14.9999 3.99773,-17.20788 -9.32741,-32.71286 -24.95526,-37.64055 -4.16363,-1.12273 -8.89957,-2.04874 -12.50679,1.08932 z m 68.69037,-62.62946 c 1.46767,15.01127 -8.96661,30.0944 -3.813,45.82152 -3.28473,21.03515 40.96649,16.65695 21.31833,-1.41263 1.75645,-15.81877 -9.78164,-27.70821 -12.01056,-42.05281 0.33768,-2.73388 -3.75073,-4.68551 -5.49477,-2.35608 z m 166.67517,53.53809 c -20.00047,0.24135 -28.94096,21.16373 -42.5254,31.93811 -14.26518,14.74764 8.61852,24.02242 21.5555,20.79103 19.98248,-0.73964 40.84406,2.09057 59.47536,-7.10565 10.40774,-6.9232 20.42987,-17.47773 27.02089,-28.54277 5.10566,-22.97138 -26.1927,-22.06599 -41.13686,-22.05396 -9.18014,1.09267 -23.87552,6.73871 -29.44025,6.99354 m -78.7919,3.03046 c 2.12586,-17.49107 10.91084,-33.9817 25.25381,-44.44671 12.48245,-15.15585 8.55664,14.47808 7.6361,21.93422 -6.91977,10.36082 -14.78393,35.53836 -30.92229,24.59166 -0.65587,-0.69306 -1.31175,-1.38611 -1.96762,-2.07917 z"
           id="path3983"
           inkscape:connector-curvature="0"
           inkscape:label="larry white" />
        <path
           sodipodi:nodetypes="ccscscccscscccsccscscsccscccsccccccsccccccscscccscccccccccccccccscccscccsccscccsccsccccc"
           inkscape:connector-curvature="0"
           id="path4631"
           style="font-size:144px;font-style:normal;font-variant:normal;font-weight:normal;font-stretch:normal;text-align:start;line-height:125%;letter-spacing:0px;word-spacing:0px;writing-mode:lr-tb;text-anchor:start;fill:#000000;fill-opacity:1;stroke:none;font-family:Font Heads;-inkscape-font-specification:Font Heads"
           d="m 430.71353,724.5899 c 32.19952,-8.30956 69.59262,-5.71286 92.44388,-33.7576 2.07739,-6.75152 3.11609,-14.54174 3.11609,-21.8126 0,-49.85734 -16.09978,-101.79218 -16.61913,-152.16887 12.46435,0.51935 24.92869,1.55804 37.91238,1.55804 9.86761,0 26.48674,-1.03869 35.83499,-5.19348 3.11609,-1.55804 6.23218,-4.15478 9.86761,-5.71282 11.945,-6.75152 25.96738,-13.50304 30.12216,-28.04478 0,-0.51934 0,-2.07739 0,-3.11608 0,-10.9063 -12.46434,-16.61913 -20.7739,-21.29326 -9.34826,-5.19347 -18.69652,-8.30956 -30.12217,-8.30956 -25.448,0 -50.37676,15.06108 -71.15063,28.04478 -1.55804,2.59673 0.51935,7.27086 -3.63543,7.79021 l -11.945,-12.98369 c 11.42565,-9.86761 14.54173,-30.12217 14.54173,-44.6639 0,-16.61913 -2.59673,-45.18325 -20.25455,-51.93477 2.59673,32.71887 -13.50308,61.80241 -34.27695,86.21172 -12.98369,-0.51935 -24.92869,-4.67413 -37.91238,-4.67413 -2.07739,0 -4.15478,0.51934 -6.23217,0.51934 -9.86761,-11.42565 -5.71283,-27.52542 -11.945,-39.98977 -3.63543,-7.27087 -6.75152,-25.44803 -17.13847,-24.92869 -3.63544,12.9837 -5.71283,25.96739 -5.71283,39.47043 0,10.9063 1.0387,21.29325 5.19348,31.68021 -7.79022,4.15478 -17.13847,6.23217 -22.8513,13.50304 -14.02239,-9.86761 -31.16086,-16.61913 -48.81868,-16.61913 -22.85126,0 -45.7026,14.02239 -61.28303,30.64151 1.0387,3.63544 -1.03869,7.79022 -4.67413,9.86761 0,2.07739 0.51935,4.67413 -2.07739,5.71282 12.46435,17.13848 25.96742,28.04478 48.29934,28.04478 21.29322,0 40.50915,-11.945 60.76368,-18.17717 l 2.07739,2.07739 c 0.51934,32.71887 7.79021,82.57632 19.21586,113.73714 12.98369,34.27691 39.98981,71.15067 68.03455,94.52128 M 600.54022,472.18693 c -24.92866,0 -48.81872,9.34826 -74.26672,9.34826 13.50304,-9.86761 29.60282,-18.17717 46.22194,-18.17717 10.38696,0 19.73521,3.11608 28.04478,8.82891 m 2.07739,9.8676 c -29.08344,22.85126 -58.16698,21.29326 -93.48258,23.37065 28.56408,-25.96735 63.36045,-8.82891 93.48258,-23.37065 m -314.20535,33.23825 c -12.98369,-2.07739 -28.56412,0.51935 -40.50912,-6.23217 15.58043,-2.07739 30.64152,-10.38695 46.74129,-10.38695 4.15479,0 8.30957,0.51935 11.945,2.07739 3.63543,-1.0387 7.27087,-1.55804 10.9063,-1.55804 3.63544,0 7.27087,0.51934 10.9063,0 -11.94499,8.82891 -28.04477,7.27086 -39.98977,16.09977 m -9.8676,-31.6802 c 7.27086,-4.15479 15.58043,-6.23218 23.37064,-6.23218 12.46435,0 25.44804,4.15479 35.83499,11.945 -17.13847,-6.23217 -41.0285,-3.63543 -59.20563,-5.71282 m 208.25842,-58.68629 c 0,14.54173 -7.79022,26.48673 -15.58043,37.91238 l -5.71283,-1.0387 c 9.34826,-11.42565 15.58043,-24.92869 21.29326,-38.95107 l 0,2.07739 m -106.98563,-7.27087 c 6.23218,12.46435 6.75152,27.00608 12.46435,39.47042 -4.15478,0.51935 -8.30956,1.0387 -12.46435,2.0774 l 0,-41.54782 m 32.19956,265.38666 c -46.74126,-48.81864 -44.6639,-114.25656 -54.01216,-176.57821 -2.07739,-4.15478 -3.11608,-8.82891 -5.71282,-12.98369 4.67413,-1.03869 6.75152,-6.23217 9.8676,-9.8676 17.65782,-3.11609 34.79633,-11.945 52.97347,-11.945 12.46434,0 20.25456,5.71282 31.16086,7.79021 l 3.11608,-2.07739 c 8.30957,2.07739 16.09978,6.23218 24.40934,9.34826 -1.03869,1.0387 -2.07739,2.59674 -2.07739,4.15478 0,4.15478 5.71283,8.30957 7.27087,13.50304 3.63543,15.06109 5.71282,32.19956 8.82891,47.77999 5.19348,32.71887 10.38695,65.95719 15.58043,98.67606 -5.71282,-1.0387 -11.945,-1.55804 -17.65782,-1.55804 -29.08343,0 -55.05089,10.90633 -73.74737,33.75759 m 42.06716,-149.57213 c -2.07739,2.07739 -4.67413,4.67413 -4.67413,7.79022 0,1.55804 0.51935,3.11608 1.0387,4.15478 1.56549,3.28721 6.23217,6.75152 10.38695,6.75152 3.66628,-0.32951 4.24796,-9.53714 4.31699,-13.32447 -2.59674,-2.59674 -4.83634,-5.37205 -8.47177,-5.37205 -1.0387,0 -1.55804,0 -2.59674,0 m -46.74129,31.16086 c -1.55804,-1.03869 -3.63543,-2.07739 -5.19348,-2.07739 -6.23217,0 -11.42565,7.79022 -17.65782,9.86761 -4.38448,5.46392 -1.76671,5.59476 -2.59674,8.30956 3.63544,5.71283 8.30957,6.23217 13.50304,9.86761 l 1.0387,0 c 9.34826,0.51935 12.98369,-9.34826 16.61913,-16.61913"
           inkscape:label="larry black" />
      </g>
    </g>
  </g>
</svg>
