<?xml version="1.0" encoding="UTF-8" standalone="no"?>
<!-- Created with Inkscape (http://www.inkscape.org/) -->

<svg
   xmlns:dc="http://purl.org/dc/elements/1.1/"
   xmlns:cc="http://creativecommons.org/ns#"
   xmlns:rdf="http://www.w3.org/1999/02/22-rdf-syntax-ns#"
   xmlns:svg="http://www.w3.org/2000/svg"
   xmlns="http://www.w3.org/2000/svg"
   xmlns:xlink="http://www.w3.org/1999/xlink"
   xmlns:sodipodi="http://sodipodi.sourceforge.net/DTD/sodipodi-0.dtd"
   xmlns:inkscape="http://www.inkscape.org/namespaces/inkscape"
   width="685.71875"
   height="685.6875"
   id="svg2"
   version="1.1"
   inkscape:version="0.48.1 r9760"
   sodipodi:docname="ripples-gblend.svg"
   inkscape:export-filename="ripples-gblend-105x105.png"
   inkscape:export-xdpi="13.78116"
   inkscape:export-ydpi="13.78116">
  <title
     id="title3008">Ripples Gentoo v1.0.1</title>
  <defs
     id="defs4">
    <filter
       inkscape:collect="always"
       id="filter3989"
       color-interpolation-filters="sRGB">
      <feGaussianBlur
         inkscape:collect="always"
         stdDeviation="6.5429688"
         id="feGaussianBlur3991" />
    </filter>
  </defs>
  <sodipodi:namedview
     id="base"
     pagecolor="#ffffff"
     bordercolor="#000000"
     borderopacity="0.17254902"
     inkscape:pageopacity="0"
     inkscape:pageshadow="2"
     inkscape:zoom="0.49497475"
     inkscape:cx="-50.299172"
     inkscape:cy="437.14162"
     inkscape:document-units="px"
     inkscape:current-layer="svg2"
     showgrid="false"
     inkscape:window-width="1280"
     inkscape:window-height="968"
     inkscape:window-x="0"
     inkscape:window-y="0"
     inkscape:window-maximized="1"
     fit-margin-top="0"
     fit-margin-left="0"
     fit-margin-right="0"
     fit-margin-bottom="0"
     borderlayer="true"
     inkscape:showpageshadow="false" />
  <metadata
     id="metadata7">
    <rdf:RDF>
      <cc:Work
         rdf:about="">
        <dc:format>image/svg+xml</dc:format>
        <dc:type
           rdf:resource="http://purl.org/dc/dcmitype/StillImage" />
        <dc:title>Ripples Gentoo v1.0.1</dc:title>
        <dc:creator>
          <cc:Agent>
            <dc:title>Sebastian Pipping &lt;sping@gentoo.org&gt;</dc:title>
          </cc:Agent>
        </dc:creator>
        <dc:rights>
          <cc:Agent>
            <dc:title>Gentoo Foundation Inc.</dc:title>
          </cc:Agent>
        </dc:rights>
        <dc:publisher>
          <cc:Agent>
            <dc:title>Gentoo Foundation Inc.</dc:title>
          </cc:Agent>
        </dc:publisher>
        <dc:source>icon-gentoo.png</dc:source>
        <dc:relation>SVG remake from raster image</dc:relation>
        <dc:subject>
          <rdf:Bag>
            <rdf:li>Gentoo Linux SVG icon news</rdf:li>
          </rdf:Bag>
        </dc:subject>
        <cc:license
           rdf:resource="http://creativecommons.org/licenses/by-sa/2.5/" />
      </cc:Work>
      <cc:License
         rdf:about="http://creativecommons.org/licenses/by-sa/2.5/">
        <cc:permits
           rdf:resource="http://creativecommons.org/ns#Reproduction" />
        <cc:permits
           rdf:resource="http://creativecommons.org/ns#Distribution" />
        <cc:requires
           rdf:resource="http://creativecommons.org/ns#Notice" />
        <cc:requires
           rdf:resource="http://creativecommons.org/ns#Attribution" />
        <cc:permits
           rdf:resource="http://creativecommons.org/ns#DerivativeWorks" />
        <cc:requires
           rdf:resource="http://creativecommons.org/ns#ShareAlike" />
      </cc:License>
    </rdf:RDF>
  </metadata>
  <g
     inkscape:label="Layer 1"
     inkscape:groupmode="layer"
     id="layer1"
     transform="translate(-31.796875,-190.73437)">
    <g
       id="g3880"
       style="stroke:none;display:none"
       transform="translate(2.8571428,1.4285714)"
       inkscape:label="full circles">
      <path
         inkscape:label="0"
         sodipodi:type="arc"
         style="opacity:0.05;color:#000000;fill:#9b5dff;fill-opacity:1;stroke:none;stroke-width:0.35299999;marker:none;visibility:visible;display:inline;overflow:visible;enable-background:accumulate"
         id="path3855"
         sodipodi:cx="396.42856"
         sodipodi:cy="595.2193"
         sodipodi:rx="327.14285"
         sodipodi:ry="327.14285"
         d="m 723.57141,595.2193 c 0,180.67601 -146.46684,327.14285 -327.14285,327.14285 -180.67601,0 -327.142854,-146.46684 -327.142854,-327.14285 0,-180.67601 146.466844,-327.14285 327.142854,-327.14285 180.67601,0 327.14285,146.46684 327.14285,327.14285 z"
         transform="translate(-24.630257,-63.057129)" />
      <path
         inkscape:label="01"
         sodipodi:type="arc"
         style="color:#000000;fill:#ffffff;fill-opacity:1;stroke:#ff62b1;stroke-width:0.35299999;stroke-opacity:0.05098039;marker:none;visibility:visible;display:inline;overflow:visible;enable-background:accumulate"
         id="path3878"
         sodipodi:cx="396.42856"
         sodipodi:cy="595.2193"
         sodipodi:rx="308.57141"
         sodipodi:ry="308.57141"
         d="m 704.99997,595.2193 c 0,170.41928 -138.15213,308.57141 -308.57141,308.57141 -170.41929,0 -308.571413,-138.15213 -308.571413,-308.57141 0,-170.41929 138.152123,-308.57141 308.571413,-308.57141 170.41928,0 308.57141,138.15212 308.57141,308.57141 z"
         transform="translate(-24.630257,-63.057129)" />
      <path
         inkscape:label="1"
         transform="translate(-24.630257,-63.057129)"
         d="m 685.71426,595.2193 c 0,159.76808 -129.51762,289.2857 -289.2857,289.2857 -159.76809,0 -289.28571,-129.51762 -289.28571,-289.2857 0,-159.76808 129.51762,-289.28571 289.28571,-289.28571 159.76808,0 289.2857,129.51763 289.2857,289.28571 z"
         sodipodi:ry="289.28571"
         sodipodi:rx="289.28571"
         sodipodi:cy="595.2193"
         sodipodi:cx="396.42856"
         id="path3853"
         style="opacity:0.2;color:#000000;fill:#9b5dff;fill-opacity:1;stroke:#ff62b1;stroke-width:0.35299999;stroke-opacity:0.05098039;marker:none;visibility:visible;display:inline;overflow:visible;enable-background:accumulate"
         sodipodi:type="arc" />
      <path
         transform="translate(-24.630257,-63.057129)"
         d="m 660.71426,595.2193 c 0,148.19254 -118.32474,268.32632 -264.2857,268.32632 -145.96097,0 -264.28571,-120.13378 -264.28571,-268.32632 0,-148.19254 118.32474,-268.32633 264.28571,-268.32633 145.96096,0 264.2857,120.13379 264.2857,268.32633 z"
         sodipodi:ry="268.32632"
         sodipodi:rx="264.28571"
         sodipodi:cy="595.2193"
         sodipodi:cx="396.42856"
         id="path3876"
         style="color:#000000;fill:#ffffff;fill-opacity:1;stroke:none;stroke-width:0.35299999;marker:none;visibility:visible;display:inline;overflow:visible;enable-background:accumulate"
         sodipodi:type="arc"
         inkscape:label="12" />
      <path
         inkscape:label="2"
         sodipodi:type="arc"
         style="opacity:0.4;color:#000000;fill:#9b5dff;fill-opacity:1;stroke:#ff62b1;stroke-width:0.35299999;stroke-opacity:0.05098039;marker:none;visibility:visible;display:inline;overflow:visible;enable-background:accumulate"
         id="path3851"
         sodipodi:cx="396.42856"
         sodipodi:cy="595.2193"
         sodipodi:rx="248.57143"
         sodipodi:ry="248.57143"
         d="m 644.99998,595.2193 c 0,137.28221 -111.28921,248.57143 -248.57142,248.57143 -137.28221,0 -248.57143,-111.28922 -248.57143,-248.57143 0,-137.28221 111.28922,-248.57143 248.57143,-248.57143 137.28221,0 248.57142,111.28922 248.57142,248.57143 z"
         transform="translate(-24.630257,-63.057129)" />
      <path
         inkscape:label="23"
         sodipodi:type="arc"
         style="color:#000000;fill:#ffffff;fill-opacity:1;stroke:none;stroke-width:0.35299999;marker:none;visibility:visible;display:inline;overflow:visible;enable-background:accumulate"
         id="path3874"
         sodipodi:cx="396.42856"
         sodipodi:cy="595.2193"
         sodipodi:rx="224.99998"
         sodipodi:ry="224.99998"
         d="m 621.42854,595.2193 c 0,124.26406 -100.73592,224.99998 -224.99998,224.99998 -124.26406,0 -224.99999,-100.73592 -224.99999,-224.99998 0,-124.26406 100.73593,-224.99999 224.99999,-224.99999 124.26406,0 224.99998,100.73593 224.99998,224.99999 z"
         transform="translate(-24.630257,-63.057129)" />
      <path
         inkscape:label="3"
         transform="translate(-24.630257,-63.057129)"
         d="m 601.42856,595.2193 c 0,113.21837 -91.78163,205 -205,205 -113.21838,0 -205,-91.78163 -205,-205 0,-113.21837 91.78162,-205 205,-205 113.21837,0 205,91.78163 205,205 z"
         sodipodi:ry="205"
         sodipodi:rx="205"
         sodipodi:cy="595.2193"
         sodipodi:cx="396.42856"
         id="path3849"
         style="opacity:0.55;color:#000000;fill:#9b5dff;fill-opacity:1;stroke:#ff62b1;stroke-width:0.35299999;stroke-opacity:0.05098039;marker:none;visibility:visible;display:inline;overflow:visible;enable-background:accumulate"
         sodipodi:type="arc" />
      <path
         transform="translate(-24.630257,-63.057129)"
         d="m 577.31615,595.2193 c 0,99.90146 -80.98614,180.88759 -180.88759,180.88759 -99.90146,0 -180.88759,-80.98613 -180.88759,-180.88759 0,-99.90146 80.98613,-180.88759 180.88759,-180.88759 99.90145,0 180.88759,80.98613 180.88759,180.88759 z"
         sodipodi:ry="180.88759"
         sodipodi:rx="180.88759"
         sodipodi:cy="595.2193"
         sodipodi:cx="396.42856"
         id="path3872"
         style="color:#000000;fill:#ffffff;fill-opacity:1;stroke:none;stroke-width:0.35299999;marker:none;visibility:visible;display:inline;overflow:visible;enable-background:accumulate"
         sodipodi:type="arc"
         inkscape:label="34" />
      <path
         inkscape:label="4"
         sodipodi:type="arc"
         style="opacity:0.76000001;color:#000000;fill:#9b5dff;fill-opacity:1;stroke:#ff62b1;stroke-width:0.35299999;stroke-opacity:0.05098039;marker:none;visibility:visible;display:inline;overflow:visible;enable-background:accumulate"
         id="path3847"
         sodipodi:cx="396.42856"
         sodipodi:cy="595.2193"
         sodipodi:rx="161.42856"
         sodipodi:ry="161.42856"
         d="m 557.85712,595.2193 c 0,89.15453 -72.27403,161.42856 -161.42856,161.42856 C 307.27403,756.64786 235,684.37383 235,595.2193 c 0,-89.15453 72.27403,-161.42856 161.42856,-161.42856 89.15453,0 161.42856,72.27403 161.42856,161.42856 z"
         transform="translate(-24.630257,-63.057129)" />
      <path
         inkscape:label="45"
         sodipodi:type="arc"
         style="color:#000000;fill:#ffffff;fill-opacity:1;stroke:none;stroke-width:0.35299999;marker:none;visibility:visible;display:inline;overflow:visible;enable-background:accumulate"
         id="path3870"
         sodipodi:cx="396.42856"
         sodipodi:cy="595.2193"
         sodipodi:rx="136.42856"
         sodipodi:ry="139.28571"
         d="m 532.85712,595.2193 c 0,76.92537 -61.08115,139.2857 -136.42856,139.2857 C 321.08115,734.505 260,672.14467 260,595.2193 c 0,-76.92537 61.08115,-139.28571 136.42856,-139.28571 75.34741,0 136.42856,62.36034 136.42856,139.28571 z"
         transform="translate(-24.630257,-63.057129)" />
      <path
         inkscape:label="5"
         transform="translate(-24.630257,-63.057129)"
         d="m 512.85713,595.2193 c 0,64.30172 -52.12685,116.42857 -116.42857,116.42857 -64.30173,0 -116.42858,-52.12685 -116.42858,-116.42857 0,-64.30173 52.12685,-116.42857 116.42858,-116.42857 64.30172,0 116.42857,52.12684 116.42857,116.42857 z"
         sodipodi:ry="116.42857"
         sodipodi:rx="116.42857"
         sodipodi:cy="595.2193"
         sodipodi:cx="396.42856"
         id="path3845"
         style="color:#000000;fill:#9b5dff;fill-opacity:1;stroke:none;stroke-width:0.35299999;marker:none;visibility:visible;display:inline;overflow:visible;enable-background:accumulate"
         sodipodi:type="arc" />
      <path
         transform="translate(-24.630257,-63.057129)"
         d="m 489.2857,595.2193 c 0,51.28358 -41.57356,92.85714 -92.85714,92.85714 -51.28358,0 -92.85714,-41.57356 -92.85714,-92.85714 0,-51.28358 41.57356,-92.85714 92.85714,-92.85714 51.28358,0 92.85714,41.57356 92.85714,92.85714 z"
         sodipodi:ry="92.85714"
         sodipodi:rx="92.85714"
         sodipodi:cy="595.2193"
         sodipodi:cx="396.42856"
         id="path3868"
         style="color:#000000;fill:#ffffff;fill-opacity:1;stroke:none;stroke-width:0.35299999;marker:none;visibility:visible;display:inline;overflow:visible;enable-background:accumulate"
         sodipodi:type="arc"
         inkscape:label="56" />
      <path
         inkscape:label="6"
         sodipodi:type="arc"
         style="color:#000000;fill:#9b5dff;fill-opacity:1;stroke:none;stroke-width:0.35299999;marker:none;visibility:visible;display:inline;overflow:visible;enable-background:accumulate"
         id="path3843"
         sodipodi:cx="396.42856"
         sodipodi:cy="595.2193"
         sodipodi:rx="77.142853"
         sodipodi:ry="77.142853"
         d="m 473.57141,595.2193 c 0,42.60482 -34.53803,77.14285 -77.14285,77.14285 -42.60482,0 -77.14285,-34.53803 -77.14285,-77.14285 0,-42.60482 34.53803,-77.14285 77.14285,-77.14285 42.60482,0 77.14285,34.53803 77.14285,77.14285 z"
         transform="translate(-24.630257,-63.057129)" />
    </g>
    <g
       id="g3993"
       style="fill:#9b5dff;fill-opacity:1"
       inkscape:label="ripples gblend">
      <g
         id="g3935"
         style="fill:#9b5dff;fill-opacity:1;stroke:none;filter:url(#filter3989)"
         transform="translate(2.8571428,1.4285714)"
         inkscape:label="rings">
        <path
           id="path3937"
           transform="translate(-2.8571428,-1.4285714)"
           d="M 374.65625,206.4375 C 193.98024,206.4375 47.5,352.91774 47.5,533.59375 c 0,180.67601 146.48024,327.125 327.15625,327.125 180.67601,0 327.15625,-146.44899 327.15625,-327.125 0,-180.67601 -146.48024,-327.15625 -327.15625,-327.15625 z m -4,18.59375 c 1.32741,-0.0168 2.6686,0 4,0 170.41928,0 308.5625,138.14322 308.5625,308.5625 0,170.41928 -138.14322,308.5625 -308.5625,308.5625 -170.41928,0 -308.5625,-138.14322 -308.5625,-308.5625 0,-169.08788 135.98126,-306.42715 304.5625,-308.5625 z"
           style="opacity:0.05;color:#000000;fill:#9b5dff;fill-opacity:1;stroke:none;stroke-width:0.35299999;marker:none;visibility:visible;display:inline;overflow:visible;enable-background:accumulate"
           inkscape:label="ring 0"
           inkscape:connector-curvature="0" />
        <path
           id="path3941"
           transform="translate(-2.8571428,-1.4285714)"
           d="m 374.65625,244.3125 c -159.76808,0 -289.28125,129.51317 -289.28125,289.28125 0,159.76808 129.51317,289.28125 289.28125,289.28125 159.76808,0 289.28125,-129.51317 289.28125,-289.28125 0,-159.76808 -129.51317,-289.28125 -289.28125,-289.28125 z m 0,20.9375 c 145.96096,0 264.28125,120.15121 264.28125,268.34375 0,148.19254 -118.32029,268.3125 -264.28125,268.3125 C 228.69529,801.90625 110.375,681.78629 110.375,533.59375 110.375,385.40121 228.69529,265.25 374.65625,265.25 z"
           style="opacity:0.2;color:#000000;fill:#9b5dff;fill-opacity:1;stroke:none;stroke-width:0.35299999;marker:none;visibility:visible;display:inline;overflow:visible;enable-background:accumulate"
           inkscape:label="ring 1"
           inkscape:connector-curvature="0" />
        <path
           id="path3945"
           transform="translate(-2.8571428,-1.4285714)"
           d="m 374.65625,285.03125 c -137.28221,0 -248.5625,111.28029 -248.5625,248.5625 0,137.28221 111.28029,248.5625 248.5625,248.5625 137.28221,0 248.5625,-111.28029 248.5625,-248.5625 0,-137.28221 -111.28029,-248.5625 -248.5625,-248.5625 z m 0,23.5625 c 124.26406,0 225,100.73594 225,225 0,124.26406 -100.73594,225 -225,225 -124.26406,0 -225,-100.73594 -225,-225 0,-124.26406 100.73594,-225 225,-225 z"
           style="opacity:0.4;color:#000000;fill:#9b5dff;fill-opacity:1;stroke:none;stroke-width:0.35299999;marker:none;visibility:visible;display:inline;overflow:visible;enable-background:accumulate"
           inkscape:label="ring 2"
           inkscape:connector-curvature="0" />
        <path
           id="path3949"
           transform="translate(-2.8571428,-1.4285714)"
           d="m 374.65625,328.59375 c -113.21837,0 -205,91.78163 -205,205 0,113.21837 91.78163,205 205,205 113.21837,0 205,-91.78163 205,-205 0,-113.21837 -91.78163,-205 -205,-205 z m 0,24.125 c 99.90146,0 180.875,80.97354 180.875,180.875 0,99.90146 -80.97354,180.875 -180.875,180.875 -99.90146,0 -180.875,-80.97354 -180.875,-180.875 0,-99.90146 80.97354,-180.875 180.875,-180.875 z"
           style="opacity:0.55;color:#000000;fill:#9b5dff;fill-opacity:1;stroke:none;stroke-width:0.35299999;marker:none;visibility:visible;display:inline;overflow:visible;enable-background:accumulate"
           inkscape:label="ring 3"
           inkscape:connector-curvature="0" />
        <path
           id="path3953"
           transform="translate(-2.8571428,-1.4285714)"
           d="m 374.65625,372.15625 c -89.15453,0 -161.4375,72.28297 -161.4375,161.4375 0,89.15453 72.28297,161.4375 161.4375,161.4375 89.15453,0 161.4375,-72.28297 161.4375,-161.4375 0,-89.15453 -72.28297,-161.4375 -161.4375,-161.4375 z m 0,22.15625 c 75.34741,0 136.4375,62.35588 136.4375,139.28125 0,76.92537 -61.09009,139.28125 -136.4375,139.28125 -75.34741,0 -136.4375,-62.35588 -136.4375,-139.28125 0,-76.92537 61.09009,-139.28125 136.4375,-139.28125 z"
           style="opacity:0.76000001;color:#000000;fill:#9b5dff;fill-opacity:1;stroke:none;stroke-width:0.35299999;marker:none;visibility:visible;display:inline;overflow:visible;enable-background:accumulate"
           inkscape:label="ring 4"
           inkscape:connector-curvature="0" />
        <path
           id="path3957"
           transform="translate(-2.8571428,-1.4285714)"
           d="m 374.65625,417.15625 c -64.30173,0 -116.4375,52.13577 -116.4375,116.4375 0,64.30173 52.13577,116.4375 116.4375,116.4375 64.30173,0 116.4375,-52.13577 116.4375,-116.4375 0,-64.30173 -52.13577,-116.4375 -116.4375,-116.4375 z m 0,23.5625 c 51.28358,0 92.84375,41.59142 92.84375,92.875 0,51.28358 -41.56017,92.84375 -92.84375,92.84375 -51.28358,0 -92.84375,-41.56017 -92.84375,-92.84375 0,-51.28358 41.56017,-92.875 92.84375,-92.875 z"
           style="color:#000000;fill:#9b5dff;fill-opacity:1;stroke:none;stroke-width:0.35299999;marker:none;visibility:visible;display:inline;overflow:visible;enable-background:accumulate"
           inkscape:label="ring 5"
           inkscape:connector-curvature="0" />
        <path
           inkscape:label="center"
           sodipodi:type="arc"
           style="color:#000000;fill:#9b5dff;fill-opacity:1;stroke:none;stroke-width:0.35299999;marker:none;visibility:visible;display:inline;overflow:visible;enable-background:accumulate"
           id="path3961"
           sodipodi:cx="396.42856"
           sodipodi:cy="595.2193"
           sodipodi:rx="77.142853"
           sodipodi:ry="77.142853"
           d="m 473.57141,595.2193 c 0,42.60482 -34.53803,77.14285 -77.14285,77.14285 -42.60482,0 -77.14285,-34.53803 -77.14285,-77.14285 0,-42.60482 34.53803,-77.14285 77.14285,-77.14285 42.60482,0 77.14285,34.53803 77.14285,77.14285 z"
           transform="translate(-24.630257,-63.057129)" />
      </g>
    </g>
    <image
       sodipodi:absref="gblend.png"
       xlink:href="gblend.png"
       inkscape:label="gblend"
       width="314.46649"
       height="321.85385"
       id="image3810"
       x="235.22533"
       y="365.54352" />
  </g>
</svg>
